<?xml version="1.0" encoding="UTF-8"?>
<svg width="199px" height="199px" viewBox="0 0 199 199" version="1.1" xmlns="http://www.w3.org/2000/svg" xmlns:xlink="http://www.w3.org/1999/xlink">
    <!-- Generator: Sketch 64 (93537) - https://sketch.com -->
    <title>Group 68</title>
    <desc>Created with Sketch.</desc>
    <defs>
        <polygon id="path-1" points="0.331149425 0.124137931 2.38287356 0.124137931 2.38287356 17.9572414 0.331149425 17.9572414"></polygon>
        <polygon id="path-3" points="0.356436782 0.977011494 18.1942529 0.977011494 18.1942529 3.12758621 0.356436782 3.12758621"></polygon>
        <polygon id="path-5" points="1.09768828 0.475862069 14.8867816 0.475862069 14.8867816 18.3908046 1.09768828 18.3908046"></polygon>
    </defs>
    <g id="Page-1" stroke="none" stroke-width="1" fill="none" fill-rule="evenodd">
        <g id="Group-68">
            <polygon id="Fill-1" fill="#000000" points="34.877931 23.7001149 36.0078161 22.8185057 46.0997701 35.7575862 52.9193103 30.4391954 53.7710345 31.53 45.8204598 37.7311494"></polygon>
            <g id="Group-67" transform="translate(0.000000, 0.025287)">
                <path d="M64.1051724,22.1964368 C64.433908,20.4010345 64.041954,18.4481609 62.9270115,16.3343678 C61.812069,14.2228736 60.4235632,12.7987356 58.7603448,12.0665517 C57.095977,11.332069 55.3212644,11.4527586 53.433908,12.4309195 C51.5396552,13.4297701 50.4385057,14.8309195 50.1327586,16.6309195 C49.8247126,18.4332184 50.2442529,20.4194253 51.3890805,22.5906897 C52.4821839,24.6596552 53.8534483,26.0504598 55.5051724,26.761954 C57.1568966,27.4745977 58.9189655,27.3447126 60.7913793,26.3757471 C62.6718391,25.3826437 63.7764368,23.9906897 64.1051724,22.1964368 M56.9936782,28.6309195 C55.5614943,28.5102299 54.2477011,27.9791954 53.0522989,27.0366667 C51.8557471,26.0941379 50.8270115,24.8067816 49.966092,23.1745977 C49.1051724,21.5424138 48.6224138,19.9665517 48.5189655,18.4458621 C48.4166667,16.9274713 48.7189655,15.5424138 49.4281609,14.2929885 C50.1396552,13.0424138 51.258046,12.0148276 52.787931,11.2056322 C54.3327586,10.3918391 55.8212644,10.0447126 57.2534483,10.1631034 C58.6856322,10.2837931 60.0005747,10.815977 61.1971264,11.7585057 C62.3925287,12.7010345 63.4212644,13.9883908 64.2821839,15.6205747 C65.1431034,17.2527586 65.6247126,18.8274713 65.7281609,20.3481609 C65.8316092,21.8677011 65.5281609,23.2527586 64.8189655,24.5021839 C64.1097701,25.7527586 62.9810345,26.7837931 61.4385057,27.5987356 C59.9086207,28.4056322 58.4270115,28.7504598 56.9936782,28.6309195" id="Fill-2" fill="#000000"></path>
                <path d="M70.776092,16.758046 L77.7128736,14.6856322 L71.3117241,5.94655172 L70.776092,16.758046 Z M81.3645977,19.6557471 L78.5462069,15.8293103 L70.7071264,18.1706897 L70.4726437,22.9109195 L69.0278161,23.341954 L69.9737931,4.48908046 L71.6554023,3.98678161 L82.7852874,19.2316092 L81.3645977,19.6557471 Z" id="Fill-4" fill="#000000"></path>
                <path d="M92.1078161,16.6491954 C93.656092,16.2331034 94.7388506,15.3354023 95.3572414,13.9583908 C95.9756322,12.5825287 96.185977,10.8848276 95.9882759,8.86873563 C95.7905747,6.85264368 95.2549425,5.23195402 94.3825287,4.01011494 C93.5101149,2.78827586 92.2733333,2.11471264 90.6710345,1.99057471 C90.0871264,1.94804598 89.3687356,1.96988506 88.5170115,2.05264368 L84.7296552,2.42390805 L86.194023,17.377931 L89.9813793,17.0066667 C90.8503448,16.9204598 91.5595402,16.802069 92.1078161,16.6491954 L92.1078161,16.6491954 Z M88.3825287,0.675632184 C89.3491954,0.58137931 90.1227586,0.545747126 90.7055172,0.572183908 C92.6503448,0.645747126 94.2078161,1.43310345 95.3825287,2.9308046 C96.5549425,4.4308046 97.2572414,6.36068966 97.4894253,8.72275862 C97.7216092,11.0997701 97.4066667,13.1285057 96.5457471,14.8101149 C95.6836782,16.4928736 94.3078161,17.5675862 92.4181609,18.0342529 C91.8675862,18.1710345 91.1009195,18.2871264 90.1181609,18.3836782 L84.8296552,18.902069 L83.094023,1.19402299 L88.3825287,0.675632184 Z" id="Fill-6" fill="#000000"></path>
                <g id="Group-10" transform="translate(101.149425, 0.000000)">
                    <mask id="mask-2" fill="white">
                        <use xlink:href="#path-1"></use>
                    </mask>
                    <g id="Clip-9"></g>
                    <polygon id="Fill-8" fill="#000000" mask="url(#mask-2)" points="0.950689655 0.123908046 2.38287356 0.174482759 1.76333333 17.9572414 0.331149425 17.9066667"></polygon>
                </g>
                <polygon id="Fill-11" fill="#000000" points="109.698276 0.407931034 111.11092 0.65045977 118.692529 17.4194253 121.267241 2.39068966 122.681034 2.63321839 119.676437 20.17 118.262644 19.9274713 110.684483 3.13436782 108.106322 18.1883908 106.693678 17.9458621"></polygon>
                <path d="M125.638736,21.2905747 C124.793908,20.1331034 124.334138,18.7928736 124.262874,17.2675862 C124.19046,15.7434483 124.496207,14.1147126 125.180115,12.3825287 C125.855977,10.6664368 126.741034,9.27563218 127.834138,8.20896552 C128.927241,7.14344828 130.173218,6.47563218 131.574368,6.20436782 C132.974368,5.93310345 134.47092,6.11126437 136.064023,6.74 C137.688161,7.38022989 138.899655,8.29632184 139.696207,9.48597701 C140.492759,10.677931 140.853678,12.0204598 140.778966,13.5124138 L139.305402,13.4112644 C139.322644,12.1951724 139.018046,11.1181609 138.388161,10.1790805 C137.757126,9.24114943 136.821494,8.5262069 135.580115,8.03655172 C133.587011,7.25034483 131.81,7.32505747 130.246782,8.25724138 C128.682414,9.19172414 127.451379,10.7986207 126.55023,13.0825287 C125.692759,15.2595402 125.53069,17.2055172 126.067471,18.9216092 C126.603103,20.64 127.84908,21.8917241 129.805402,22.6813793 C131.69046,23.423908 133.311149,23.4342529 134.667471,22.7112644 C136.023793,21.9894253 137.111149,20.656092 137.93069,18.7135632 L133.815747,17.0905747 L134.296207,15.8710345 L139.791609,18.0388506 C139.713448,18.3262069 139.598506,18.6618391 139.447931,19.0445977 C138.854828,20.548046 138.06977,21.7744828 137.092759,22.7250575 C136.114598,23.6767816 134.962874,24.2767816 133.634138,24.523908 C132.306552,24.7687356 130.852529,24.5813793 129.274368,23.9583908 C127.696207,23.3365517 126.483563,22.4468966 125.638736,21.2905747" id="Fill-13" fill="#000000"></path>
                <polygon id="Fill-15" fill="#000000" points="149.704828 24.768046 150.524368 23.7795402 162.395632 33.6209195 161.830115 27.5668966 162.996782 27.4749425 163.755402 35.5829885 155.647356 36.3404598 155.52092 35.1772414 161.576092 34.6105747"></polygon>
                <polygon id="Fill-17" fill="#000000" points="175.506207 35.5191954 176.38092 36.6548276 163.38092 46.6686207 168.65908 53.5203448 167.562529 54.364023 161.409655 46.3766667"></polygon>
                <path d="M176.797126,64.7308046 C178.59023,65.0698851 180.545402,64.6882759 182.663793,63.585977 C184.783333,62.4836782 186.214368,61.102069 186.958046,59.4422989 C187.700575,57.7836782 187.59023,56.0078161 186.623563,54.1158621 C185.633908,52.2147126 184.240805,51.1066667 182.440805,50.7894253 C180.641954,50.4721839 178.653448,50.8802299 176.476437,52.0135632 C174.400575,53.0928736 173.001724,54.4572414 172.279885,56.1043678 C171.559195,57.7526437 171.677586,59.5147126 172.637356,61.394023 C173.617816,63.277931 175.004023,64.3905747 176.797126,64.7308046 M170.404023,57.5825287 C170.531609,56.1514943 171.07069,54.8411494 172.020115,53.6491954 C172.96954,52.4583908 174.262644,51.4377011 175.900575,50.5848276 C177.537356,49.7342529 179.115517,49.2606897 180.636207,49.1664368 C182.155747,49.0721839 183.538506,49.3825287 184.784483,50.0997701 C186.03046,50.8170115 187.052299,51.9422989 187.851149,53.4767816 C188.656897,55.0262069 188.995977,56.5170115 188.868391,57.948046 C188.740805,59.3802299 188.201724,60.6905747 187.252299,61.8813793 C186.301724,63.0721839 185.008621,64.0928736 183.371839,64.9457471 C181.735057,65.7974713 180.156897,66.2698851 178.636207,66.3641379 C177.115517,66.4595402 175.732759,66.1468966 174.486782,65.4308046 C173.240805,64.7135632 172.215517,63.5813793 171.40977,62.031954 C170.61092,60.4974713 170.275287,59.0135632 170.404023,57.5825287" id="Fill-19" fill="#000000"></path>
                <path d="M182.20069,71.4398851 L184.234023,78.3904598 L193.008736,72.0387356 L182.20069,71.4398851 Z M179.242069,82.0122989 L183.084598,79.2157471 L180.788046,71.3651724 L176.051264,71.101954 L175.628276,69.6548276 L194.475402,70.7088506 L194.966207,72.3927586 L179.658161,83.4364368 L179.242069,82.0122989 Z" id="Fill-21" fill="#000000"></path>
                <path d="M182.187241,92.7873563 C182.594138,94.3390805 183.484943,95.4275862 184.857356,96.054023 C186.23092,96.6804598 187.925172,96.9 189.943563,96.7149425 C191.961954,96.5298851 193.583793,96.0034483 194.811379,95.137931 C196.038966,94.2724138 196.719425,93.0390805 196.853908,91.437931 C196.899885,90.854023 196.882644,90.1367816 196.804483,89.283908 L196.455057,85.4942529 L181.492989,86.8712644 L181.842414,90.6597701 C181.922874,91.5298851 182.036667,92.237931 182.187241,92.7873563 L182.187241,92.7873563 Z M198.182644,89.1574713 C198.271149,90.1252874 198.302184,90.8988506 198.272299,91.4816092 C198.186092,93.4252874 197.39069,94.9781609 195.884943,96.1436782 C194.378046,97.308046 192.444713,97.9988506 190.081494,98.216092 C187.703333,98.4344828 185.674598,98.108046 183.998736,97.2367816 C182.321724,96.3655172 181.255057,94.9827586 180.799885,93.0896552 C180.666552,92.5390805 180.555057,91.7712644 180.464253,90.7873563 L179.976897,85.4965517 L197.695287,83.8655172 L198.182644,89.1574713 Z" id="Fill-23" fill="#000000"></path>
                <g id="Group-27" transform="translate(180.459770, 101.149425)">
                    <mask id="mask-4" fill="white">
                        <use xlink:href="#path-3"></use>
                    </mask>
                    <g id="Clip-26"></g>
                    <polygon id="Fill-25" fill="#000000" mask="url(#mask-4)" points="18.1943678 1.6954023 18.1357471 3.12758621 0.356436782 2.4091954 0.415057471 0.977011494"></polygon>
                </g>
                <polygon id="Fill-28" fill="#000000" points="198.326322 110.465402 198.075747 111.878046 181.261954 119.359655 196.275747 122.024023 196.025172 123.434368 178.505632 120.327471 178.756207 118.915977 195.592989 111.436667 180.556207 108.768851 180.806782 107.357356"></polygon>
                <path d="M177.353908,126.273333 C178.515977,125.435402 179.858506,124.983678 181.383793,124.92046 C182.90908,124.858391 184.535517,125.173333 186.264253,125.866437 C187.975747,126.552644 189.361954,127.445747 190.420575,128.545747 C191.480345,129.644598 192.141264,130.895172 192.405632,132.295172 C192.668851,133.696322 192.481494,135.192874 191.843563,136.783678 C191.194138,138.404368 190.271149,139.610115 189.075747,140.39977 C187.880345,141.189425 186.535517,141.541149 185.042414,141.458391 L185.155057,139.985977 C186.37,140.010115 187.448161,139.710115 188.391839,139.085977 C189.334368,138.461839 190.053908,137.529655 190.54931,136.291724 C191.347011,134.303218 191.283793,132.523908 190.359655,130.956092 C189.435517,129.387126 187.834368,128.146897 185.556207,127.233103 C183.383793,126.361839 181.438966,126.189425 179.719425,126.715862 C177.999885,127.242299 176.738966,128.48023 175.940115,130.431954 C175.184943,132.313563 175.165402,133.933103 175.880345,135.294023 C176.594138,136.653793 177.920575,137.750345 179.860805,138.581379 L181.506782,134.475632 L182.722874,134.962989 L180.524023,140.444598 C180.236667,140.365287 179.902184,140.248046 179.519425,140.095172 C178.020575,139.494023 176.798736,138.702069 175.851609,137.71931 C174.905632,136.736552 174.313678,135.58023 174.074598,134.250345 C173.835517,132.92046 174.032069,131.469885 174.663103,129.894023 C175.295287,128.318161 176.191839,127.111264 177.353908,126.273333" id="Fill-30" fill="#000000"></path>
                <polygon id="Fill-32" fill="#000000" points="173.743908 150.30908 174.727816 151.135517 164.81977 162.951609 170.878391 162.419425 170.963448 163.587241 162.850805 164.299885 162.138161 156.187241 163.303678 156.068851 163.835862 162.125172"></polygon>
                <polygon id="Fill-34" fill="#000000" points="157.77092 179.998851 156.576667 180.790805 147.497356 167.122989 140.293908 171.908046 139.527241 170.755172 147.927241 165.175862"></polygon>
                <path d="M128.517816,179.243448 C128.053448,181.006667 128.294828,182.984828 129.245402,185.176782 C130.194828,187.368736 131.47069,188.894023 133.072989,189.753793 C134.674138,190.612414 136.454598,190.626207 138.41092,189.797471 C140.376437,188.944598 141.579885,187.633103 142.024713,185.86069 C142.468391,184.088276 142.201724,182.075632 141.227011,179.822759 C140.295977,177.676782 139.033908,176.184828 137.443103,175.349195 C135.85,174.512414 134.083333,174.506667 132.140805,175.330805 C130.191379,176.174483 128.983333,177.48023 128.517816,179.243448 M136.100575,173.372184 C137.518966,173.60092 138.79023,174.230805 139.90977,175.262989 C141.03046,176.295172 141.956897,177.656092 142.691379,179.350345 C143.424713,181.042299 143.784483,182.651494 143.771839,184.174483 C143.758046,185.696322 143.35,187.054943 142.546552,188.246897 C141.744253,189.437701 140.548851,190.37908 138.961494,191.066437 C137.359195,191.76069 135.848851,191.994023 134.43046,191.765287 C133.00977,191.535402 131.740805,190.905517 130.620115,189.873333 C129.499425,188.842299 128.572989,187.47908 127.838506,185.785977 C127.105172,184.094023 126.745402,182.484828 126.759195,180.961839 C126.77069,179.438851 127.179885,178.081379 127.983333,176.889425 C128.785632,175.697471 129.98908,174.754943 131.591379,174.05954 C133.178736,173.373333 134.681034,173.142299 136.100575,173.372184" id="Fill-36" fill="#000000"></path>
                <path d="M121.451839,184.153218 L114.375977,185.688851 L120.088621,194.893448 L121.451839,184.153218 Z M111.116207,180.452069 L113.633448,184.483103 L121.627701,182.74977 L122.225402,178.044023 L123.698966,177.723333 L121.311609,196.448621 L119.596667,196.821034 L109.666782,180.767011 L111.116207,180.452069 Z" id="Fill-38" fill="#000000"></path>
                <g id="Group-42" transform="translate(93.103448, 180.459770)">
                    <mask id="mask-6" fill="white">
                        <use xlink:href="#path-5"></use>
                    </mask>
                    <g id="Clip-41"></g>
                    <path d="M7.06494253,2.17356322 C5.49022989,2.47241379 4.34195402,3.28505747 3.62126437,4.61034483 C2.90172414,5.93563218 2.5637931,7.61264368 2.60862069,9.63793103 C2.65344828,11.6643678 3.06494253,13.3195402 3.84310345,14.6034483 C4.62126437,15.8896552 5.80402299,16.654023 7.39137931,16.8988506 C7.97068966,16.9850575 8.68793103,17.0183908 9.54425287,16.9988506 L13.3488506,16.9149425 L13.0166667,1.89310345 L9.21091954,1.97816092 C8.33850575,1.99770115 7.62241379,2.06206897 7.06494253,2.17356322 L7.06494253,2.17356322 Z M9.57528736,18.383908 C8.60402299,18.4045977 7.82816092,18.3804598 7.25,18.3103448 C5.31666667,18.0908046 3.82241379,17.1885057 2.76494253,15.6057471 C1.70862069,14.0218391 1.15344828,12.0436782 1.10172414,9.67126437 C1.04885057,7.28275862 1.51551724,5.28275862 2.50057471,3.67126437 C3.48678161,2.05862069 4.93965517,1.09195402 6.86034483,0.768965517 C7.42011494,0.673563218 8.19252874,0.617241379 9.18103448,0.594252874 L14.4925287,0.475862069 L14.8867816,18.2655172 L9.57528736,18.383908 Z" id="Fill-40" fill="#000000" mask="url(#mask-6)"></path>
                </g>
                <polygon id="Fill-43" fill="#000000" points="88.9367816 198.36046 87.5114943 198.201839 89.4770115 180.517931 90.9011494 180.675402"></polygon>
                <polygon id="Fill-45" fill="#000000" points="81.3847126 197.501839 79.9950575 197.152414 73.7203448 179.852414 70.001954 194.638621 68.6111494 194.289195 72.9502299 177.032874 74.3410345 177.383448 80.61 194.707586 84.3341379 179.897241 85.7237931 180.245517"></polygon>
                <path d="M67.0786207,175.451724 C67.8314943,176.671264 68.1866667,178.042529 68.1418391,179.567816 C68.0958621,181.093103 67.665977,182.694253 66.8521839,184.368966 C66.0464368,186.027586 65.0567816,187.347126 63.8843678,188.325287 C62.7131034,189.303448 61.4188506,189.874713 60.0027586,190.036782 C58.5855172,190.201149 57.1073563,189.908046 55.565977,189.158621 C53.9947126,188.395402 52.8590805,187.389655 52.1556322,186.141379 C51.4521839,184.893103 51.1970115,183.526437 51.3855172,182.043678 L52.8464368,182.25977 C52.7349425,183.470115 52.957931,184.566667 53.5131034,185.550575 C54.0705747,186.536782 54.9475862,187.31954 56.1487356,187.903448 C58.0751724,188.83908 59.8533333,188.902299 61.4832184,188.091954 C63.1142529,187.281609 64.465977,185.772414 65.5383908,183.565517 C66.5613793,181.46092 66.8717241,179.532184 66.4694253,177.77931 C66.065977,176.026437 64.92,174.681609 63.0303448,173.745977 C61.2085057,172.85977 59.5924138,172.724138 58.1855172,173.341379 C56.7774713,173.957471 55.5901149,175.202299 54.6234483,177.078161 L58.6016092,179.012644 L58.0291954,180.189655 L52.7177011,177.608046 C52.8177011,177.326437 52.957931,177.001149 53.1372414,176.629885 C53.8429885,175.178161 54.72,174.014943 55.7671264,173.141379 C56.8154023,172.266667 58.0108046,171.758621 59.3533333,171.614943 C60.6970115,171.471264 62.1314943,171.770115 63.6567816,172.511494 C65.1843678,173.254023 66.3245977,174.233333 67.0786207,175.451724" id="Fill-47" fill="#000000"></path>
                <polygon id="Fill-49" fill="#000000" points="48.0671264 173.642184 47.2349425 174.622644 35.4751724 164.647931 35.974023 170.707701 34.8050575 170.787011 34.1383908 162.67092 42.2533333 162.004253 42.3671264 163.16977 36.3073563 163.667471"></polygon>
                <polygon id="Fill-51" fill="#000000" points="22.3857471 162.600345 21.5236782 161.455517 34.6351724 151.588851 29.4351724 144.677356 30.5409195 143.845172 36.6029885 151.901494"></polygon>
                <path d="M21.4068966,133.338276 C19.6183908,132.978506 17.6574713,133.337126 15.5264368,134.415287 C13.3942529,135.492299 11.9471264,136.856667 11.183908,138.506092 C10.4206897,140.156667 10.5114943,141.933678 11.4563218,143.838276 C12.4229885,145.748621 13.8034483,146.872759 15.5988506,147.211839 C17.3942529,147.54977 19.3873563,147.165862 21.5781609,146.057816 C23.6666667,145.002644 25.0804598,143.656667 25.8218391,142.017586 C26.562069,140.378506 26.4632184,138.614138 25.5275862,136.724483 C24.5678161,134.827931 23.1954023,133.699195 21.4068966,133.338276 M27.7149425,140.561264 C27.5701149,141.991149 27.0172414,143.295747 26.0528736,144.475057 C25.0896552,145.654368 23.783908,146.660115 22.137931,147.492299 C20.4908046,148.325632 18.9068966,148.780805 17.3850575,148.856667 C15.8643678,148.932529 14.4862069,148.606092 13.2471264,147.873908 C12.0103448,147.144023 11.0011494,146.006092 10.2218391,144.462414 C9.43333333,142.902644 9.11149425,141.408391 9.25632184,139.978506 C9.40229885,138.548621 9.95517241,137.244023 10.9195402,136.064713 C11.8827586,134.885402 13.1885057,133.879655 14.8344828,133.047471 C16.4816092,132.214138 18.0655172,131.760115 19.5862069,131.684253 C21.108046,131.606092 22.4862069,131.933678 23.7252874,132.665862 C24.962069,133.396897 25.9747126,134.541724 26.762069,136.100345 C27.5425287,137.644023 27.8609195,139.131379 27.7149425,140.561264" id="Fill-53" fill="#000000"></path>
                <path d="M16.0886207,126.57977 L14.138046,119.607356 L5.28747126,125.855632 L16.0886207,126.57977 Z M19.1713793,116.042989 L15.2966667,118.795862 L17.5001149,126.672874 L22.2334483,126.990115 L22.6391954,128.441839 L3.80586207,127.168276 L3.33344828,125.478621 L18.7713793,114.615402 L19.1713793,116.042989 Z" id="Fill-55" fill="#000000"></path>
                <path d="M16.3524138,105.23908 C15.9627586,103.682759 15.0845977,102.585057 13.7190805,101.942529 C12.3535632,101.3 10.6604598,101.06092 8.64091954,101.222989 C6.62022989,101.385057 4.99264368,101.893103 3.75471264,102.743678 C2.51793103,103.595402 1.82252874,104.821839 1.6708046,106.41954 C1.61908046,107.003448 1.62597701,107.72069 1.69494253,108.574713 L2.00068966,112.368966 L16.9777011,111.163218 L16.671954,107.370115 C16.6018391,106.5 16.4949425,105.789655 16.3524138,105.23908 L16.3524138,105.23908 Z M0.315632184,108.686207 C0.237471264,107.717241 0.216781609,106.941379 0.252413793,106.36092 C0.361609195,104.418391 1.17425287,102.873563 2.6937931,101.726437 C4.21218391,100.57931 6.15471264,99.9103448 8.52022989,99.7206897 C10.9018391,99.5287356 12.925977,99.8781609 14.5914943,100.768966 C16.2581609,101.66092 17.3087356,103.055172 17.742069,104.954023 C17.8696552,105.504598 17.971954,106.273563 18.0524138,107.25977 L18.4777011,112.555172 L0.742068966,113.981609 L0.315632184,108.686207 Z" id="Fill-57" fill="#000000"></path>
                <polygon id="Fill-59" fill="#000000" points="0 94.9873563 0.0735632184 93.5551724 17.8425287 94.4781609 17.7689655 95.9091954"></polygon>
                <polygon id="Fill-61" fill="#000000" points="0.411954023 87.3926437 0.67862069 85.9845977 17.5763218 78.6937931 2.59356322 75.8593103 2.86022989 74.4501149 20.3441379 77.7581609 20.0763218 79.1662069 3.15563218 86.4535632 18.1613793 89.2914943 17.8947126 90.7006897"></polygon>
                <path d="M21.5674713,71.8193103 C20.3962069,72.6445977 19.047931,73.0802299 17.5214943,73.1250575 C15.9962069,73.1710345 14.3732184,72.8377011 12.6536782,72.1250575 C10.9490805,71.4170115 9.57321839,70.5089655 8.52724138,69.3986207 C7.48011494,68.2871264 6.83413793,67.0285057 6.58701149,65.623908 C6.33873563,64.2204598 6.54333333,62.7262069 7.19965517,61.1434483 C7.86747126,59.5308046 8.80425287,58.3365517 10.0088506,57.5595402 C11.2122989,56.7836782 12.5605747,56.4457471 14.0525287,56.5468966 L13.9249425,58.0181609 C12.71,57.9790805 11.6283908,58.2664368 10.6778161,58.8802299 C9.7283908,59.494023 8.99735632,60.4170115 8.48701149,61.6503448 C7.66747126,63.6285057 7.71,65.4078161 8.61574713,66.9871264 C9.52264368,68.5664368 11.1088506,69.8262069 13.3766667,70.7652874 C15.5387356,71.6606897 17.4812644,71.856092 19.2077011,71.3491954 C20.9329885,70.8422989 22.2077011,69.6193103 23.0295402,67.6767816 C23.8054023,65.8055172 23.8433333,64.1836782 23.1456322,62.8158621 C22.4467816,61.448046 21.1318391,60.3365517 19.201954,59.4836782 L17.51,63.5698851 L16.2996552,63.0687356 L18.5605747,57.6124138 C18.8467816,57.6951724 19.1812644,57.8147126 19.5605747,57.9733333 C21.0525287,58.5917241 22.2651724,59.3974713 23.2008046,60.3917241 C24.1352874,61.3848276 24.7134483,62.548046 24.9387356,63.8802299 C25.1617241,65.2124138 24.947931,66.6618391 24.2996552,68.2296552 C23.6502299,69.7974713 22.7398851,70.9928736 21.5674713,71.8193103" id="Fill-63" fill="#000000"></path>
                <polygon id="Fill-65" fill="#000000" points="22.242069 52.7348276 21.2144828 51.9624138 30.4777011 39.6348276 24.4570115 40.4888506 24.3098851 39.3267816 32.371954 38.1831034 33.5167816 46.2451724 32.3604598 46.4267816 31.5064368 40.4049425"></polygon>
            </g>
        </g>
    </g>
</svg>