<?xml version="1.0" encoding="UTF-8"?>
<svg width="147px" height="74px" viewBox="0 0 147 74" version="1.1" xmlns="http://www.w3.org/2000/svg" xmlns:xlink="http://www.w3.org/1999/xlink">
    <!-- Generator: Sketch 64 (93537) - https://sketch.com -->
    <title>Group 25</title>
    <desc>Created with Sketch.</desc>
    <defs>
        <polygon id="path-1" points="0 73.3389 146.583 73.3389 146.583 -0.0001 0 -0.0001"></polygon>
    </defs>
    <g id="Page-1" stroke="none" stroke-width="1" fill="none" fill-rule="evenodd">
        <g id="Group-25">
            <path d="M4.1523,16.8789 C3.1463,16.4339 2.3233,15.7989 1.6843,14.9719 C1.0453,14.1459 0.6393,13.1709 0.4673,12.0479 L3.7903,11.5569 C4.0233,12.5079 4.4993,13.2489 5.2163,13.7789 C5.9333,14.3099 6.7763,14.5739 7.7433,14.5739 C8.5853,14.5739 9.3303,14.3839 9.9773,14.0009 C10.6243,13.6189 10.9483,13.0929 10.9483,12.4219 C10.9483,12.0479 10.8273,11.7199 10.5863,11.4399 C10.3433,11.1589 9.9193,10.9249 9.3103,10.7369 L4.9353,9.4509 C3.8903,9.1549 2.9943,8.6939 2.2463,8.0699 C1.4973,7.4469 1.1233,6.4409 1.1233,5.0529 C1.1233,3.9619 1.3993,3.0369 1.9533,2.2809 C2.5063,1.5249 3.2583,0.9549 4.2113,0.5729 C5.1623,0.1919 6.2303,0.0079 7.4163,0.0239 C9.1623,0.0549 10.6213,0.4909 11.7903,1.3329 C12.9603,2.1759 13.7473,3.3849 14.1533,4.9589 L10.7143,5.5439 C10.5273,4.7329 10.1093,4.1059 9.4633,3.6609 C8.8153,3.2169 8.0703,2.9939 7.2283,2.9939 C6.4793,2.9939 5.8333,3.1699 5.2873,3.5209 C4.7413,3.8719 4.4673,4.3279 4.4673,4.8899 C4.4673,5.3889 4.6713,5.7709 5.0763,6.0349 C5.4813,6.3009 6.0273,6.5199 6.7143,6.6909 L9.6373,7.4859 C10.4803,7.7199 11.2203,7.9849 11.8603,8.2809 C12.5003,8.5779 13.0653,9.0419 13.5563,9.6729 C14.0483,10.3049 14.2933,11.1439 14.2933,12.1889 C14.2933,13.3429 13.9773,14.3249 13.3453,15.1359 C12.7153,15.9469 11.8833,16.5509 10.8543,16.9479 C9.8253,17.3469 8.7173,17.5449 7.5323,17.5449 C6.2853,17.5449 5.1583,17.3229 4.1523,16.8789" id="Fill-1" fill="#000000"></path>
            <path d="M29.5342,13.0303 C30.3522,12.0013 30.7632,10.5823 30.7632,8.7723 C30.7632,6.9793 30.3562,5.5713 29.5462,4.5503 C28.7342,3.5283 27.5422,3.0093 25.9672,2.9943 C24.4072,2.9783 23.2182,3.4853 22.3992,4.5143 C21.5802,5.5443 21.1712,6.9643 21.1712,8.7723 C21.1712,10.5663 21.5762,11.9733 22.3882,12.9953 C23.1982,14.0163 24.3912,14.5353 25.9672,14.5513 C27.5262,14.5663 28.7162,14.0593 29.5342,13.0303 M21.6382,16.4453 C20.4062,15.7133 19.4592,14.6873 18.7972,13.3693 C18.1342,12.0513 17.8022,10.5193 17.8022,8.7723 C17.8022,7.0263 18.1342,5.4943 18.7972,4.1763 C19.4592,2.8583 20.4062,1.8333 21.6382,1.0993 C22.8702,0.3663 24.3132,0.0003 25.9672,0.0003 C27.6192,0.0003 29.0622,0.3663 30.2942,1.0993 C31.5262,1.8333 32.4732,2.8583 33.1372,4.1763 C33.8002,5.4943 34.1312,7.0263 34.1312,8.7723 C34.1312,10.5193 33.8002,12.0513 33.1372,13.3693 C32.4732,14.6873 31.5262,15.7133 30.2942,16.4453 C29.0622,17.1783 27.6192,17.5453 25.9672,17.5453 C24.3132,17.5453 22.8702,17.1783 21.6382,16.4453" id="Fill-3" fill="#000000"></path>
            <path d="M41.2432,16.4453 C40.0112,15.7133 39.0632,14.6873 38.4002,13.3693 C37.7372,12.0513 37.4062,10.5193 37.4062,8.7723 C37.4062,7.0263 37.7372,5.4943 38.4002,4.1753 C39.0632,2.8583 40.0112,1.8333 41.2432,1.0993 C42.4742,0.3663 43.9172,0.0003 45.5702,0.0003 C47.4732,0.0003 49.0872,0.4713 50.4132,1.4153 C51.7382,2.3593 52.6742,3.6653 53.2212,5.3343 L50.0152,6.2223 C49.6872,5.1773 49.1532,4.3793 48.4132,3.8253 C47.6722,3.2713 46.7242,2.9943 45.5702,2.9943 C43.9952,2.9943 42.7992,3.5083 41.9792,4.5383 C41.1612,5.5673 40.7512,6.9793 40.7512,8.7723 C40.7512,10.5663 41.1612,11.9773 41.9792,13.0073 C42.7992,14.0363 43.9952,14.5503 45.5702,14.5503 C46.7242,14.5503 47.6722,14.2743 48.4132,13.7203 C49.1532,13.1673 49.6872,12.3673 50.0152,11.3223 L53.2212,12.2123 C52.6742,13.8813 51.7382,15.1863 50.4132,16.1303 C49.0872,17.0733 47.4732,17.5453 45.5702,17.5453 C43.9172,17.5453 42.4742,17.1783 41.2432,16.4453" id="Fill-5" fill="#000000"></path>
            <mask id="mask-2" fill="white">
                <use xlink:href="#path-1"></use>
            </mask>
            <g id="Clip-8"></g>
            <polygon id="Fill-7" fill="#000000" mask="url(#mask-2)" points="57.898 17.1949 61.08 17.1949 61.08 0.3509 57.898 0.3509"></polygon>
            <path d="M70.5313,10.7139 L75.0693,10.7139 L72.7773,3.3219 L70.5313,10.7139 Z M77.0573,17.1939 L75.9813,13.6859 L69.6423,13.6859 L68.5663,17.1939 L65.2913,17.1939 L70.4373,0.3509 L75.1863,0.3509 L80.3333,17.1939 L77.0573,17.1939 Z" id="Fill-9" fill="#000000" mask="url(#mask-2)"></path>
            <polygon id="Fill-10" fill="#000000" mask="url(#mask-2)" points="84.5439 0.3506 87.7259 0.3506 87.7259 14.2236 94.9779 14.2236 94.9779 17.1946 84.5439 17.1946"></polygon>
            <path d="M8.4453,42.1553 C9.4743,41.9533 10.2573,41.3443 10.7963,40.3303 C11.3343,39.3173 11.6033,38.1553 11.6033,36.8443 C11.6033,35.5043 11.3303,34.3343 10.7843,33.3363 C10.2383,32.3383 9.4593,31.7373 8.4453,31.5343 C8.0543,31.4573 7.4463,31.4183 6.6203,31.4183 L4.3973,31.4183 L4.3973,42.2723 L6.6203,42.2723 C7.4463,42.2723 8.0543,42.2333 8.4453,42.1553 L8.4453,42.1553 Z M6.6203,28.4233 C7.4463,28.4233 8.1173,28.4543 8.6323,28.5163 C9.9583,28.6733 11.0953,29.1363 12.0483,29.9083 C12.9993,30.6803 13.7233,31.6713 14.2233,32.8803 C14.7223,34.0893 14.9713,35.4103 14.9713,36.8443 C14.9713,38.2803 14.7223,39.6013 14.2233,40.8103 C13.7233,42.0183 12.9993,43.0093 12.0483,43.7813 C11.0953,44.5523 9.9583,45.0173 8.6323,45.1733 C8.1173,45.2353 7.4463,45.2663 6.6203,45.2663 L1.1703,45.2663 L1.1703,28.4233 L6.6203,28.4233 Z" id="Fill-11" fill="#000000" mask="url(#mask-2)"></path>
            <polygon id="Fill-12" fill="#000000" mask="url(#mask-2)" points="19.885 45.2669 23.067 45.2669 23.067 28.4229 19.885 28.4229"></polygon>
            <path d="M31.4287,44.9512 C30.4227,44.5062 29.6007,43.8712 28.9607,43.0442 C28.3217,42.2182 27.9157,41.2432 27.7437,40.1202 L31.0667,39.6292 C31.3007,40.5802 31.7767,41.3212 32.4927,41.8512 C33.2107,42.3822 34.0527,42.6462 35.0207,42.6462 C35.8627,42.6462 36.6067,42.4562 37.2537,42.0732 C37.9017,41.6912 38.2247,41.1652 38.2247,40.4942 C38.2247,40.1202 38.1037,39.7922 37.8627,39.5122 C37.6197,39.2312 37.1957,38.9972 36.5877,38.8092 L32.2127,37.5232 C31.1677,37.2272 30.2717,36.7662 29.5227,36.1422 C28.7737,35.5192 28.3997,34.5132 28.3997,33.1252 C28.3997,32.0342 28.6767,31.1092 29.2307,30.3532 C29.7827,29.5972 30.5357,29.0272 31.4877,28.6452 C32.4387,28.2642 33.5067,28.0802 34.6927,28.0962 C36.4397,28.1272 37.8977,28.5632 39.0677,29.4052 C40.2377,30.2482 41.0247,31.4572 41.4297,33.0312 L37.9907,33.6162 C37.8037,32.8052 37.3867,32.1782 36.7397,31.7332 C36.0917,31.2892 35.3477,31.0662 34.5057,31.0662 C33.7567,31.0662 33.1097,31.2422 32.5637,31.5932 C32.0177,31.9442 31.7447,32.4002 31.7447,32.9622 C31.7447,33.4612 31.9477,33.8432 32.3537,34.1072 C32.7587,34.3732 33.3047,34.5922 33.9907,34.7632 L36.9147,35.5582 C37.7567,35.7922 38.4977,36.0572 39.1377,36.3532 C39.7767,36.6502 40.3417,37.1142 40.8327,37.7452 C41.3247,38.3772 41.5707,39.2162 41.5707,40.2612 C41.5707,41.4152 41.2547,42.3972 40.6227,43.2082 C39.9917,44.0192 39.1607,44.6232 38.1317,45.0202 C37.1027,45.4192 35.9937,45.6172 34.8097,45.6172 C33.5617,45.6172 32.4347,45.3952 31.4287,44.9512" id="Fill-13" fill="#000000" mask="url(#mask-2)"></path>
            <polygon id="Fill-14" fill="#000000" mask="url(#mask-2)" points="49.9219 31.3946 44.6109 31.3946 44.6109 28.4226 58.4129 28.4226 58.4129 31.3946 53.1039 31.3946 53.1039 45.2666 49.9219 45.2666"></polygon>
            <path d="M65.7588,38.7862 L70.2978,38.7862 L68.0048,31.3942 L65.7588,38.7862 Z M72.2858,45.2662 L71.2098,41.7582 L64.8698,41.7582 L63.7938,45.2662 L60.5188,45.2662 L65.6648,28.4232 L70.4138,28.4232 L75.5618,45.2662 L72.2858,45.2662 Z" id="Fill-15" fill="#000000" mask="url(#mask-2)"></path>
            <polygon id="Fill-16" fill="#000000" mask="url(#mask-2)" points="79.5381 28.4229 82.7661 28.4229 90.0881 39.6519 90.0881 28.4229 93.3161 28.4229 93.3161 45.2669 90.0881 45.2669 82.7661 34.0379 82.7661 45.2669 79.5381 45.2669"></polygon>
            <path d="M101.3643,44.5176 C100.1323,43.7856 99.1843,42.7596 98.5213,41.4416 C97.8583,40.1236 97.5273,38.5916 97.5273,36.8446 C97.5273,35.0986 97.8583,33.5666 98.5213,32.2476 C99.1843,30.9306 100.1323,29.9056 101.3643,29.1716 C102.5953,28.4386 104.0383,28.0726 105.6913,28.0726 C107.5943,28.0726 109.2083,28.5436 110.5343,29.4876 C111.8593,30.4316 112.7953,31.7376 113.3423,33.4066 L110.1363,34.2946 C109.8083,33.2496 109.2743,32.4516 108.5343,31.8976 C107.7933,31.3436 106.8453,31.0666 105.6913,31.0666 C104.1163,31.0666 102.9203,31.5806 102.1003,32.6106 C101.2823,33.6396 100.8723,35.0516 100.8723,36.8446 C100.8723,38.6386 101.2823,40.0496 102.1003,41.0796 C102.9203,42.1086 104.1163,42.6226 105.6913,42.6226 C106.8453,42.6226 107.7933,42.3466 108.5343,41.7926 C109.2743,41.2396 109.8083,40.4396 110.1363,39.3946 L113.3423,40.2846 C112.7953,41.9536 111.8593,43.2586 110.5343,44.2026 C109.2083,45.1456 107.5943,45.6176 105.6913,45.6176 C104.0383,45.6176 102.5953,45.2506 101.3643,44.5176" id="Fill-17" fill="#000000" mask="url(#mask-2)"></path>
            <polygon id="Fill-18" fill="#000000" mask="url(#mask-2)" points="117.7861 28.4229 128.7811 28.4229 128.7811 31.3949 120.9681 31.3949 120.9681 34.9969 127.3781 34.9969 127.3781 37.9679 120.9681 37.9679 120.9681 42.2959 128.7811 42.2959 128.7811 45.2669 117.7861 45.2669"></polygon>
            <path d="M136.4424,44.9512 C135.4364,44.5062 134.6134,43.8712 133.9744,43.0442 C133.3354,42.2182 132.9294,41.2432 132.7574,40.1202 L136.0804,39.6292 C136.3134,40.5802 136.7894,41.3212 137.5064,41.8512 C138.2234,42.3822 139.0664,42.6462 140.0334,42.6462 C140.8754,42.6462 141.6204,42.4562 142.2674,42.0732 C142.9144,41.6912 143.2384,41.1652 143.2384,40.4942 C143.2384,40.1202 143.1174,39.7922 142.8764,39.5122 C142.6334,39.2312 142.2094,38.9972 141.6004,38.8092 L137.2254,37.5232 C136.1804,37.2272 135.2844,36.7662 134.5364,36.1422 C133.7874,35.5192 133.4134,34.5132 133.4134,33.1252 C133.4134,32.0342 133.6894,31.1092 134.2434,30.3532 C134.7964,29.5972 135.5484,29.0272 136.5014,28.6452 C137.4524,28.2642 138.5204,28.0802 139.7064,28.0962 C141.4524,28.1272 142.9114,28.5632 144.0804,29.4052 C145.2504,30.2482 146.0374,31.4572 146.4434,33.0312 L143.0044,33.6162 C142.8174,32.8052 142.3994,32.1782 141.7534,31.7332 C141.1054,31.2892 140.3604,31.0662 139.5184,31.0662 C138.7694,31.0662 138.1234,31.2422 137.5774,31.5932 C137.0314,31.9442 136.7574,32.4002 136.7574,32.9622 C136.7574,33.4612 136.9614,33.8432 137.3664,34.1072 C137.7714,34.3732 138.3174,34.5922 139.0044,34.7632 L141.9274,35.5582 C142.7704,35.7922 143.5104,36.0572 144.1504,36.3532 C144.7904,36.6502 145.3554,37.1142 145.8464,37.7452 C146.3384,38.3772 146.5834,39.2162 146.5834,40.2612 C146.5834,41.4152 146.2674,42.3972 145.6354,43.2082 C145.0054,44.0192 144.1734,44.6232 143.1444,45.0202 C142.1154,45.4192 141.0074,45.6172 139.8224,45.6172 C138.5754,45.6172 137.4484,45.3952 136.4424,44.9512" id="Fill-19" fill="#000000" mask="url(#mask-2)"></path>
            <path d="M5.2402,66.8584 L9.7782,66.8584 L7.4862,59.4664 L5.2402,66.8584 Z M11.7662,73.3384 L10.6902,69.8304 L4.3512,69.8304 L3.2752,73.3384 L0.0002,73.3384 L5.1462,56.4954 L9.8952,56.4954 L15.0422,73.3384 L11.7662,73.3384 Z" id="Fill-20" fill="#000000" mask="url(#mask-2)"></path>
            <path d="M27.0664,64.543 C27.6434,64.387 28.0564,64.075 28.3064,63.607 C28.5554,63.14 28.6804,62.625 28.6804,62.064 C28.6804,61.502 28.5554,60.987 28.3064,60.52 C28.0564,60.051 27.6434,59.739 27.0664,59.583 C26.7864,59.506 26.4264,59.467 25.9904,59.467 L22.2014,59.467 L22.2014,64.66 L25.9904,64.66 C26.4424,64.66 26.8004,64.621 27.0664,64.543 L27.0664,64.543 Z M26.1304,56.495 C26.6764,56.495 27.1444,56.526 27.5344,56.589 C28.9854,56.808 30.0724,57.404 30.7974,58.379 C31.5234,59.354 31.8854,60.582 31.8854,62.064 C31.8854,63.545 31.5234,64.773 30.7974,65.748 C30.0724,66.723 28.9854,67.319 27.5344,67.537 C27.1444,67.6 26.6764,67.631 26.1304,67.631 L22.2014,67.631 L22.2014,73.339 L19.0194,73.339 L19.0194,56.495 L26.1304,56.495 Z" id="Fill-21" fill="#000000" mask="url(#mask-2)"></path>
            <path d="M38.9971,66.8584 L43.5361,66.8584 L41.2431,59.4664 L38.9971,66.8584 Z M45.5241,73.3384 L44.4481,69.8304 L38.1081,69.8304 L37.0321,73.3384 L33.7571,73.3384 L38.9031,56.4954 L43.6521,56.4954 L48.8001,73.3384 L45.5241,73.3384 Z" id="Fill-22" fill="#000000" mask="url(#mask-2)"></path>
            <path d="M55.958,64.6602 L59.747,64.6602 C60.199,64.6602 60.558,64.6212 60.823,64.5432 C61.4,64.3872 61.813,64.0752 62.063,63.6072 C62.312,63.1392 62.437,62.6252 62.437,62.0632 C62.437,61.5022 62.312,60.9872 62.063,60.5192 C61.813,60.0512 61.4,59.7392 60.823,59.5832 C60.543,59.5062 60.184,59.4672 59.747,59.4672 L55.958,59.4672 L55.958,64.6602 Z M62.273,73.3392 L59.514,67.6312 L55.958,67.6312 L55.958,73.3392 L52.776,73.3392 L52.776,56.4952 L59.888,56.4952 C60.434,56.4952 60.901,56.5262 61.291,56.5892 C62.742,56.8072 63.829,57.4042 64.555,58.3792 C65.28,59.3532 65.643,60.5822 65.643,62.0632 C65.643,63.2482 65.408,64.2732 64.94,65.1392 C64.473,66.0052 63.771,66.6562 62.835,67.0932 L65.877,73.3392 L62.273,73.3392 Z" id="Fill-23" fill="#000000" mask="url(#mask-2)"></path>
            <polygon id="Fill-24" fill="#000000" mask="url(#mask-2)" points="74.2285 59.4668 68.9175 59.4668 68.9175 56.4948 82.7195 56.4948 82.7195 59.4668 77.4105 59.4668 77.4105 73.3388 74.2285 73.3388"></polygon>
        </g>
    </g>
</svg>