<?xml version="1.0" encoding="UTF-8"?>
<svg width="173px" height="236px" viewBox="0 0 173 236" version="1.1" xmlns="http://www.w3.org/2000/svg" xmlns:xlink="http://www.w3.org/1999/xlink">
    <!-- Generator: Sketch 64 (93537) - https://sketch.com -->
    <title>Group 45</title>
    <desc>Created with Sketch.</desc>
    <g id="Page-1" stroke="none" stroke-width="1" fill="none" fill-rule="evenodd">
        <g id="Group-45" transform="translate(0.522925, 0.130517)">
            <path d="M155.752375,215.422083 L61.4083752,235.046083 C50.0773752,237.403083 38.9813752,230.128083 36.6243752,218.797083 L0.443375214,44.8520828 C-1.91362479,33.5210828 5.36137521,22.4240828 16.6923752,20.0680828 L111.036375,0.443082782 C122.367375,-1.91291722 133.463375,5.36108278 135.820375,16.6930828 L172.001375,190.638083 C174.358375,201.969083 167.083375,213.066083 155.752375,215.422083" id="Fill-34" fill="#E3FF00"></path>
            <polygon id="Fill-36" fill="#F15A24" points="25.7611752 56.5040828 30.3561752 55.5230828 32.7521752 66.7400828 39.6151752 53.5450828 45.2231752 52.3480828 37.6151752 66.5150828 51.0611752 76.5390828 45.2501752 77.7800828 33.1851752 68.7680828 35.5521752 79.8510828 30.9561752 80.8330828"></polygon>
            <polygon id="Fill-38" fill="#F15A24" points="52.2850752 50.8390828 68.1660752 47.4470828 69.0830752 51.7380828 57.7970752 54.1500828 58.9090752 59.3540828 68.1670752 57.3760828 69.0830752 61.6660828 59.8250752 63.6440828 61.1600752 69.8950828 72.4450752 67.4850828 73.3620752 71.7760828 57.4810752 75.1680828"></polygon>
            <polygon id="Fill-40" fill="#F15A24" points="75.5995752 45.8595828 91.4805752 42.4675828 92.3975752 46.7585828 81.1115752 49.1705828 82.2235752 54.3745828 91.4815752 52.3975828 92.3975752 56.6875828 83.1395752 58.6645828 84.4745752 64.9155828 95.7595752 62.5055828 96.6765752 66.7965828 80.7955752 70.1885828"></polygon>
            <path d="M113.696275,49.8781828 C114.481275,49.4751828 114.982275,48.8971828 115.198275,48.1451828 C115.414275,47.3921828 115.436275,46.6091828 115.262275,45.7991828 C115.089275,44.9881828 114.750275,44.2821828 114.246275,43.6851828 C113.741275,43.0841828 113.048275,42.7621828 112.167275,42.7151828 C111.737275,42.6901828 111.206275,42.7421828 110.576275,42.8771828 L105.101275,44.0461828 L106.704275,51.5481828 L112.177275,50.3791828 C112.831275,50.2391828 113.337275,50.0721828 113.696275,49.8781828 L113.696275,49.8781828 Z M109.862275,38.5421828 C110.650275,38.3741828 111.336275,38.2751828 111.918275,38.2451828 C114.081275,38.1131828 115.835275,38.6391828 117.184275,39.8231828 C118.532275,41.0081828 119.434275,42.6701828 119.891275,44.8101828 C120.348275,46.9501828 120.204275,48.8361828 119.457275,50.4681828 C118.710275,52.0991828 117.323275,53.2961828 115.295275,54.0601828 C114.751275,54.2691828 114.085275,54.4591828 113.297275,54.6271828 L107.620275,55.8391828 L109.381275,64.0831828 L104.786275,65.0661828 L99.5902752,40.7361828 L109.862275,38.5421828 Z" id="Fill-42" fill="#F15A24"></path>
            <path d="M57.0140752,193.087083 L63.5700752,191.687083 L57.9780752,181.716083 L57.0140752,193.087083 Z M68.4410752,200.433083 L65.8040752,195.696083 L56.6470752,197.651083 L56.1750752,203.052083 L51.4450752,204.062083 L53.6820752,178.146083 L60.5420752,176.681083 L73.1710752,199.422083 L68.4410752,200.433083 Z" id="Fill-44" fill="#F15A24"></path>
            <polygon id="Fill-46" fill="#F15A24" points="69.3270752 174.804883 74.1590752 173.772883 82.2920752 189.524883 83.2550752 171.865883 88.0800752 170.799883 96.2140752 186.551883 97.2370752 168.843883 102.069075 167.811883 100.136075 193.663883 95.6080752 194.630883 87.3700752 179.219883 86.1800752 196.643883 81.6530752 197.611883"></polygon>
            <path d="M114.186475,180.877183 L120.741475,179.477183 L115.149475,169.505183 L114.186475,180.877183 Z M125.612475,188.222183 L122.975475,183.486183 L113.818475,185.442183 L113.346475,190.841183 L108.616475,191.852183 L110.854475,165.936183 L117.713475,164.471183 L130.343475,187.212183 L125.612475,188.222183 Z" id="Fill-48" fill="#F15A24"></path>
            <polygon id="Fill-50" fill="#F15A24" points="137.893075 175.248283 126.499075 162.594283 131.872075 161.447283 139.098075 169.479283 142.414075 159.195283 147.787075 158.048283 142.556075 174.251283 144.669075 184.151283 140.007075 185.148283"></polygon>
            <path d="M75.3016752,158.308783 C75.3306752,158.259783 75.4016752,158.063783 75.3476752,157.809783 L71.8606752,158.535783 C71.1096752,154.926783 76.8406752,152.640783 92.1936752,147.490783 C98.2266752,145.466783 107.009675,142.520783 109.575675,140.672783 C106.485675,139.999783 97.2566752,140.800783 90.9166752,141.350783 C74.7826752,142.749783 68.6156752,142.938783 67.8656752,139.329783 C67.1146752,135.722783 72.8456752,133.436783 88.2006752,128.287783 C94.2316752,126.265783 103.011675,123.321783 105.579675,121.473783 C102.487675,120.802783 93.2616752,121.603783 86.9236752,122.153783 C70.7906752,123.553783 64.6226752,123.742783 63.8726752,120.133783 C63.1226752,116.526783 68.8536752,114.241783 84.2086752,109.091783 C90.2386752,107.069783 99.0156752,104.125783 101.585675,102.278783 C98.4916752,101.609783 89.2686752,102.410783 82.9326752,102.960783 C66.7986752,104.362783 60.6316752,104.550783 59.8816752,100.944783 C59.1306752,97.3377828 64.8626752,95.0517828 80.2166752,89.9047828 C86.9836752,87.6347828 97.2106752,84.2057828 98.2426752,82.4667828 C98.2146752,82.5157828 98.1436752,82.7117828 98.1966752,82.9667828 L101.684675,82.2417828 C102.434675,85.8477828 96.7036752,88.1337828 81.3486752,93.2817828 C75.3196752,95.3037828 66.5426752,98.2457828 63.9706752,100.093783 C67.0646752,100.762783 76.2876752,99.9617828 82.6236752,99.4127828 C98.7576752,98.0107828 104.925675,97.8217828 105.675675,101.427783 C106.425675,105.035783 100.694675,107.321783 85.3406752,112.469783 C79.3086752,114.492783 70.5296752,117.436783 67.9606752,119.284783 C71.0526752,119.954783 80.2776752,119.154783 86.6156752,118.604783 C102.749675,117.203783 108.917675,117.015783 109.667675,120.622783 C110.418675,124.231783 104.687675,126.516783 89.3326752,131.664783 C83.3016752,133.688783 74.5206752,136.632783 71.9526752,138.480783 C75.0446752,139.151783 84.2706752,138.351783 90.6086752,137.801783 C106.742675,136.402783 112.910675,136.213783 113.661675,139.822783 C114.411675,143.431783 108.680675,145.717783 93.3266752,150.868783 C86.5596752,153.137783 76.3336752,156.568783 75.3016752,158.308783" id="Fill-52" fill="#00EDFF"></path>
        </g>
    </g>
</svg>