<?xml version="1.0" encoding="UTF-8"?>
<svg width="260px" height="260px" viewBox="0 0 260 260" version="1.1" xmlns="http://www.w3.org/2000/svg" xmlns:xlink="http://www.w3.org/1999/xlink">
    <!-- Generator: Sketch 64 (93537) - https://sketch.com -->
    <title>Group 41</title>
    <desc>Created with Sketch.</desc>
    <defs>
        <polygon id="path-1" points="0.744684885 0.543557258 25.456 0.543557258 25.456 25.5503125 0.744684885 25.5503125"></polygon>
        <polygon id="path-3" points="0.894175582 0.929 29.7660324 0.929 29.7660324 26 0.894175582 26"></polygon>
    </defs>
    <g id="Page-1" stroke="none" stroke-width="1" fill="none" fill-rule="evenodd">
        <g id="Group-41">
            <path d="M32.8911,178.5445 C32.3011,177.4755 31.7711,176.5875 31.2991,175.8815 C30.8281,175.1755 30.3631,174.6355 29.9051,174.2625 C29.4471,173.8895 28.9621,173.6725 28.4491,173.6145 C27.9381,173.5575 27.3451,173.6345 26.6711,173.8465 C25.9981,174.0585 25.2141,174.3985 24.3171,174.8655 C23.4221,175.3325 22.3581,175.9055 21.1281,176.5835 C19.8981,177.2625 18.8461,177.8575 17.9731,178.3655 C17.1011,178.8745 16.3951,179.3575 15.8561,179.8135 C15.3171,180.2705 14.9361,180.7305 14.7121,181.1935 C14.4871,181.6585 14.4111,182.1835 14.4831,182.7705 C14.5551,183.3565 14.7621,184.0355 15.1061,184.8075 C15.4501,185.5785 15.9181,186.5025 16.5131,187.5805 L23.1951,199.6915 L39.5741,190.6555 L32.8911,178.5445 Z M43.0661,191.8915 L22.3781,203.3065 L14.3581,188.7705 C13.5411,187.2875 12.9441,185.9885 12.5681,184.8725 C12.1931,183.7565 12.0111,182.7645 12.0241,181.8955 C12.0361,181.0255 12.2261,180.2565 12.5951,179.5865 C12.9631,178.9165 13.4861,178.2875 14.1631,177.6995 C14.8401,177.1125 15.6531,176.5375 16.6021,175.9755 C17.5511,175.4125 18.6141,174.8075 19.7901,174.1585 C20.9661,173.5105 22.0451,172.9335 23.0271,172.4305 C24.0081,171.9285 24.9281,171.5465 25.7871,171.2865 C26.6451,171.0265 27.4551,170.9215 28.2191,170.9665 C28.9811,171.0125 29.7341,171.2615 30.4761,171.7145 C31.2181,172.1675 31.9611,172.8505 32.7041,173.7635 C33.4481,174.6765 34.2281,175.8735 35.0461,177.3565 L43.0661,191.8915 Z" id="Fill-1" fill="#0000FF"></path>
            <path d="M22.9121,145.897 C22.6821,144.698 22.4491,143.692 22.2151,142.879 C21.9811,142.069 21.6961,141.416 21.3611,140.921 C21.0261,140.428 20.6141,140.077 20.1241,139.867 C19.6351,139.657 19.0211,139.555 18.2801,139.559825 C17.5401,139.566 16.6461,139.657 15.5991,139.834 C14.5521,140.009 13.3041,140.237 11.8531,140.516 C10.4031,140.794 9.1591,141.046 8.1211,141.27 C7.0841,141.494 6.2201,141.741 5.5301,142.01 C4.8401,142.279 4.3071,142.602 3.9311,142.978 C3.5541,143.354 3.3011,143.832 3.1721,144.41 C3.0421,144.987 3.0201,145.697 3.1031,146.538 C3.1861,147.379 3.3431,148.403 3.5761,149.612 L5.1491,157.799 C5.3811,159.008 5.6141,160.018 5.8491,160.831 C6.0831,161.642 6.3681,162.294 6.7031,162.789 C7.0381,163.282 7.4501,163.634 7.9401,163.843 C8.4291,164.053 9.0431,164.155 9.7841,164.150175 C10.5241,164.145 11.4181,164.051 12.4641,163.87 C13.5091,163.689 14.7581,163.459 16.2081,163.18 C17.6581,162.901 18.9021,162.65 19.9401,162.426 C20.9781,162.202 21.8411,161.956 22.5311,161.686 C23.2211,161.417 23.7551,161.096 24.1321,160.724 C24.5101,160.354 24.7631,159.876 24.8911,159.293 C25.0201,158.711 25.0411,157.999 24.9591,157.159 C24.8751,156.318 24.7181,155.293 24.4861,154.084 L22.9121,145.897 Z M1.1591,150.077 C0.8401,148.415 0.6791,146.994 0.677079866,145.814 C0.6751,144.635 0.8221,143.634 1.1191,142.814 C1.4151,141.993 1.8571,141.321 2.4461,140.795 C3.0341,140.272 3.7591,139.831 4.6201,139.474 C5.4811,139.118 6.4721,138.815 7.5941,138.565 C8.7151,138.316 9.9611,138.059 11.3311,137.796 C12.7001,137.533 13.9521,137.309 15.0871,137.126 C16.2211,136.943 17.2541,136.857 18.1861,136.869 C19.1181,136.88 19.9541,137.021 20.6951,137.29 C21.4351,137.558 22.0961,138.019 22.6751,138.671 C23.2551,139.324 23.7621,140.199 24.1981,141.295 C24.6331,142.391 25.0101,143.77 25.3291,145.432 L26.9021,153.62 C27.2211,155.282 27.3821,156.703 27.3841447,157.881 C27.3871,159.061 27.2391,160.061 26.9431,160.882 C26.6461,161.703 26.2041,162.377 25.6171,162.907 C25.0291,163.436 24.3051,163.878 23.4441,164.235 C22.5831,164.591 21.5911,164.892 20.4691,165.137 C19.3461,165.382 18.1001,165.636 16.7301,165.899 C15.3611,166.163 14.1101,166.389 12.9751,166.577 C11.8421,166.765 10.8101,166.854 9.8781,166.841 C8.9461,166.83 8.1101,166.687 7.3681,166.414 C6.6271,166.14 5.9651,165.676 5.3861,165.024 C4.8061,164.372 4.2991,163.498 3.8631,162.401 C3.4291,161.305 3.0511,159.926 2.7311,158.264 L1.1591,150.077 Z" id="Fill-3" fill="#0000FF"></path>
            <polygon id="Fill-5" fill="#0000FF" points="0 116.5816 0.759 112.9676 14.164 105.4086 4.938 93.0936 5.697 89.4786 16.622 104.5106 26.256 106.5366 25.686 109.2466 16.052 107.2216"></polygon>
            <path d="M38.1494,72.2291 C38.7584,71.1711 39.2384,70.2571 39.5914,69.4901 C39.9434,68.7221 40.1544,68.0421 40.2224,67.4491 C40.2914,66.8561 40.2084,66.3201 39.9754,65.8421 C39.7414,65.3641 39.3424,64.8851 38.7784,64.4061 C38.2134,63.9261 37.4774,63.4121 36.5694,62.8621 C35.6604,62.3131 34.5664,61.6691 33.2854,60.9331 C32.0054,60.1981 30.8994,59.5761 29.9664,59.0671 C29.0344,58.5601 28.2204,58.1831 27.5214,57.9371 C26.8224,57.6911 26.2084,57.5871 25.6774,57.6261 C25.1464,57.6651 24.6434,57.8611 24.1684,58.2141 C23.6924,58.5681 23.2124,59.0901 22.7264,59.7821 C22.2404,60.4731 21.6904,61.3521 21.0774,62.4191 L16.9244,69.6481 C16.3104,70.7151 15.8274,71.6331 15.4744,72.4001 C15.1224,73.1681 14.9114,73.8481 14.8434,74.4411 C14.7744,75.0341 14.8574,75.5701 15.0904,76.0471 C15.3244,76.5261 15.7234,77.0041 16.2884,77.4841 C16.8524,77.9631 17.5894,78.4761 18.5004,79.0221 C19.4114,79.5671 20.5064,80.2081 21.7864,80.9431 C23.0674,81.6791 24.1734,82.3011 25.1064,82.8091 C26.0374,83.3171 26.8534,83.6951 27.5524,83.9401 C28.2504,84.1861 28.8634,84.2921 29.3924,84.2581 C29.9204,84.2231 30.4234,84.0261 30.9014,83.6681 C31.3794,83.3121 31.8604,82.7881 32.3474,82.0961 C32.8324,81.4051 33.3824,80.5251 33.9954,79.4581 L38.1494,72.2291 Z M18.9434,61.1921 C19.7864,59.7251 20.5924,58.5431 21.3614,57.6501 C22.1294,56.7541 22.8944,56.0931 23.6544,55.6651 C24.4154,55.2371 25.1904,55.0161 25.9774,55.0031 C26.7654,54.9911 27.6024,55.1311 28.4864,55.4221 C29.3714,55.7151 30.3204,56.1331 31.3334,56.6751 C32.3454,57.2191 33.4564,57.8371 34.6654,58.5321 C35.8754,59.2281 36.9694,59.8751 37.9484,60.4771 C38.9274,61.0791 39.7664,61.6881 40.4634,62.3051 C41.1624,62.9231 41.7034,63.5761 42.0894,64.2621 C42.4744,64.9501 42.6744,65.7301 42.6874,66.6021 C42.7004,67.4751 42.5144,68.4691 42.1274,69.5831 C41.7404,70.6981 41.1264,71.9891 40.2834,73.4571 L36.1294,80.6851 C35.2854,82.1521 34.4794,83.3331 33.7114,84.2271 C32.9434,85.1231 32.1784,85.7841 31.4184,86.2121 C30.6574,86.6391 29.8824,86.8631 29.0924,86.8791 C28.3014,86.8971 27.4634,86.7591 26.5784,86.4671 C25.6944,86.1751 24.7464,85.7541 23.7364,85.2081 C22.7264,84.6611 21.6164,84.0401 20.4074,83.3441 C19.1984,82.6491 18.1024,82.0041 17.1204,81.4061 C16.1394,80.8091 15.2994,80.2021 14.6024,79.5831 C13.9044,78.9671 13.3634,78.3121 12.9804,77.6221 C12.5974,76.9291 12.3984,76.1471 12.3854,75.2741 C12.3724,74.4021 12.5594,73.4091 12.9454,72.2931 C13.3314,71.1791 13.9464,69.8891 14.7894,68.4201 L18.9434,61.1921 Z" id="Fill-7" fill="#0000FF"></path>
            <path d="M52.0808,25.0113 L60.0478,33.7353 C60.9888,34.7643 61.8338,35.7153 62.5838,36.5863 C63.3328,37.4563 63.9458,38.2913 64.4238,39.0923 C64.9008,39.8933 65.2178,40.6803 65.3768,41.4513 C65.5348,42.2243 65.4868,43.0283 65.2348,43.8633 C64.9808,44.6983 64.5018,45.5873 63.7948,46.5323 C63.0878,47.4753 62.1098,48.5193 60.8598,49.6603 L56.0668,54.0363 C54.8178,55.1783 53.6898,56.0583 52.6858,56.6773 C51.6818,57.2963 50.7518,57.6943 49.8978,57.8693 C49.0428,58.0463 48.2368,58.0223 47.4778,57.7983 C46.7198,57.5743 45.9638,57.1883 45.2098,56.6413 C44.4558,56.0933 43.6808,55.4063 42.8848,54.5763 C42.0898,53.7483 41.2208,52.8193 40.2808,51.7883 L32.3138,43.0663 L34.3588,41.1983 L42.3258,49.9213 C43.3218,51.0123 44.1858,51.9413 44.9198,52.7083 C45.6538,53.4763 46.3148,54.0833 46.9048,54.5303 C47.4958,54.9773 48.0478,55.2643 48.5618,55.3913 C49.0768,55.5203 49.6148,55.4863 50.1788,55.2903 C50.7428,55.0953 51.3608,54.7413 52.0338,54.2313 C52.7068,53.7213 53.4988,53.0503 54.4068,52.2193 L59.1998,47.8433 C60.1018,47.0203 60.8398,46.2933 61.4128,45.6663 C61.9848,45.0383 62.3918,44.4543 62.6338,43.9143 C62.8768,43.3733 62.9588,42.8403 62.8828,42.3133 C62.8038,41.7863 62.5718,41.2073 62.1838,40.5763 C61.7958,39.9443 61.2508,39.2303 60.5498,38.4333 C59.8468,37.6363 58.9998,36.6943 58.0038,35.6033 L50.0258,26.8893 L52.0808,25.0113 Z" id="Fill-9" fill="#0000FF"></path>
            <path d="M70.5796,27.3062 L82.2526,21.7922 C83.3646,21.2662 84.2926,20.8032 85.0336,20.4022 C85.7746,20.0002 86.3666,19.6272 86.8086,19.2822 C87.2526,18.9372 87.5606,18.5982 87.7336,18.2672 C87.9066,17.9362 87.9776,17.5742 87.9466,17.1802 C87.9146,16.7872 87.7986,16.3502 87.5996,15.8712 C87.4006,15.3942 87.1466,14.8292 86.8406,14.1802 C86.5566,13.5782 86.2996,13.0642 86.0726,12.6392 C85.8446,12.2132 85.5976,11.8812 85.3306,11.6442 C85.0646,11.4072 84.7556,11.2642 84.4026,11.2152 C84.0506,11.1662 83.6026,11.2102 83.0616,11.3472 C82.5196,11.4842 81.8616,11.7172 81.0886,12.0492 C80.3136,12.3812 79.3706,12.8092 78.2576,13.3342 L66.5846,18.8492 L70.5796,27.3062 Z M96.0756,28.3282 L93.5716,29.5112 L91.6796,25.5042 C91.3726,24.8562 91.0986,24.3022 90.8546,23.8442 C90.6116,23.3872 90.3496,23.0212 90.0656,22.7462 C89.7816,22.4722 89.4566,22.2962 89.0906,22.2192 C88.7246,22.1432 88.2666,22.1652 87.7196,22.2892 C87.1716,22.4112 86.5076,22.6322 85.7256,22.9502 C84.9456,23.2682 83.9986,23.6892 82.8866,24.2142 L71.6306,29.5312 L75.6256,37.9892 L73.1216,39.1702 L63.0296,17.8072 L77.2066,11.1102 C78.7376,10.3872 80.0536,9.8362 81.1556,9.4562 C82.2576,9.0782 83.2046,8.8432 83.9976,8.7522 C84.7886,8.6612 85.4516,8.7022 85.9826,8.8692 C86.5146,9.0372 86.9756,9.3152 87.3636,9.6982 C87.7516,10.0802 88.0976,10.5542 88.3986,11.1142 C88.7006,11.6742 89.0166,12.3022 89.3446,12.9972 C89.7656,13.8882 90.0756,14.6972 90.2756,15.4242 C90.4756,16.1532 90.5486,16.8192 90.4936,17.4232 C90.4386,18.0282 90.2476,18.5792 89.9206,19.0792 C89.5936,19.5802 89.1076,20.0502 88.4656,20.4912 C89.2126,20.2742 89.8616,20.2052 90.4106,20.2862 C90.9596,20.3682 91.4516,20.5772 91.8886,20.9152 C92.3236,21.2532 92.7246,21.7112 93.0866,22.2882 C93.4496,22.8662 93.8156,23.5432 94.1836,24.3222 L96.0756,28.3282 Z" id="Fill-11" fill="#0000FF"></path>
            <path d="M113.1895,12.7486 L125.1515,11.9846 C126.3795,11.9066 127.4115,11.8166 128.2485,11.7176 C129.0855,11.6176 129.7725,11.4886 130.3125,11.3306 C130.8525,11.1746 131.2625,10.9726 131.5465,10.7276 C131.8295,10.4846 132.0285,10.1736 132.1445,9.7966 C132.2595,9.4186 132.3135,8.9716 132.3045,8.4526 C132.2945,7.9346 132.2675,7.3166 132.2215,6.6006 C132.1795,5.9356 132.1305,5.3626 132.0755,4.8836 C132.0215,4.4036 131.9135,4.0046 131.7535,3.6856 C131.5935,3.3676 131.3585,3.1216 131.0485,2.9446 C130.7385,2.7696 130.3075,2.6456 129.7535,2.5736 C129.1985,2.5006 128.5015,2.4766 127.6595,2.4986 C126.8175,2.5216 125.7835,2.5726 124.5555,2.6506 L112.5925,3.4156 L113.1895,12.7486 Z M109.6725,1.1356 L126.2835,0.0746 C127.6555,-0.0134 128.8185,-0.0224 129.7725,0.0446 C130.7255,0.1116 131.5175,0.2536 132.1475,0.4706 C132.7785,0.6866 133.2725,0.9746 133.6265,1.3316 C133.9825,1.6896 134.2525,2.1186 134.4395,2.6206 C134.6255,3.1236 134.7505,3.6906 134.8145,4.3236 C134.8795,4.9556 134.9365,5.6566 134.9855,6.4236 C135.0365,7.2226 135.0665,7.9596 135.0755,8.6376 C135.0855,9.3146 135.0155,9.9346 134.8625,10.4936 C134.7105,11.0536 134.4435,11.5526 134.0625,11.9936 C133.6805,12.4346 133.1225,12.8166 132.3865,13.1416 C131.6505,13.4656 130.7095,13.7366 129.5625,13.9536 C128.4155,14.1706 126.9965,14.3326 125.3085,14.4416 L113.3465,15.2056 L113.9415,24.5386 L111.1785,24.7156 L109.6725,1.1356 Z" id="Fill-13" fill="#0000FF"></path>
            <path d="M162.7222,20.5865 L158.7272,5.4755 L148.4022,17.2275 L162.7222,20.5865 Z M163.4352,23.2815 L146.5612,19.3235 L142.5092,23.9355 L139.3882,23.2025 L157.0912,3.0865 L160.9612,3.9935 L167.8312,29.8745 L165.0022,29.2115 L163.4352,23.2815 Z" id="Fill-15" fill="#0000FF"></path>
            <path d="M181.2104,23.4429 L192.3134,30.0309 C193.3714,30.6589 194.2734,31.1669 195.0214,31.5569 C195.7684,31.9459 196.4094,32.2279 196.9424,32.4019 C197.4774,32.5759 197.9304,32.6419 198.3024,32.5999 C198.6734,32.5579 199.0134,32.4139 199.3214,32.1679 C199.6294,31.9219 199.9264,31.5819 200.2114,31.1489 C200.4954,30.7139 200.8214,30.1899 201.1884,29.5719 C201.5284,28.9999 201.8104,28.4989 202.0364,28.0729 C202.2614,27.6449 202.3974,27.2559 202.4454,26.9019 C202.4924,26.5479 202.4384,26.2119 202.2814,25.8929 C202.1244,25.5729 201.8374,25.2269 201.4214,24.8539 C201.0044,24.4819 200.4424,24.0689 199.7344,23.6119 C199.0264,23.1569 198.1434,22.6149 197.0854,21.9859 L185.9824,15.3989 L181.2104,23.4429 Z M194.6324,45.1429 L192.2514,43.7309 L194.5124,39.9209 C194.8774,39.3029 195.1824,38.7649 195.4264,38.3079 C195.6694,37.8499 195.8254,37.4259 195.8944,37.0389 C195.9634,36.6499 195.9264,36.2819 195.7854,35.9359 C195.6444,35.5899 195.3694,35.2239 194.9604,34.8389 C194.5524,34.4539 193.9974,34.0259 193.2984,33.5569 C192.5974,33.0889 191.7184,32.5389 190.6594,31.9119 L179.9544,25.5599 L175.1814,33.6029 L172.7994,32.1899 L184.8564,11.8699 L198.3404,19.8699 C199.7964,20.7329 200.9894,21.5159 201.9204,22.2169 C202.8514,22.9189 203.5764,23.5729 204.0954,24.1779 C204.6134,24.7839 204.9514,25.3539 205.1094,25.8889 C205.2674,26.4239 205.2954,26.9599 205.1954,27.4959 C205.0954,28.0329 204.8974,28.5839 204.6014,29.1469 C204.3064,29.7119 203.9624,30.3239 203.5694,30.9849 C203.0674,31.8329 202.5704,32.5429 202.0804,33.1159 C201.5884,33.6889 201.0774,34.1219 200.5454,34.4149 C200.0144,34.7079 199.4494,34.8579 198.8524,34.8669 C198.2534,34.8759 197.5924,34.7369 196.8684,34.4509 C197.4664,34.9489 197.8864,35.4479 198.1264,35.9479 C198.3664,36.4489 198.4684,36.9729 198.4324,37.5239 C198.3964,38.0759 198.2404,38.6629 197.9654,39.2859 C197.6894,39.9109 197.3334,40.5919 196.8944,41.3339 L194.6324,45.1429 Z" id="Fill-17" fill="#0000FF"></path>
            <polygon id="Fill-19" fill="#0000FF" points="233.2095 51.1187 231.3975 52.7837 223.9025 44.6267 208.3155 58.9467 206.4415 56.9077 222.0295 42.5877 214.5345 34.4307 216.3465 32.7647"></polygon>
            <path d="M233.5757,92.5543 C233.1197,92.4153 232.7047,92.1573 232.3307,91.7783 C231.9557,91.3993 231.5877,90.8993 231.2247,90.2753 C230.8627,89.6513 230.4857,88.9023 230.0947,88.0293 C229.7027,87.1563 229.2647,86.1533 228.7797,85.0223 C228.1737,83.6083 227.6517,82.3723 227.2147,81.3143 C226.7777,80.2563 226.4397,79.3313 226.2007,78.5393 C225.9617,77.7473 225.8277,77.0713 225.7977,76.5083 C225.7677,75.9453 225.8607,75.4503 226.0737,75.0243 C226.2867,74.5983 226.6287,74.2183 227.0997,73.8853 C227.5707,73.5523 228.1837,73.2253 228.9367,72.9013 C229.7477,72.5533 230.4837,72.3583 231.1457,72.3153 C231.8077,72.2713 232.4007,72.3573 232.9227,72.5733 C233.4447,72.7883 233.9027,73.1203 234.2957,73.5703 C234.6887,74.0183 235.0217,74.5603 235.2947,75.1963 L233.8087,92.5933 C233.7327,92.5763 233.6487,92.5763 233.5757,92.5543 M250.2817,82.3923 C250.1007,81.5803 249.8047,80.6363 249.3947,79.5623 C248.9837,78.4893 248.4757,77.2433 247.8697,75.8303 C247.5847,75.1673 247.2917,74.4773 246.9897,73.7593 C246.6867,73.0413 246.3547,72.3523 245.9937,71.6913 C245.6317,71.0303 245.2267,70.4263 244.7817,69.8803 C244.3357,69.3343 243.8267,68.9033 243.2567,68.5873 C242.6867,68.2733 242.0417,68.1053 241.3237,68.0823 C240.6067,68.0613 239.7957,68.2443 238.8897,68.6323 C238.4377,68.8263 238.0587,69.0493 237.7537,69.3003 C237.4487,69.5513 237.1947,69.8303 236.9917,70.1373 C236.7887,70.4443 236.6247,70.7793 236.5007,71.1393 C236.3777,71.5013 236.2707,71.8903 236.1807,72.3053 C236.1207,72.1643 235.9977,71.9623 235.8127,71.7013 C235.6287,71.4413 235.3777,71.1743 235.0597,70.9033 C234.7427,70.6303 234.3607,70.3763 233.9127,70.1393 C233.4657,69.9033 232.9407,69.7353 232.3417,69.6363 C231.7407,69.5373 231.0687,69.5363 230.3217,69.6313 C229.5757,69.7263 228.7507,69.9683 227.8467,70.3563 C226.6387,70.8733 225.6647,71.4063 224.9247,71.9543 C224.1827,72.5023 223.6347,73.1043 223.2797,73.7583 C222.9247,74.4123 222.7447,75.1383 222.740612,75.9363 C222.7367,76.7333 222.8697,77.6293 223.1417,78.6273 C223.4127,79.6253 223.8027,80.7453 224.3067,81.9893 C224.8117,83.2323 225.3987,84.6313 226.0657,86.1863 C226.7937,87.8833 227.4647,89.3253 228.0787,90.5103 C228.6937,91.6953 229.3097,92.6583 229.9287,93.3973 C230.5467,94.1363 231.1967,94.6683 231.8777,94.9933 C232.3897,95.2403 232.9537,95.3823 233.5667,95.4243 L233.0677,101.2633 L235.6937,101.1413 L236.2557,95.0973 C236.5327,95.0253 236.8167,94.9423 237.1107,94.8453 C238.2057,94.4853 239.4787,93.9933 240.9297,93.3703 L241.8357,92.9833 L240.7437,90.4383 L237.1257,91.9913 C236.9117,92.0813 236.7227,92.1433 236.5247,92.2163 L238.1777,74.4623 C238.2197,73.9633 238.2907,73.5333 238.3927,73.1703 C238.4937,72.8073 238.6217,72.4943 238.7787,72.2353 C238.9337,71.9743 239.1127,71.7583 239.3137,71.5893 C239.5137,71.4193 239.7367,71.2833 239.9817,71.1773 C240.6607,70.8863 241.2327,70.7773 241.6987,70.8493 C242.1647,70.9213 242.5967,71.1863 242.9937,71.6433 C243.3907,72.1013 243.7887,72.7563 244.1887,73.6113 C244.5887,74.4653 245.0617,75.5283 245.6067,76.8003 C246.0927,77.9313 246.5037,78.9093 246.8397,79.7333 C247.1767,80.5553 247.4287,81.2663 247.5957,81.8653 C247.7627,82.4623 247.8397,82.9683 247.8277,83.3823 C247.8147,83.7943 247.6977,84.1613 247.4787,84.4813 C247.2587,84.8003 246.9287,85.0903 246.4887,85.3533 C246.0487,85.6153 245.4887,85.8913 244.8107,86.1823 L245.9027,88.7283 C246.8827,88.3073 247.6957,87.8933 248.3407,87.4853 C248.9857,87.0773 249.4837,86.6323 249.8337,86.1473 C250.1827,85.6613 250.3907,85.1173 250.4557,84.5143 C250.5197,83.9103 250.4627,83.2033 250.2817,82.3923" id="Fill-21" fill="#0000FF"></path>
            <g id="Group-25" transform="translate(234.000000, 115.566000)">
                <mask id="mask-2" fill="white">
                    <use xlink:href="#path-1"></use>
                </mask>
                <g id="Clip-24"></g>
                <path d="M14.626,15.459 C14.638,16.979 14.58,18.282 14.455,19.369 C14.329,20.457 14.138,21.374 13.88,22.122 C13.624,22.868 13.3,23.465 12.913,23.91 C12.525,24.355 12.083,24.701 11.584,24.944 C11.086,25.188 10.529,25.35 9.912,25.426 C9.294,25.504 8.625,25.544 7.904,25.55 C7.189,25.555 6.518,25.5 5.889,25.385 C5.259,25.269 4.684,25.06 4.16,24.756 C3.637,24.452 3.169,24.036 2.757,23.512 C2.345,22.985 1.992,22.314 1.7,21.5 C1.408,20.685 1.183,19.703 1.027,18.556 C0.87,17.407 0.786,16.063 0.774,14.525 L0.746,10.833 C0.736,9.448 0.783,8.236 0.888,7.197 C0.993,6.158 1.158,5.262 1.383,4.511 C1.608,3.759 1.896,3.136 2.246,2.644 C2.596,2.15 3.008,1.755 3.483,1.458 C3.958,1.161 4.5,0.952 5.108,0.832 C5.717,0.712 6.392,0.65 7.13,0.645 L7.151,3.413 C6.213,3.421 5.481,3.552 4.951,3.806 C4.422,4.06 4.026,4.476 3.765,5.055 C3.504,5.633 3.343,6.393 3.283,7.331 C3.222,8.269 3.198,9.431 3.208,10.814 L3.236,14.507 C3.248,16.122 3.34,17.463 3.513,18.529 C3.687,19.595 3.957,20.444 4.323,21.076 C4.689,21.708 5.165,22.151 5.751,22.407 C6.336,22.662 7.046,22.786 7.883,22.78 C8.719,22.774 9.416,22.68 9.972,22.497 C10.529,22.315 10.969,21.961 11.296,21.435 C11.623,20.907 11.852,20.168 11.984,19.215 C12.117,18.262 12.177,17.016 12.166,15.478 L12.137,11.67 C12.123,9.978 12.179,8.527 12.304,7.32 C12.427,6.111 12.613,5.099 12.857,4.279 C13.103,3.46 13.41,2.804 13.781,2.311 C14.151,1.817 14.577,1.441 15.057,1.183 C15.537,0.925 16.071,0.755 16.66,0.673 C17.25,0.592 17.887,0.549 18.575,0.544 C19.293,0.538 19.959,0.593 20.576,0.708 C21.192,0.824 21.75,1.043 22.25,1.366 C22.75,1.69 23.196,2.134 23.59,2.697 C23.984,3.263 24.316,3.988 24.584,4.876 C24.852,5.763 25.058,6.831 25.201,8.081 C25.343,9.33 25.421,10.801 25.434,12.493 L25.455,15.262 C25.465,16.646 25.42,17.858 25.321,18.897 C25.221,19.937 25.058,20.833 24.834,21.585 C24.608,22.337 24.326,22.962 23.986,23.459 C23.646,23.957 23.239,24.354 22.764,24.651 C22.29,24.948 21.75,25.156 21.146,25.276 C20.542,25.396 19.871,25.459 19.132,25.465 L19.111,22.695 C20.035,22.688 20.756,22.559 21.278,22.304 C21.799,22.05 22.188,21.634 22.445,21.055 C22.702,20.476 22.86,19.714 22.919,18.771 C22.979,17.829 23.004,16.665 22.994,15.281 L22.972,12.511 C22.959,10.665 22.878,9.147 22.73,7.955 C22.583,6.764 22.342,5.823 22.009,5.134 C21.676,4.444 21.231,3.966 20.675,3.701 C20.12,3.436 19.426,3.307 18.596,3.313 C18.083,3.316 17.626,3.354 17.227,3.424 C16.828,3.494 16.478,3.634 16.177,3.843 C15.876,4.052 15.625,4.345 15.422,4.722 C15.219,5.099 15.054,5.595 14.925,6.211 C14.797,6.827 14.708,7.581 14.658,8.47 C14.608,9.36 14.588,10.421 14.597,11.651 L14.626,15.459 Z" id="Fill-23" fill="#0000FF" mask="url(#mask-2)"></path>
            </g>
            <polygon id="Fill-26" fill="#0000FF" points="250.6997 176.7476 248.3307 176.0796 251.3357 165.4186 230.9617 159.6776 231.7127 157.0126 252.0867 162.7526 255.0907 152.0896 257.4597 152.7576"></polygon>
            <path d="M225.4839,190.9869 L241.1129,191.2329 L232.5959,178.1109 L225.4839,190.9869 Z M222.6969,190.9429 L231.0769,175.7699 L227.7349,170.6219 L229.2859,167.8149 L243.8559,190.3049 L241.9339,193.7849 L215.1589,193.3879 L216.5649,190.8449 L222.6969,190.9429 Z" id="Fill-28" fill="#0000FF"></path>
            <polygon id="Fill-30" fill="#0000FF" points="228.5073 214.1294 225.8183 216.6594 210.4993 215.2004 211.0293 230.5804 208.3403 233.1094 207.9693 214.5324 201.2213 207.3624 203.2373 205.4654 209.9863 212.6344"></polygon>
            <polygon id="Fill-32" fill="#0000FF" points="165.833 254.2291 163.243 255.2081 154.881 233.1091 157.472 232.1281 161.304 242.2571 180.299 235.0711 176.467 224.9421 179.057 223.9621 187.418 246.0621 184.829 247.0421 181.17 237.3741 162.175 244.5601"></polygon>
            <g id="Group-36" transform="translate(120.000000, 233.566000)">
                <mask id="mask-4" fill="white">
                    <use xlink:href="#path-3"></use>
                </mask>
                <g id="Clip-35"></g>
                <path d="M10.6826,3.834 C9.4636,3.893 8.4346,3.981 7.5986,4.099 C6.7616,4.217 6.0746,4.407 5.5396,4.669 C5.0036,4.932 4.5976,5.29 4.3206,5.745 C4.0446,6.2 3.8566,6.794 3.7586,7.528 C3.6586,8.263 3.6226,9.159 3.6506,10.222 C3.6786,11.282 3.7276,12.551 3.8006,14.026 C3.8716,15.501 3.9456,16.768 4.0206,17.827 C4.0966,18.886 4.2196,19.775 4.3896,20.497 C4.5596,21.217 4.8046,21.79 5.1236,22.217 C5.4426,22.642 5.8796,22.96 6.4326,23.169 C6.9866,23.378 7.6866,23.501 8.5306,23.536 C9.3746,23.572 10.4116,23.561 11.6406,23.501 L19.9686,23.095 C21.1976,23.035 22.2306,22.946 23.0666,22.828 C23.9036,22.71 24.5906,22.521 25.1266,22.258 C25.6626,21.996 26.0686,21.638 26.3456,21.183 C26.6206,20.728 26.8086,20.133 26.9076,19.399 C27.0076,18.665 27.0396,17.769 27.0076,16.707 C26.9746,15.646 26.9236,14.378 26.8506,12.903 C26.7796,11.428 26.7056,10.161 26.6306,9.103 C26.5546,8.043 26.4316,7.152 26.2616,6.433 C26.0916,5.711 25.8496,5.138 25.5346,4.712 C25.2206,4.286 24.7836,3.968 24.2246,3.759 C23.6666,3.55 22.9646,3.428 22.1206,3.393 C21.2766,3.356 20.2396,3.368 19.0106,3.429 L10.6826,3.834 Z M11.7616,25.959 C10.0696,26.041 8.6406,26.0000371 7.4736,25.837 C6.3056,25.673 5.3356,25.386 4.5636,24.977 C3.7936,24.568 3.1896,24.035 2.7536,23.379 C2.3176,22.723 1.9836,21.943 1.7516,21.041 C1.5196,20.138 1.3596,19.114 1.2696,17.968 C1.1806,16.823 1.1016,15.554 1.0336,14.16 C0.9656,12.767 0.9206,11.496 0.8986,10.348 C0.8766,9.199 0.9366,8.163 1.0796,7.243 C1.2226,6.321 1.4796,5.515 1.8496,4.818 C2.2206,4.122 2.7686,3.534 3.4966,3.052 C4.2246,2.569 5.1606,2.19 6.3076,1.913 C7.4546,1.637 8.8726,1.457 10.5626,1.376 L18.8906,0.97 C20.5816,0.888 22.0106,0.929 23.1786,1.093 C24.3466,1.257 25.3156,1.542 26.0866,1.95 C26.8576,2.36 27.4636,2.893 27.9046,3.549 C28.3456,4.206 28.6816,4.984 28.9136,5.887 C29.1456,6.79 29.3036,7.813 29.3886,8.96 C29.4726,10.105 29.5496,11.375 29.6176,12.769 C29.6846,14.161 29.7326,15.432 29.7596,16.58 C29.7866,17.729 29.7286,18.765 29.5856,19.685 C29.4426,20.605 29.1836,21.413 28.8086,22.11 C28.4326,22.806 27.8826,23.396 27.1546,23.876 C26.4276,24.358 25.4896,24.737 24.3436,25.015 C23.1976,25.291 21.7786,25.471 20.0876,25.553 L11.7616,25.959 Z" id="Fill-34" fill="#0000FF" mask="url(#mask-4)"></path>
            </g>
            <polygon id="Fill-37" fill="#0000FF" points="105.4312 255.5699 111.8872 234.8959 114.5302 235.7199 107.4882 258.2759 103.2352 256.9479 97.0782 233.3639 78.5832 249.2509 74.2232 247.8889 81.2652 225.3349 83.9092 226.1609 77.5502 246.5269 96.4652 230.0809 99.1372 230.9149"></polygon>
            <polygon id="Fill-39" fill="#0000FF" points="75.6392 221.2027 61.7572 240.3227 43.8292 227.3067 45.2752 225.3147 60.9632 236.7037 65.5902 230.3307 50.6492 219.4827 52.0952 217.4917 67.0352 228.3387 71.9522 221.5667 56.2652 210.1777 57.7112 208.1857"></polygon>
        </g>
    </g>
</svg>