<?xml version="1.0" encoding="UTF-8"?>
<svg width="182px" height="138px" viewBox="0 0 182 138" version="1.1" xmlns="http://www.w3.org/2000/svg" xmlns:xlink="http://www.w3.org/1999/xlink">
    <!-- Generator: Sketch 64 (93537) - https://sketch.com -->
    <title>Group 25</title>
    <desc>Created with Sketch.</desc>
    <g id="Page-1" stroke="none" stroke-width="1" fill="none" fill-rule="evenodd">
        <g id="Group-25">
            <path d="M11.1505,111.7046 L0.6665,60.6516 C-2.9185,43.1946 8.3265,26.1386 25.7835,22.5536 L132.3595,0.6666 C149.8165,-2.9184 166.8735,8.3266 170.4585,25.7836 L180.9425,76.8366 C184.5275,94.2936 173.2825,111.3506 155.8255,114.9346 L49.2495,136.8216 C31.7935,140.4066 14.7355,129.1616 11.1505,111.7046" id="Fill-1" fill="#E3FF00"></path>
            <path d="M36.6603,62.4067 C37.3593,62.1997 37.8153,61.7797 38.0303,61.1647 C38.2463,60.5487 38.2923,59.8757 38.1723,59.1447 C38.0493,58.4167 37.7793,57.7507 37.3633,57.1467 C36.9453,56.5417 36.3543,56.1427 35.5893,55.9327 C35.2183,55.8267 34.7503,55.7707 34.1993,55.7547 C32.5983,55.7097 30.9963,55.6107 29.3933,55.4527 C29.7673,57.7487 30.1403,60.0417 30.5153,62.3317 C32.1173,62.4627 33.7193,62.5347 35.3203,62.5537 C35.8933,62.5607 36.3413,62.5107 36.6603,62.4067 M33.7353,51.8637 C34.4283,51.8877 35.0273,51.9377 35.5353,52.0247 C37.4233,52.3277 38.9303,53.0527 40.0603,54.2657 C41.1903,55.4827 41.9163,57.0257 42.2363,58.9357 C42.5563,60.8437 42.3613,62.4667 41.6523,63.7887 C40.9433,65.1087 39.6923,65.9687 37.9003,66.2967 C37.4203,66.3897 36.8323,66.4367 36.1403,66.4367 C34.4793,66.4357 32.8183,66.3777 31.1573,66.2577 C31.5683,68.7697 31.9783,71.2797 32.3893,73.7847 C31.0453,73.7127 29.6993,73.5997 28.3543,73.4447 C27.1423,65.9777 25.9303,58.4767 24.7173,50.9387 C27.7223,51.4617 30.7283,51.7597 33.7353,51.8637" id="Fill-3" fill="#F15A24"></path>
            <path d="M52.172,61.018 C53.774,60.726 55.375,60.399 56.978,60.04 C57.551,59.913 57.998,59.759 58.318,59.581 C59.016,59.215 59.473,58.695 59.688,58.033 C59.902,57.369 59.949,56.685 59.828,55.982 C59.707,55.28 59.438,54.673 59.02,54.164 C58.602,53.654 58.011,53.386 57.246,53.356 C56.873,53.336 56.408,53.39 55.856,53.509 C54.254,53.853 52.652,54.164 51.05,54.439 C51.424,56.633 51.797,58.827 52.172,61.018 M62.057,70.133 C60.479,68.062 58.901,65.965 57.323,63.84 C55.82,64.18 54.317,64.494 52.814,64.776 C53.225,67.182 53.636,69.585 54.047,71.987 C52.701,72.254 51.358,72.498 50.012,72.715 C48.799,65.584 47.586,58.432 46.373,51.255 C49.379,50.883 52.387,50.364 55.393,49.731 C56.083,49.584 56.685,49.495 57.193,49.459 C59.08,49.319 60.587,49.718 61.718,50.698 C62.849,51.677 63.573,53.081 63.893,54.928 C64.149,56.407 64.074,57.764 63.668,59.004 C63.262,60.244 62.513,61.297 61.419,62.147 C63.154,64.418 64.89,66.661 66.625,68.877 C65.102,69.316 63.58,69.737 62.057,70.133" id="Fill-5" fill="#F15A24"></path>
            <path d="M68.6232,46.311 C73.2712,44.923 77.9202,43.378 82.5672,41.797 C82.7812,43.016 82.9952,44.237 83.2092,45.456 C79.9062,46.581 76.6032,47.692 73.3012,48.743 C73.5602,50.227 73.8182,51.711 74.0782,53.195 C76.7872,52.325 79.4982,51.417 82.2072,50.497 C82.4222,51.716 82.6352,52.936 82.8502,54.156 C80.1412,55.079 77.4302,55.989 74.7212,56.865 C75.0322,58.647 75.3442,60.428 75.6552,62.209 C78.9582,61.132 82.2622,60.006 85.5642,58.876 C85.7782,60.095 85.9922,61.315 86.2062,62.534 C81.5592,64.125 76.9102,65.713 72.2622,67.174 C71.0492,60.229 69.8362,53.276 68.6232,46.311" id="Fill-7" fill="#F15A24"></path>
            <path d="M94.0968,41.7465 C91.8518,42.4995 89.6078,43.2665 87.3628,44.0345 C87.1488,42.8145 86.9348,41.5975 86.7208,40.3775 C92.5548,38.3795 98.3908,36.3815 104.2248,34.6225 C104.4388,35.8505 104.6528,37.0785 104.8668,38.3075 C102.6218,38.9765 100.3768,39.6835 98.1318,40.4125 C99.1308,46.1225 100.1288,51.8365 101.1278,57.5575 C99.7838,57.9805 98.4388,58.4145 97.0938,58.8555 C96.0948,53.1485 95.0958,47.4465 94.0968,41.7465" id="Fill-9" fill="#F15A24"></path>
            <path d="M116.3478,35.2719 C114.1028,35.7759 111.8578,36.3399 109.6128,36.9519 C109.3988,35.7169 109.1848,34.4829 108.9708,33.2509 C114.8048,31.6399 120.6408,30.3349 126.4748,29.5749 C126.6888,30.8399 126.9028,32.1049 127.1168,33.3719 C124.8708,33.6479 122.6268,34.0069 120.3818,34.4339 C121.3808,40.2789 122.3798,46.1359 123.3788,52.0079 C122.0338,52.2269 120.6898,52.4709 119.3438,52.7399 C118.3458,46.9049 117.3458,41.0829 116.3478,35.2719" id="Fill-11" fill="#F15A24"></path>
            <path d="M139.4904,41.9204 C136.3384,37.4754 133.1854,33.2414 130.0344,29.1814 C131.6074,29.0394 133.1794,28.9414 134.7524,28.8904 C136.7514,31.5824 138.7504,34.3514 140.7494,37.2074 C141.8354,34.5044 142.9224,31.8264 144.0084,29.1764 C145.5804,29.3304 147.1524,29.5424 148.7244,29.8164 C147.0114,33.8634 145.2974,37.9834 143.5844,42.1724 C144.0784,45.1984 144.5704,48.2314 145.0644,51.2684 C143.6994,51.1114 142.3364,50.9984 140.9704,50.9274 C140.4764,47.9194 139.9844,44.9174 139.4904,41.9204" id="Fill-13" fill="#F15A24"></path>
            <path d="M37.0411,111.3032 C35.3211,110.3662 33.8971,108.9842 32.7711,107.2092 C31.6461,105.4352 30.8961,103.3732 30.5191,101.0652 C30.1421,98.7522 30.2311,96.7642 30.7861,95.0872 C31.3421,93.4082 32.3221,92.1472 33.7271,91.2382 C35.1301,90.3272 36.8811,89.8712 38.9771,89.7952 C41.3911,89.7072 43.5371,90.1362 45.4241,91.1542 C47.3091,92.1732 48.7771,93.6532 49.8311,95.6642 C48.5411,96.2562 47.2501,96.8242 45.9591,97.3652 C45.3181,96.0782 44.4681,95.1322 43.4081,94.5042 C42.3501,93.8792 41.0901,93.6112 39.6241,93.6762 C37.6281,93.7652 36.2211,94.4262 35.4031,95.7642 C34.5881,97.0952 34.3731,98.9302 34.7611,101.2792 C35.1481,103.6262 35.9731,105.4862 37.2331,106.8142 C38.4941,108.1382 40.1231,108.7572 42.1201,108.6082 C43.5851,108.4962 44.7271,108.0132 45.5461,107.1992 C46.3651,106.3822 46.8701,105.2702 47.0611,103.8822 C48.4791,104.0822 49.8981,104.2512 51.3161,104.3912 C50.9841,106.6272 50.0781,108.4902 48.6031,109.9412 C47.1251,111.3872 45.1801,112.2622 42.7671,112.4642 C40.6701,112.6372 38.7621,112.2402 37.0411,111.3032" id="Fill-15" fill="#F15A24"></path>
            <path d="M54.6876,88.2739 C56.0326,87.9989 57.3766,87.7009 58.7226,87.3809 C59.7206,93.1789 60.7196,98.9649 61.7186,104.7419 C64.7856,103.9499 67.8496,103.0609 70.9166,102.1139 C71.1296,103.3399 71.3436,104.5669 71.5576,105.7919 C67.1466,107.1669 62.7366,108.4219 58.3266,109.4549 C57.1136,102.4119 55.9006,95.3519 54.6876,88.2739" id="Fill-17" fill="#F15A24"></path>
            <path d="M88.6515,94.6606 C89.4695,93.0366 89.6775,91.1136 89.2895,88.8866 C88.9015,86.6776 88.0845,85.1206 86.8345,84.2166 C85.5845,83.3096 83.9595,83.1896 81.9595,83.8496 C79.9805,84.5046 78.5785,85.6326 77.7635,87.2436 C76.9475,88.8556 76.7345,90.7796 77.1255,93.0126 C77.5105,95.2246 78.3305,96.7906 79.5805,97.7046 C80.8295,98.6196 82.4555,98.7446 84.4555,98.0816 C86.4355,97.4236 87.8375,96.2816 88.6515,94.6606 M79.3765,102.2756 C77.6555,101.8966 76.2325,101.0276 75.1075,99.6706 C73.9815,98.3166 73.2305,96.5566 72.8535,94.3946 C72.4765,92.2336 72.5645,90.2076 73.1215,88.3106 C73.6755,86.4146 74.6575,84.7666 76.0615,83.3476 C77.4655,81.9306 79.2145,80.8716 81.3125,80.1626 C83.4075,79.4536 85.3175,79.2746 87.0395,79.6426 C88.7595,80.0116 90.1815,80.8626 91.3075,82.1996 C92.4335,83.5356 93.1825,85.2836 93.5615,87.4366 C93.9395,89.5916 93.8495,91.6176 93.2935,93.5256 C92.7395,95.4316 91.7555,97.1016 90.3535,98.5366 C88.9505,99.9716 87.1985,101.0516 85.1015,101.7666 C83.0045,102.4846 81.0965,102.6576 79.3765,102.2756" id="Fill-19" fill="#F15A24"></path>
            <path d="M104.4357,94.5249 C103.0627,94.3549 101.8827,93.8949 100.8927,93.1289 C99.9047,92.3629 99.1777,91.3219 98.7187,90.0059 C100.0877,89.3499 101.4567,88.7039 102.8257,88.0689 C103.3297,89.1559 104.0897,89.8889 105.1157,90.2779 C106.1377,90.6649 107.2657,90.6849 108.4917,90.3409 C109.5587,90.0439 110.4627,89.5549 111.2007,88.8599 C111.9397,88.1699 112.2367,87.4079 112.0907,86.5689 C112.0077,86.1009 111.7847,85.7339 111.4177,85.4619 C111.0517,85.1899 110.4607,85.0389 109.6507,85.0159 C107.7087,84.9849 105.7657,84.9879 103.8247,85.0169 C102.4367,85.0509 101.1987,84.8369 100.1147,84.3699 C99.0307,83.8999 98.3367,82.8149 98.0387,81.0989 C97.8017,79.7529 97.9567,78.4969 98.4927,77.3349 C99.0317,76.1719 99.8617,75.1629 100.9877,74.3089 C102.1117,73.4559 103.4247,72.8089 104.9327,72.3789 C107.1557,71.7599 109.0987,71.7889 110.7627,72.4459 C112.4267,73.1029 113.6897,74.3739 114.5427,76.2249 C113.1317,76.8159 111.7197,77.4289 110.3077,78.0619 C109.8967,77.1139 109.2307,76.4719 108.3147,76.1489 C107.3967,75.8289 106.4037,75.8209 105.3367,76.1379 C104.3867,76.4189 103.6057,76.8859 102.9887,77.5319 C102.3707,78.1799 102.1247,78.8539 102.2457,79.5469 C102.3527,80.1649 102.6937,80.5609 103.2637,80.7299 C103.8357,80.9019 104.5757,80.9619 105.4827,80.9179 C106.7757,80.8819 108.0707,80.8599 109.3637,80.8519 C110.4807,80.8479 111.4767,80.9369 112.3537,81.0989 C113.2287,81.2639 114.0467,81.6709 114.8047,82.3139 C115.5647,82.9589 116.0557,83.9419 116.2837,85.2539 C116.5317,86.7059 116.3437,88.0279 115.7177,89.2289 C115.0907,90.4309 114.1707,91.4369 112.9497,92.2579 C111.7307,93.0819 110.3697,93.6989 108.8657,94.1149 C107.2837,94.5509 105.8067,94.6919 104.4357,94.5249" id="Fill-21" fill="#F15A24"></path>
            <path d="M119.3615,69.1528 C124.0095,68.2268 128.6585,67.5848 133.3055,67.3468 C133.5195,68.6298 133.7335,69.9118 133.9475,71.1948 C130.6445,71.3368 127.3415,71.6858 124.0385,72.1988 C124.2975,73.7248 124.5565,75.2528 124.8165,76.7808 C127.5255,76.3818 130.2365,76.0938 132.9455,75.9438 C133.1595,77.2248 133.3735,78.5068 133.5875,79.7888 C130.8775,79.9178 128.1685,80.1848 125.4585,80.5668 C125.7695,82.4048 126.0825,84.2448 126.3935,86.0868 C129.6965,85.6538 132.9995,85.3958 136.3015,85.3548 C136.5155,86.6448 136.7295,87.9358 136.9435,89.2268 C132.2955,89.2438 127.6485,89.6978 123.0005,90.4678 C121.7875,83.3418 120.5745,76.2378 119.3615,69.1528" id="Fill-23" fill="#F15A24"></path>
        </g>
    </g>
</svg>