<?xml version="1.0" encoding="UTF-8"?>
<svg width="181px" height="181px" viewBox="0 0 181 181" version="1.1" xmlns="http://www.w3.org/2000/svg" xmlns:xlink="http://www.w3.org/1999/xlink">
    <!-- Generator: Sketch 64 (93537) - https://sketch.com -->
    <title>Group 26</title>
    <desc>Created with Sketch.</desc>
    <defs>
        <polygon id="path-1" points="0 0.475699857 180.5249 0.475699857 180.5249 181 0 181"></polygon>
    </defs>
    <g id="Page-1" stroke="none" stroke-width="1" fill="none" fill-rule="evenodd">
        <g id="Group-26" transform="translate(0.000000, -1.000000)">
            <g id="Group-3" transform="translate(0.000000, 0.525000)">
                <mask id="mask-2" fill="white">
                    <use xlink:href="#path-1"></use>
                </mask>
                <g id="Clip-2"></g>
                <path d="M180.292,97.1636 C176.743,146.8856 133.559,184.3156 83.837,180.7676 C34.115,177.2186 -3.315,134.0336 0.232,84.3116 C3.781,34.5906 46.966,-2.8404 96.688,0.7086 C146.41,4.2576 183.841,47.4406 180.292,97.1636" id="Fill-1" fill="#00EDFF" mask="url(#mask-2)"></path>
            </g>
            <path d="M52.4101,53.1036 C53.2771,52.4286 53.9191,51.5886 54.3611,50.5906 C54.7721,49.6656 54.8421,48.9576 54.5751,48.4826 C54.3061,48.0056 53.6841,47.8616 52.6901,48.0466 C50.8871,48.3836 49.0791,48.7526 47.2701,49.1536 C46.0951,51.1356 44.9741,53.1236 43.9111,55.1166 C45.8301,54.8166 47.7471,54.5426 49.6621,54.2946 C50.6261,54.1706 51.5451,53.7806 52.4101,53.1036 M49.7831,45.0556 C51.3121,44.6396 52.8401,44.2526 54.3651,43.8926 C55.1081,43.7176 55.8201,43.3696 56.4991,42.8336 C57.1761,42.3016 57.7371,41.5986 58.1981,40.7326 C58.6111,39.9576 58.7501,39.3726 58.6201,38.9856 C58.4881,38.5986 58.0651,38.5146 57.3341,38.7336 C55.9061,39.1606 54.4761,39.6176 53.0451,40.1056 C51.9191,41.7516 50.8321,43.4026 49.7831,45.0556 M59.4111,46.8196 C59.5381,47.7676 59.3601,48.8966 58.8591,50.1866 C57.9331,52.5756 56.6131,54.5436 54.7901,56.0486 C52.9721,57.5596 50.7731,58.3856 48.2271,58.6156 C44.4371,58.9606 40.6421,59.3866 36.8421,59.8936 C41.0031,52.4166 46.1031,45.0036 52.1431,37.6606 C54.7681,36.4706 57.3861,35.4106 59.9931,34.4776 C61.3131,34.0046 62.2071,33.9746 62.7221,34.3796 C63.2351,34.7846 63.4441,35.4806 63.3461,36.4426 C63.2471,37.4066 62.9301,38.4966 62.3711,39.6936 C61.8441,40.8216 61.2201,41.8456 60.4731,42.7566 C59.7251,43.6676 58.9081,44.4066 58.0071,44.9736 C58.8201,45.2516 59.2821,45.8696 59.4111,46.8196" id="Fill-4" fill="#F15A24"></path>
            <path d="M71.2412,46.9874 C73.3452,46.8644 75.4472,46.7814 77.5462,46.7404 C77.3372,42.6794 77.2972,38.6884 77.4632,34.7754 C75.4542,38.8604 73.3692,42.9334 71.2412,46.9874 M78.4342,57.5664 C78.2132,55.5864 78.0212,53.6194 77.8662,51.6674 C74.8082,51.6624 71.7462,51.7274 68.6782,51.8634 C67.6502,53.7794 66.6162,55.6894 65.5792,57.5934 C63.9242,57.6374 62.2672,57.6964 60.6102,57.7704 C65.8982,48.7854 71.2142,39.5974 76.1422,30.3304 C77.9542,30.0504 79.7612,29.8344 81.5622,29.6814 C81.2632,38.6924 82.0022,48.0804 83.3812,57.7224 C81.7322,57.6554 80.0842,57.6034 78.4342,57.5664" id="Fill-6" fill="#F15A24"></path>
            <path d="M93.1172,57.0167 C91.3532,55.6187 90.0942,53.7757 89.3482,51.4757 C88.5992,49.1777 88.4252,46.5597 88.7402,43.6067 C89.0562,40.6567 89.7812,38.0917 90.8082,35.9137 C91.8382,33.7377 93.0962,32.0747 94.5692,30.9637 C96.0462,29.8547 97.6462,29.4187 99.4782,29.7067 C101.5862,30.0377 103.3992,31.2067 105.0652,33.1217 C106.7252,35.0417 108.1012,37.4947 109.1242,40.4357 C107.8582,40.6287 106.5672,40.8527 105.2502,41.1037 C104.7102,39.2677 103.9552,37.7977 103.0132,36.7047 C102.0672,35.6147 100.9312,34.9527 99.5582,34.7527 C97.6872,34.4827 96.2572,35.2037 95.1692,36.8457 C94.0882,38.4917 93.4042,40.8407 93.2112,43.8817 C93.0182,46.9267 93.4272,49.3707 94.5092,51.2287 C95.5892,53.0847 97.3072,54.1207 99.6002,54.3707 C101.2772,54.5547 102.6532,54.2527 103.6902,53.4527 C104.7282,52.6517 105.4302,51.4077 105.7862,49.7107 C107.2902,50.4417 108.8132,51.1897 110.3532,51.9527 C109.8462,54.6187 108.6422,56.6037 106.7472,57.9357 C104.8512,59.2707 102.4142,59.7857 99.5422,59.4907 C97.0472,59.2357 94.8802,58.4167 93.1172,57.0167" id="Fill-8" fill="#F15A24"></path>
            <path d="M112.9345,33.6427 C114.1055,34.0447 115.2755,34.4757 116.4425,34.9357 C117.6155,39.1267 118.6715,43.3237 119.6115,47.5237 C121.4515,44.1137 122.7745,40.9407 123.4705,38.0627 C124.8845,38.7647 126.2955,39.5087 127.7045,40.2967 C127.2055,43.0597 125.9485,46.2027 124.0715,49.6537 C128.5735,55.2017 133.4055,60.6547 138.4255,65.8597 C136.4325,65.3487 134.4365,64.8617 132.4395,64.3977 C128.1245,59.6567 123.9815,54.7537 120.1105,49.8017 C120.9975,53.9547 121.7705,58.1107 122.4305,62.2717 C120.8465,61.9657 119.2615,61.6757 117.6765,61.3997 C116.5615,52.1117 114.9805,42.8587 112.9345,33.6427" id="Fill-10" fill="#F15A24"></path>
            <path d="M37.2558,90.5382 C39.9138,90.8722 42.5718,91.1942 45.2328,91.5062 C44.5278,87.4892 43.9758,83.5712 43.6098,79.7622 C41.3948,83.4282 39.2648,87.0242 37.2558,90.5382 M47.3718,102.2832 C46.9318,100.3002 46.5188,98.3362 46.1358,96.3932 C42.3948,95.8752 38.6548,95.3222 34.9188,94.7372 C34.0078,96.3722 33.1268,97.9862 32.2798,99.5792 C30.3428,99.1982 28.4048,98.8062 26.4698,98.3992 C30.5368,91.1582 35.4808,83.3542 40.8808,75.1582 C43.5368,75.2252 46.1918,75.3012 48.8458,75.3872 C49.4848,84.1672 51.0688,93.4712 53.2028,103.1902 C51.2588,102.9002 49.3148,102.5992 47.3718,102.2832" id="Fill-12" fill="#F15A24"></path>
            <path d="M59.042,75.7667 C60.91,75.8447 62.778,75.9287 64.646,76.0167 C65.268,82.5017 66.208,89.1537 67.353,95.9367 C69.914,89.5307 72.562,83.0787 75.178,76.6097 C77.047,76.7037 78.915,76.8017 80.782,76.9057 C81.821,83.6597 83.065,90.5127 84.398,97.4257 C86.806,90.7987 89.175,84.1897 91.386,77.6227 C93.25,77.7587 95.114,77.8997 96.979,78.0447 C93.813,87.5577 90.202,97.2057 86.539,106.9047 C84.668,106.7657 82.798,106.6157 80.929,106.4537 C79.487,99.6087 78.117,92.8277 76.933,86.1497 C74.358,92.5527 71.762,98.9437 69.265,105.2907 C67.398,105.0797 65.533,104.8587 63.67,104.6247 C61.601,94.6607 59.931,85.0027 59.042,75.7667" id="Fill-14" fill="#F15A24"></path>
            <path d="M106.9834,96.7257 C109.6554,96.8647 112.3284,96.9937 115.0014,97.1107 C113.7274,92.8737 112.4164,88.5967 111.0974,84.2957 C109.8374,88.3947 108.4554,92.5387 106.9834,96.7257 M118.1994,108.1437 C117.6464,106.1727 117.0794,104.1897 116.5004,102.1957 C112.7274,102.0947 108.9594,101.9597 105.1924,101.7917 C104.4564,103.7937 103.7034,105.8047 102.9374,107.8227 C100.9774,107.7477 99.0194,107.6617 97.0614,107.5617 C100.7734,97.8407 104.2714,88.2547 107.1404,78.8887 C109.7854,79.1217 112.4284,79.3637 115.0714,79.6157 C118.2544,89.3417 121.3934,98.9127 124.0944,108.1307 C122.1294,108.1477 120.1634,108.1527 118.1994,108.1437" id="Fill-16" fill="#F15A24"></path>
            <path d="M136.123,97.2218 C132.547,91.9608 128.862,86.3898 125.222,80.6328 C127.289,80.8508 129.357,81.0748 131.425,81.3038 C133.833,84.8758 136.245,88.3548 138.624,91.7068 C140.472,88.5918 142.141,85.5938 143.591,82.7268 C145.656,82.9798 147.721,83.2398 149.786,83.5058 C147.662,87.7818 144.956,92.4138 141.83,97.3488 C142.013,100.7808 142.064,104.2068 141.985,107.6278 C140.041,107.7208 138.099,107.8008 136.156,107.8678 C136.263,104.3218 136.251,100.7728 136.123,97.2218" id="Fill-18" fill="#F15A24"></path>
            <path d="M61.1377,137.7687 C62.1267,137.7247 62.8427,137.3307 63.2857,136.6007 C63.7277,135.8707 63.9607,135.0087 63.9837,134.0237 C64.0047,133.0377 63.8117,132.0927 63.3977,131.1917 C62.9827,130.2897 62.2747,129.6077 61.2707,129.1337 C60.7837,128.8997 60.1547,128.7047 59.3907,128.5427 C57.1777,128.0797 54.9677,127.5777 52.7607,127.0367 C52.7327,129.9557 52.7497,132.8827 52.8157,135.8217 C54.9717,136.4397 57.1307,137.0117 59.2937,137.5377 C60.0697,137.7257 60.6827,137.8007 61.1377,137.7687 M59.7937,123.4737 C60.7587,123.6577 61.5837,123.8637 62.2697,124.0957 C64.8207,124.9357 66.6997,126.2857 67.9037,128.2087 C69.1097,130.1307 69.6507,132.4047 69.5567,135.0377 C69.4637,137.6657 68.7717,139.7537 67.4997,141.2467 C66.2267,142.7387 64.3797,143.4147 61.9377,143.2037 C61.2817,143.1537 60.4937,143.0117 59.5757,142.7697 C57.3697,142.1917 55.1687,141.5587 52.9727,140.8717 C53.1027,144.1127 53.2887,147.3657 53.5317,150.6287 C51.8277,149.9997 50.1287,149.3277 48.4317,148.6137 C47.4627,139.2167 47.0697,129.9177 47.2477,120.7167 C51.4217,121.7537 55.6037,122.6727 59.7937,123.4737" id="Fill-20" fill="#F15A24"></path>
            <path d="M77.8759,126.1866 C79.7609,126.3926 81.6469,126.5756 83.5359,126.7336 C82.9749,134.9996 82.4369,143.3306 81.9229,151.7246 C85.9689,152.1026 90.0289,152.2776 94.1039,152.2496 C93.9119,154.0326 93.7149,155.8166 93.5139,157.6036 C87.7749,157.6926 82.0709,157.3256 76.3979,156.4986 C76.7719,146.2966 77.2649,136.1926 77.8759,126.1866" id="Fill-22" fill="#F15A24"></path>
            <path d="M99.2177,156.6622 C104.7467,148.3622 110.5887,140.1002 116.3217,132.1052 C111.9717,132.4612 107.6307,132.6752 103.3007,132.7462 C103.4787,131.0042 103.6477,129.2642 103.8087,127.5262 C111.4957,127.4832 119.2107,127.0542 126.9537,126.2352 C126.9277,126.4502 126.9007,126.6652 126.8727,126.8802 C121.1577,134.6592 115.1817,142.8252 109.3587,151.1652 C113.7357,150.5992 118.1287,149.8032 122.5377,148.7752 C122.1637,150.3982 121.7717,152.0222 121.3607,153.6462 C113.8937,155.6362 106.4797,156.8772 99.1197,157.3712 C99.1527,157.1352 99.1857,156.8982 99.2177,156.6622" id="Fill-24" fill="#F15A24"></path>
        </g>
    </g>
</svg>