<?xml version="1.0" encoding="UTF-8"?>
<svg width="181px" height="182px" viewBox="0 0 181 182" version="1.1" xmlns="http://www.w3.org/2000/svg" xmlns:xlink="http://www.w3.org/1999/xlink">
    <!-- Generator: Sketch 64 (93537) - https://sketch.com -->
    <title>Group 43</title>
    <desc>Created with Sketch.</desc>
    <defs>
        <polygon id="path-1" points="0 0.257399857 180.5248 0.257399857 180.5248 180.782079 0 180.782079"></polygon>
    </defs>
    <g id="Page-1" stroke="none" stroke-width="1" fill="none" fill-rule="evenodd">
        <g id="Group-43" transform="translate(0.000000, 0.620000)">
            <g id="Group-56">
                <mask id="mask-2" fill="white">
                    <use xlink:href="#path-1"></use>
                </mask>
                <g id="Clip-55"></g>
                <path d="M180.2919,96.9453 C176.7429,146.6673 133.5589,184.0973 83.8369,180.5493 C34.1149,177.0003 -3.3161,133.8153 0.2329,84.0933 C3.7819,34.3723 46.9659,-3.0587 96.6879,0.4903 C146.4099,4.0393 183.8409,47.2223 180.2919,96.9453" id="Fill-54" fill="#00EDFF" mask="url(#mask-2)"></path>
            </g>
            <path d="M52.4106,52.3603 C53.2776,51.6853 53.9196,50.8453 54.3616,49.8473 C54.7726,48.9223 54.8426,48.2143 54.5756,47.7393 C54.3056,47.2623 53.6836,47.1183 52.6906,47.3033 C50.8866,47.6403 49.0796,48.0093 47.2706,48.4103 C46.0946,50.3923 44.9746,52.3803 43.9106,54.3733 C45.8296,54.0733 47.7466,53.7993 49.6616,53.5513 C50.6256,53.4273 51.5456,53.0373 52.4106,52.3603 M49.7836,44.3123 C51.3126,43.8963 52.8406,43.5093 54.3656,43.1493 C55.1086,42.9743 55.8206,42.6263 56.4986,42.0903 C57.1756,41.5583 57.7366,40.8553 58.1986,39.9893 C58.6106,39.2143 58.7496,38.6293 58.6196,38.2423 C58.4876,37.8553 58.0656,37.7713 57.3336,37.9903 C55.9066,38.4173 54.4766,38.8743 53.0456,39.3623 C51.9186,41.0083 50.8316,42.6593 49.7836,44.3123 M59.4106,46.0763 C59.5376,47.0243 59.3606,48.1533 58.8586,49.4433 C57.9326,51.8323 56.6126,53.8003 54.7896,55.3053 C52.9716,56.8163 50.7736,57.6423 48.2276,57.8723 C44.4376,58.2173 40.6426,58.6433 36.8416,59.1503 C41.0026,51.6733 46.1036,44.2603 52.1436,36.9173 C54.7686,35.7273 57.3856,34.6673 59.9936,33.7343 C61.3136,33.2613 62.2066,33.2313 62.7226,33.6363 C63.2356,34.0413 63.4436,34.7373 63.3456,35.6993 C63.2466,36.6633 62.9296,37.7533 62.3706,38.9503 C61.8436,40.0783 61.2196,41.1023 60.4736,42.0133 C59.7256,42.9243 58.9086,43.6633 58.0066,44.2303 C58.8206,44.5083 59.2816,45.1263 59.4106,46.0763" id="Fill-57" fill="#F15A24"></path>
            <path d="M71.2416,46.2441 C73.3456,46.1211 75.4476,46.0381 77.5466,45.9971 C77.3366,41.9361 77.2966,37.9451 77.4626,34.0321 C75.4536,38.1171 73.3686,42.1901 71.2416,46.2441 M78.4346,56.8231 C78.2126,54.8431 78.0216,52.8761 77.8666,50.9241 C74.8086,50.9191 71.7466,50.9841 68.6786,51.1201 C67.6506,53.0361 66.6166,54.9461 65.5786,56.8501 C63.9246,56.8941 62.2676,56.9531 60.6096,57.0281 C65.8976,48.0421 71.2136,38.8541 76.1426,29.5871 C77.9536,29.3071 79.7606,29.0911 81.5616,28.9381 C81.2636,37.9491 82.0026,47.3371 83.3806,56.9791 C81.7326,56.9121 80.0846,56.8601 78.4346,56.8231" id="Fill-59" fill="#F15A24"></path>
            <path d="M93.1176,56.2734 C91.3536,54.8754 90.0946,53.0324 89.3486,50.7334 C88.5996,48.4344 88.4246,45.8174 88.7406,42.8634 C89.0566,39.9134 89.7816,37.3484 90.8076,35.1704 C91.8376,32.9944 93.0966,31.3314 94.5696,30.2204 C96.0466,29.1124 97.6466,28.6754 99.4786,28.9634 C101.5866,29.2944 103.3986,30.4634 105.0656,32.3784 C106.7256,34.2984 108.1016,36.7514 109.1236,39.6924 C107.8586,39.8854 106.5676,40.1094 105.2496,40.3604 C104.7096,38.5244 103.9546,37.0544 103.0136,35.9614 C102.0666,34.8714 100.9306,34.2094 99.5586,34.0094 C97.6876,33.7404 96.2566,34.4604 95.1696,36.1024 C94.0876,37.7484 93.4046,40.0974 93.2106,43.1394 C93.0186,46.1834 93.4266,48.6274 94.5096,50.4854 C95.5886,52.3414 97.3066,53.3774 99.5996,53.6274 C101.2776,53.8114 102.6536,53.5094 103.6906,52.7094 C104.7286,51.9084 105.4296,50.6644 105.7866,48.9674 C107.2906,49.6984 108.8126,50.4464 110.3536,51.2094 C109.8456,53.8754 108.6426,55.8604 106.7466,57.1924 C104.8516,58.5274 102.4136,59.0424 99.5416,58.7474 C97.0466,58.4924 94.8796,57.6734 93.1176,56.2734" id="Fill-61" fill="#F15A24"></path>
            <path d="M112.9345,32.8994 C114.1055,33.3014 115.2745,33.7324 116.4425,34.1924 C117.6155,38.3834 118.6715,42.5804 119.6115,46.7804 C121.4515,43.3704 122.7745,40.1974 123.4705,37.3194 C124.8845,38.0214 126.2955,38.7654 127.7045,39.5534 C127.2055,42.3164 125.9485,45.4594 124.0715,48.9104 C128.5735,54.4584 133.4055,59.9114 138.4255,65.1164 C136.4325,64.6054 134.4365,64.1184 132.4395,63.6544 C128.1255,58.9134 123.9805,54.0104 120.1095,49.0584 C120.9975,53.2114 121.7705,57.3674 122.4305,61.5284 C120.8475,61.2224 119.2625,60.9324 117.6765,60.6564 C116.5615,51.3684 114.9805,42.1154 112.9345,32.8994" id="Fill-63" fill="#F15A24"></path>
            <path d="M37.2558,89.7949 C39.9138,90.1289 42.5728,90.4509 45.2318,90.7629 C44.5278,86.7459 43.9758,82.8279 43.6098,79.0189 C41.3948,82.6849 39.2648,86.2809 37.2558,89.7949 M47.3718,101.5399 C46.9318,99.5569 46.5188,97.5929 46.1358,95.6499 C42.3948,95.1319 38.6548,94.5799 34.9188,93.9939 C34.0078,95.6289 33.1268,97.2429 32.2808,98.8359 C30.3428,98.4549 28.4058,98.0629 26.4688,97.6559 C30.5368,90.4149 35.4798,82.6109 40.8808,74.4149 C43.5368,74.4819 46.1918,74.5579 48.8458,74.6439 C49.4838,83.4239 51.0688,92.7289 53.2028,102.4469 C51.2578,102.1569 49.3148,101.8559 47.3718,101.5399" id="Fill-65" fill="#F15A24"></path>
            <path d="M59.0414,75.0234 C60.9104,75.1014 62.7784,75.1854 64.6464,75.2734 C65.2674,81.7584 66.2084,88.4104 67.3524,95.1934 C69.9144,88.7874 72.5624,82.3354 75.1784,75.8664 C77.0464,75.9604 78.9154,76.0584 80.7814,76.1624 C81.8214,82.9164 83.0654,89.7694 84.3984,96.6824 C86.8064,90.0554 89.1744,83.4464 91.3854,76.8794 C93.2504,77.0154 95.1144,77.1564 96.9784,77.3014 C93.8134,86.8144 90.2024,96.4624 86.5394,106.1614 C84.6684,106.0224 82.7984,105.8724 80.9284,105.7104 C79.4874,98.8664 78.1164,92.0844 76.9324,85.4064 C74.3574,91.8094 71.7624,98.2004 69.2644,104.5474 C67.3984,104.3364 65.5334,104.1154 63.6694,103.8814 C61.6004,93.9174 59.9304,84.2594 59.0414,75.0234" id="Fill-67" fill="#F15A24"></path>
            <path d="M106.9833,95.9824 C109.6553,96.1214 112.3283,96.2504 115.0013,96.3674 C113.7283,92.1304 112.4153,87.8534 111.0983,83.5524 C109.8383,87.6514 108.4553,91.7954 106.9833,95.9824 M118.1993,107.4004 C117.6473,105.4294 117.0793,103.4464 116.5003,101.4524 C112.7283,101.3514 108.9593,101.2164 105.1923,101.0484 C104.4563,103.0504 103.7033,105.0614 102.9373,107.0794 C100.9773,107.0044 99.0193,106.9184 97.0613,106.8184 C100.7743,97.0974 104.2713,87.5114 107.1413,78.1454 C109.7853,78.3784 112.4283,78.6204 115.0713,78.8724 C118.2543,88.5984 121.3943,98.1694 124.0953,107.3874 C122.1293,107.4044 120.1633,107.4094 118.1993,107.4004" id="Fill-69" fill="#F15A24"></path>
            <path d="M136.1235,96.4785 C132.5465,91.2175 128.8625,85.6465 125.2215,79.8895 C127.2895,80.1075 129.3575,80.3315 131.4245,80.5605 C133.8325,84.1325 136.2445,87.6115 138.6235,90.9635 C140.4715,87.8485 142.1415,84.8505 143.5905,81.9835 C145.6565,82.2365 147.7215,82.4965 149.7865,82.7625 C147.6625,87.0385 144.9565,91.6705 141.8305,96.6055 C142.0125,100.0375 142.0645,103.4635 141.9845,106.8855 C140.0415,106.9775 138.0985,107.0575 136.1565,107.1245 C136.2625,103.5785 136.2515,100.0295 136.1235,96.4785" id="Fill-71" fill="#F15A24"></path>
            <path d="M61.1376,137.0254 C62.1266,136.9814 62.8436,136.5874 63.2856,135.8574 C63.7276,135.1274 63.9606,134.2654 63.9826,133.2804 C64.0046,132.2944 63.8116,131.3494 63.3976,130.4484 C62.9816,129.5464 62.2746,128.8644 61.2706,128.3904 C60.7826,128.1564 60.1546,127.9614 59.3906,127.7994 C57.1776,127.3364 54.9676,126.8344 52.7606,126.2934 C52.7326,129.2124 52.7506,132.1394 52.8156,135.0784 C54.9716,135.6964 57.1316,136.2684 59.2936,136.7944 C60.0686,136.9824 60.6826,137.0584 61.1376,137.0254 M59.7936,122.7304 C60.7596,122.9144 61.5846,123.1204 62.2696,123.3524 C64.8206,124.1924 66.6996,125.5424 67.9036,127.4654 C69.1096,129.3874 69.6506,131.6614 69.5556,134.2944 C69.4636,136.9224 68.7706,139.0104 67.5006,140.5034 C66.2266,141.9954 64.3796,142.6724 61.9376,142.4604 C61.2806,142.4104 60.4936,142.2684 59.5756,142.0264 C57.3696,141.4484 55.1696,140.8154 52.9726,140.1284 C53.1026,143.3694 53.2886,146.6224 53.5316,149.8854 C51.8286,149.2564 50.1286,148.5854 48.4316,147.8704 C47.4636,138.4734 47.0686,129.1744 47.2486,119.9734 C51.4216,121.0104 55.6036,121.9294 59.7936,122.7304" id="Fill-73" fill="#F15A24"></path>
            <path d="M77.8754,125.4433 C79.7604,125.6493 81.6474,125.8323 83.5364,125.9903 C82.9744,134.2563 82.4374,142.5873 81.9224,150.9813 C85.9684,151.3593 90.0294,151.5353 94.1044,151.5063 C93.9124,153.2893 93.7154,155.0733 93.5134,156.8603 C87.7754,156.9493 82.0704,156.5823 76.3984,155.7553 C76.7724,145.5533 77.2644,135.4493 77.8754,125.4433" id="Fill-75" fill="#F15A24"></path>
            <path d="M99.2177,155.9189 C104.7467,147.6189 110.5887,139.3569 116.3217,131.3619 C111.9717,131.7179 107.6317,131.9319 103.3007,132.0029 C103.4777,130.2609 103.6477,128.5209 103.8087,126.7829 C111.4957,126.7399 119.2117,126.3109 126.9547,125.4919 C126.9277,125.7069 126.9007,125.9219 126.8727,126.1369 C121.1577,133.9159 115.1817,142.0819 109.3587,150.4219 C113.7357,149.8559 118.1287,149.0599 122.5387,148.0319 C122.1637,149.6549 121.7717,151.2789 121.3607,152.9029 C113.8937,154.8929 106.4797,156.1339 99.1197,156.6279 L99.2177,155.9189 Z" id="Fill-77" fill="#F15A24"></path>
        </g>
    </g>
</svg>