<?xml version="1.0" encoding="UTF-8"?>
<svg width="271px" height="171px" viewBox="0 0 271 171" version="1.1" xmlns="http://www.w3.org/2000/svg" xmlns:xlink="http://www.w3.org/1999/xlink">
    <!-- Generator: Sketch 64 (93537) - https://sketch.com -->
    <title>Group 38</title>
    <desc>Created with Sketch.</desc>
    <defs>
        <polygon id="path-1" points="0.0824793811 0.380480172 270.956 0.380480172 270.956 170.459891 0.0824793811 170.459891"></polygon>
    </defs>
    <g id="Page-1" stroke="none" stroke-width="1" fill="none" fill-rule="evenodd">
        <g id="Group-38" transform="translate(0.000000, -0.380000)">
            <g id="Group-3" transform="translate(0.000000, -0.000000)">
                <mask id="mask-2" fill="white">
                    <use xlink:href="#path-1"></use>
                </mask>
                <g id="Clip-2"></g>
                <path d="M250.6088,138.6318 L41.2268,170.1898 C28.1708,172.1568 15.9908,163.1688 14.0228,150.1118 L0.3528,59.4128 C-1.6152,46.3568 7.3738,34.1768 20.4298,32.2088 L229.8118,0.6508 C242.8688,-1.3172 255.0478,7.6718 257.0158,20.7288 L270.6858,111.4278 C272.6538,124.4848 263.6648,136.6628 250.6088,138.6318" id="Fill-1" fill="#0000FF" mask="url(#mask-2)"></path>
            </g>
            <path d="M21.7031,58.0576 C26.1501,55.3876 30.8811,53.4416 35.8481,52.0966 C36.2031,53.9916 36.5611,55.8916 36.9221,57.7986 C33.5271,58.8216 30.2461,60.1336 27.0951,61.7796 C27.5521,64.0786 28.0131,66.3866 28.4771,68.7036 C30.9701,67.2896 33.5481,66.0926 36.2021,65.0906 C36.5761,67.0326 36.9521,68.9796 37.3301,70.9326 C34.7061,72.0116 32.1611,73.2876 29.7011,74.7856 C30.5821,79.1526 31.4751,83.5516 32.3821,87.9836 C31.0501,88.9176 29.7451,89.9216 28.4701,90.9996 C26.1351,79.8176 23.8811,68.8386 21.7031,58.0576" id="Fill-4" fill="#00EDFF"></path>
            <path d="M42.0571,50.7393 C43.6501,50.4683 45.2621,50.2523 46.8941,50.0833 C48.2891,57.9443 49.7281,65.9203 51.2131,74.0123 C54.7851,73.2483 58.4621,72.7583 62.2301,72.4963 C62.5171,74.1503 62.8071,75.8083 63.0971,77.4723 C57.7191,77.9573 52.5301,78.9263 47.5811,80.5073 C45.6701,70.4073 43.8301,60.4873 42.0571,50.7393" id="Fill-6" fill="#00EDFF"></path>
            <path d="M73.9892,66.8389 C76.4772,67.0059 78.9922,67.2429 81.5302,67.5389 C79.6582,63.5909 77.7832,59.6369 75.9062,55.6779 C75.2322,59.3079 74.5922,63.0259 73.9892,66.8389 M86.4132,77.9049 C85.5332,76.0359 84.6522,74.1659 83.7712,72.2949 C80.2332,71.9009 76.7402,71.6209 73.3032,71.4849 C73.0262,73.3319 72.7582,75.1999 72.4992,77.0929 C70.7482,77.0839 69.0122,77.1159 67.2942,77.1929 C68.4062,67.7949 69.7362,58.9569 71.2542,50.5969 C73.9122,50.9159 76.5992,51.3049 79.3082,51.7519 C83.5222,60.7189 87.7242,69.6559 91.9152,78.5669 C90.0712,78.3179 88.2362,78.0969 86.4132,77.9049" id="Fill-8" fill="#00EDFF"></path>
            <path d="M100.1357,60.1621 C97.0257,59.4571 93.9297,58.7891 90.8557,58.1771 C90.6457,56.7201 90.4377,55.2671 90.2307,53.8181 C98.2587,55.5081 106.4257,57.5531 114.6157,59.6571 C114.7917,61.0241 114.9667,62.3951 115.1447,63.7681 C112.0037,62.9851 108.8667,62.2131 105.7407,61.4681 C106.6217,68.0161 107.5307,74.6391 108.4707,81.3401 C106.6337,80.9831 104.8017,80.6401 102.9747,80.3131 C101.9967,73.5151 101.0507,66.7991 100.1357,60.1621" id="Fill-10" fill="#00EDFF"></path>
            <path d="M131.2123,67.7852 C128.0763,67.0142 124.9333,66.2252 121.7903,65.4352 C121.6193,64.0792 121.4503,62.7252 121.2813,61.3752 C129.4763,63.4892 137.6613,65.5812 145.7213,67.3532 C145.8723,68.6592 146.0243,69.9672 146.1763,71.2772 C143.0803,70.6072 139.9653,69.8922 136.8403,69.1492 C137.5783,75.3342 138.3383,81.5742 139.1213,87.8742 C137.2683,87.4772 135.4113,87.0752 133.5543,86.6692 C132.7503,80.3132 131.9693,74.0192 131.2123,67.7852" id="Fill-12" fill="#00EDFF"></path>
            <path d="M152.248,68.7178 C158.608,69.9738 164.868,70.9748 170.97,71.5708 C171.115,72.8618 171.259,74.1538 171.405,75.4468 C167.069,75.0228 162.655,74.3988 158.183,73.6288 C158.362,75.2038 158.542,76.7808 158.724,78.3618 C162.389,78.9828 166.016,79.5098 169.595,79.9128 C169.743,81.2108 169.89,82.5098 170.039,83.8108 C166.461,83.4098 162.836,82.8888 159.175,82.2768 C159.395,84.1798 159.618,86.0878 159.841,87.9998 C164.297,88.7298 168.702,89.3308 173.036,89.7488 C173.186,91.0538 173.338,92.3608 173.489,93.6688 C167.393,93.0848 161.158,92.1498 154.844,91.0118 C153.951,83.5108 153.087,76.0818 152.248,68.7178" id="Fill-14" fill="#00EDFF"></path>
            <path d="M178.6674,72.1006 C180.4164,72.1656 182.1494,72.1916 183.8644,72.1726 C188.3104,77.0286 192.6884,81.7076 196.9914,86.1996 C196.4074,81.2276 195.8284,76.2676 195.2534,71.3176 C196.8824,71.0786 198.4904,70.7866 200.0774,70.4366 C200.9594,77.9126 201.8474,85.4026 202.7454,92.9156 C201.1404,93.2166 199.5154,93.4646 197.8714,93.6656 C193.5524,89.1356 189.1614,84.4206 184.7024,79.5336 C185.2634,84.4476 185.8314,89.3766 186.4054,94.3256183 C184.6824,94.3266 182.9444,94.2866 181.1924,94.2106 C180.3344,86.7976 179.4924,79.4296 178.6674,72.1006" id="Fill-16" fill="#00EDFF"></path>
            <path d="M39.061,115.2764 C36.956,117.1354 34.929,119.1984 32.989,121.4794 C32.545,119.4254 32.103,117.3784 31.665,115.3374 C36.788,109.6114 42.488,105.3574 48.647,102.2764 C49.011,104.1274 49.377,105.9824 49.746,107.8444 C47.403,109.0984 45.129,110.5284 42.93,112.1504 C44.781,121.1744 46.683,130.3334 48.64,139.6294 C47.403,140.8074 46.196,142.0584 45.018,143.3864 C42.978,133.8774 40.993,124.5074 39.061,115.2764" id="Fill-18" fill="#00EDFF"></path>
            <path d="M53.7558,100.0225 C55.2308,99.4535 56.7288,98.9425 58.2488,98.4865 C59.0188,102.6015 59.8018,106.7475 60.5968,110.9225 C64.1118,109.6345 67.7518,108.6625 71.4948,107.9565 C70.7778,103.9795 70.0728,100.0325 69.3778,96.1115 C70.9898,95.8925 72.6198,95.7185 74.2658,95.5865 C75.8838,104.9375 77.5628,114.4455 79.3058,124.1175 C77.7328,124.4355 76.1778,124.7995 74.6418,125.2145 C73.8908,121.1445 73.1518,117.1025 72.4228,113.0885 C68.7118,113.8765 65.1068,114.9355 61.6258,116.3135 C62.4338,120.5295 63.2528,124.7765 64.0858,129.0525 C62.6508,129.7255 61.2398,130.4575 59.8528,131.2515 C57.7478,120.6565 55.7158,110.2495 53.7558,100.0225" id="Fill-20" fill="#00EDFF"></path>
            <path d="M82.3803,95.2646 C88.2413,95.2476 94.2723,95.6626 100.4133,96.3606 C100.6423,97.8676 100.8733,99.3776 101.1063,100.8936 C96.7653,100.4566 92.4823,100.1676 88.2783,100.0796 C88.5903,101.9956 88.9063,103.9176 89.2243,105.8476 C92.6463,105.8506 96.1223,105.9926 99.6413,106.2436 C99.8823,107.7796 100.1253,109.3196 100.3693,110.8646 C96.8703,110.6636 93.4163,110.5776 90.0173,110.6326 C90.4043,112.9636 90.7963,115.3036 91.1903,117.6546 C95.2933,117.4826 99.4803,117.5286 103.7333,117.7386 C103.9773,119.2846 104.2243,120.8326 104.4723,122.3876 C98.5233,122.1816 92.7053,122.3096 87.0773,122.9226 C85.4523,113.5496 83.8863,104.3326 82.3803,95.2646" id="Fill-22" fill="#00EDFF"></path>
            <path d="M127.7709,123.4209 C125.5349,122.0669 123.7189,120.3469 122.3159,118.2509 C120.9139,116.1569 120.0249,113.8129 119.6539,111.2409 C119.2819,108.6729 119.5259,106.5099 120.3889,104.7799 C121.2529,103.0509 122.6759,101.8549 124.6569,101.1959 C126.6379,100.5359 129.0649,100.4949 131.9289,101.0489 C135.2249,101.6859 138.1079,102.8909 140.5699,104.6319 C143.0309,106.3759 144.8749,108.4749 146.1109,110.9479 C144.3249,111.0319 142.5399,111.1149 140.7549,111.2009 C139.9999,109.6389 138.9319,108.3559 137.5519,107.3449 C136.1699,106.3339 134.4839,105.6369 132.4909,105.2689 C129.7729,104.7629 127.8059,105.1169 126.6019,106.3489 C125.3979,107.5779 124.9829,109.5039 125.3489,112.1069 C125.7149,114.7099 126.7039,116.8749 128.3069,118.5769 C129.9089,120.2799 132.0459,121.3209 134.7289,121.7309 C136.6959,122.0319 138.2569,121.8889 139.4149,121.3039 C140.5729,120.7189 141.3349,119.7369 141.6999,118.3589 C143.5849,119.0799 145.4689,119.7979 147.3499,120.5089 C146.7219,122.6889 145.3679,124.2709 143.2889,125.2579 C141.2089,126.2449 138.5569,126.5109 135.3279,126.0449 C132.5209,125.6409 130.0069,124.7749 127.7709,123.4209" id="Fill-24" fill="#00EDFF"></path>
            <path d="M161.3129,128.752 C159.4609,127.763 157.9559,126.486 156.7949,124.941 C155.6349,123.398 154.9379,121.703 154.7039,119.878 C154.0899,115.053 153.4879,110.261 152.8989,105.5 C154.7479,105.813 156.5909,106.113 158.4279,106.398 C159.0049,111.128 159.5939,115.887 160.1939,120.677 C160.3169,121.658 160.6999,122.574 161.3379,123.42 C161.9769,124.265 162.7899,124.966 163.7789,125.517 C164.7699,126.068 165.8269,126.414 166.9549,126.553 C168.1099,126.694 169.1179,126.604 169.9789,126.283 C170.8409,125.963 171.4919,125.447 171.9329,124.744 C172.3729,124.041 172.5349,123.202 172.4149,122.232 C171.8369,117.5 171.2689,112.794 170.7099,108.111 C172.5139,108.317 174.3079,108.499 176.0909,108.653 C176.6459,113.334 177.2099,118.038 177.7839,122.765 C177.9999,124.55 177.7169,126.092 176.9279,127.383 C176.1399,128.674 174.9329,129.614 173.2969,130.185 C171.6599,130.755 169.7199,130.914 167.4679,130.646 C165.2139,130.377 163.1609,129.741 161.3129,128.752" id="Fill-26" fill="#00EDFF"></path>
            <path d="M190.9472,120.1328 C192.9642,120.1178 194.9612,120.0538 196.9372,119.9348 C197.6442,119.8918 198.1972,119.7978 198.5952,119.6618 C199.4662,119.3828 200.0542,118.9038 200.3642,118.2378 C200.6722,117.5718 200.7802,116.8608 200.6912,116.1058 C200.6012,115.3518 200.3242,114.6808 199.8652,114.0928 C199.4052,113.5028 198.7192,113.1488 197.7982,113.0118 C197.3512,112.9428 196.7842,112.9328 196.1032,112.9758 C194.1292,113.1008 192.1342,113.1678 190.1182,113.1848 C190.3932,115.4958 190.6692,117.8128 190.9472,120.1328 M202.2802,131.3188 C200.5462,128.8818 198.8022,126.4248 197.0522,123.9458 C195.1952,124.0498 193.3192,124.1058 191.4262,124.1178 C191.7342,126.6738 192.0442,129.2358 192.3562,131.8018 C190.6632,131.8148 188.9572,131.7938 187.2402,131.7448 C186.3172,124.1648 185.4142,116.6398 184.5302,109.1618 C188.3742,109.2828 192.1522,109.2388 195.8492,108.9898 C196.7012,108.9328 197.4312,108.9138 198.0442,108.9428 C200.3222,109.0298 202.0702,109.6018 203.3252,110.7498 C204.5772,111.8968 205.3222,113.4548 205.5662,115.4508 C205.7592,117.0498 205.5762,118.4918 205.0102,119.7638 C204.4442,121.0338 203.4862,122.0618 202.1192,122.8048 C204.0162,125.4408 205.9032,128.0508 207.7802,130.6348 C205.9682,130.9168 204.1342,131.1428 202.2802,131.3188" id="Fill-28" fill="#00EDFF"></path>
            <path d="M209.3403,107.001 C210.9393,106.618 212.5153,106.182 214.0693,105.687 C216.8443,111.329 219.6103,116.943 222.3633,122.529 C223.5313,115.385 224.6383,108.085 225.6673,100.585 C227.0913,99.76 228.4883,98.865 229.8583,97.898 C228.7533,107.312 227.5213,116.403 226.1963,125.255 C224.0493,126.24 221.8503,127.097 219.6053,127.834 C216.1993,120.932 212.7783,113.987 209.3403,107.001" id="Fill-30" fill="#00EDFF"></path>
            <path d="M234.2983,94.4121 C238.6763,90.6081 242.7123,85.9341 246.3493,80.2401 C246.5683,81.7181 246.7853,83.1951 247.0033,84.6711 C244.3973,88.6641 241.5913,92.1451 238.6063,95.1721 C238.8473,96.9021 239.0873,98.6331 239.3273,100.3621 C241.7933,97.9241 244.1393,95.1831 246.3553,92.1071 C246.5683,93.5721 246.7813,95.0361 246.9943,96.5001 C244.7623,99.5331 242.4003,102.2361 239.9203,104.6401 C240.2083,106.7161 240.4953,108.7921 240.7833,110.8681 C243.8293,108.0001 246.7033,104.6921 249.3843,100.8911 C249.5993,102.3621 249.8153,103.8321 250.0293,105.3011 C246.2293,110.5791 242.0493,114.8881 237.5493,118.3801 C236.4683,110.3961 235.3843,102.4091 234.2983,94.4121" id="Fill-32" fill="#00EDFF"></path>
        </g>
    </g>
</svg>