<?xml version="1.0" encoding="UTF-8"?>
<svg width="185px" height="182px" viewBox="0 0 185 182" version="1.1" xmlns="http://www.w3.org/2000/svg" xmlns:xlink="http://www.w3.org/1999/xlink">
    <!-- Generator: Sketch 64 (93537) - https://sketch.com -->
    <title>Group 20</title>
    <desc>Created with Sketch.</desc>
    <g id="Page-1" stroke="none" stroke-width="1" fill="none" fill-rule="evenodd">
        <g id="Group-20">
            <path d="M167.4039,51.4702 L184.8919,152.8472 L17.4939,181.7252 L17.4889,181.7252 L0.000899999996,80.3472 L167.4039,51.4702 Z M71.6364,0.000600000001 L167.4024,51.4676 L0.000399999996,80.3446 L71.6364,0.000600000001 Z" id="Combined-Shape" fill="#F15A24"></path>
            <g id="Group-19" transform="translate(27.000000, 57.725000)" fill="#0000FF">
                <path d="M11.5098,49.4927 C9.5718,49.0187 7.8998,48.1447 6.4948,46.8717 C5.0888,45.5977 4.0558,43.9867 3.3918,42.0347 L9.1698,40.1007 C9.8908,41.7257 10.9758,42.8987 12.4258,43.6177 C13.8758,44.3367 15.4648,44.5427 17.1928,44.2347 C18.6968,43.9667 19.9658,43.3887 21.0008,42.5007 C22.0348,41.6127 22.4468,40.5687 22.2328,39.3707 C22.1138,38.7017 21.7938,38.1557 21.2728,37.7307 C20.7518,37.3057 19.9178,37.0237 18.7718,36.8837 L10.5478,35.9747 C8.5878,35.7787 6.8398,35.2417 5.3028,34.3647 C3.7678,33.4897 2.7788,31.8107 2.3378,29.3317 C1.9908,27.3817 2.1908,25.6427 2.9398,24.1147 C3.6878,22.5877 4.8518,21.3327 6.4298,20.3467 C8.0068,19.3617 9.8578,18.6937 11.9808,18.3457 C15.1098,17.8467 17.8548,18.1617 20.2118,19.2947 C22.5688,20.4277 24.3598,22.3367 25.5858,25.0207 L19.6278,27.1597 C19.0358,25.7697 18.0908,24.7807 16.7938,24.1927 C15.4958,23.6037 14.0948,23.4437 12.5908,23.7127 C11.2528,23.9507 10.1528,24.4697 9.2888,25.2697 C8.4258,26.0707 8.0838,26.9717 8.2618,27.9747 C8.4208,28.8667 8.9038,29.4847 9.7128,29.8297 C10.5218,30.1747 11.5658,30.3897 12.8468,30.4787 L18.3238,30.9707 C19.9018,31.1197 21.3098,31.3577 22.5458,31.6837 C23.7828,32.0107 24.9398,32.6587 26.0188,33.6317 C27.0968,34.6027 27.8028,36.0227 28.1348,37.8887 C28.5018,39.9517 28.2498,41.8067 27.3788,43.4557 C26.5088,45.1057 25.2178,46.4497 23.5048,47.4867 C21.7928,48.5237 19.8778,49.2317 17.7608,49.6087 C15.5308,50.0057 13.4478,49.9667 11.5098,49.4927" id="Fill-3"></path>
                <polygon id="Fill-5" points="40.2345 19.395 30.7475 21.083 29.8035 15.776 54.4595 11.387 55.4045 16.695 45.9175 18.383 50.3295 43.166 44.6455 44.176"></polygon>
                <path d="M70.8774,27.5649 L78.9844,26.1229 L72.5384,13.6449 L70.8774,27.5649 Z M84.5974,37.0659 L81.5594,31.1389 L70.2334,33.1559 L69.4274,39.7659 L63.5764,40.8069 L67.4144,9.0819 L75.8974,7.5709 L90.4474,36.0239 L84.5974,37.0659 Z" id="Fill-7"></path>
                <polygon id="Fill-9" points="100.2201 21.6528 86.7631 5.6368 93.4081 4.4548 101.9431 14.6198 106.4461 2.1328 113.0911 0.9508 105.9871 20.6258 108.1671 32.8698 102.3991 33.8968"></polygon>
                <polygon id="Fill-11" points="0.0739 72.8042 5.7579 71.7922 7.9589 84.1632 21.4159 81.7682 19.2139 69.3982 24.8979 68.3862 30.2529 98.4762 24.5699 99.4882 22.3609 87.0752 8.9039 89.4712 11.1129 101.8822 5.4299 102.8942"></polygon>
                <path d="M57.409,85.9673 C58.544,83.8683 58.824,81.2033 58.249,77.9713 C57.679,74.7683 56.507,72.3823 54.733,70.8153 C52.96,69.2483 50.663,68.7013 47.845,69.1743 C45.054,69.6423 43.09,70.9263 41.955,73.0253 C40.82,75.1243 40.539,77.7893 41.115,81.0213 C41.685,84.2263 42.857,86.6113 44.631,88.1773 C46.404,89.7443 48.7,90.2923 51.519,89.8183 C54.31,89.3513 56.274,88.0673 57.409,85.9673 M44.391,94.5793 C41.957,93.6623 39.938,92.1313 38.334,89.9883 C36.731,87.8443 35.652,85.2133 35.097,82.0923 C34.542,78.9733 34.646,76.1303 35.411,73.5643 C36.176,70.9993 37.543,68.8673 39.511,67.1653 C41.478,65.4643 43.939,64.3503 46.893,63.8243 C49.846,63.2993 52.539,63.4943 54.974,64.4123 C57.407,65.3313 59.425,66.8613 61.029,69.0043 C62.632,71.1493 63.711,73.7803 64.267,76.9003 C64.822,80.0203 64.717,82.8633 63.952,85.4283 C63.187,87.9923 61.82,90.1263 59.853,91.8263 C57.885,93.5293 55.424,94.6423 52.472,95.1673 C49.518,95.6933 46.824,95.4973 44.391,94.5793" id="Fill-13"></path>
                <polygon id="Fill-15" points="69.1113 60.5161 74.2093 59.6091 87.7113 77.8151 94.1023 56.0681 99.2003 55.1611 104.5563 85.2491 99.2483 86.1941 96.0503 68.2251 90.5143 87.7491 88.5083 88.1061 76.5753 71.6911 79.7743 89.6611 74.4673 90.6061"></polygon>
                <polygon id="Fill-17" points="108.3936 53.5239 128.0356 50.0289 128.9796 55.3359 115.0216 57.8199 116.1676 64.2559 127.6176 62.2179 128.5626 67.5249 117.1116 69.5629 118.4876 77.2949 132.4466 74.8099 133.3906 80.1179 113.7496 83.6139"></polygon>
            </g>
        </g>
    </g>
</svg>