<?xml version="1.0" encoding="UTF-8"?>
<svg width="129px" height="74px" viewBox="0 0 129 74" version="1.1" xmlns="http://www.w3.org/2000/svg" xmlns:xlink="http://www.w3.org/1999/xlink">
    <!-- Generator: Sketch 64 (93537) - https://sketch.com -->
    <title>Group 52</title>
    <desc>Created with Sketch.</desc>
    <defs>
        <polygon id="path-1" points="-6.39488462e-13 73.339 146.583 73.339 146.583 -2.84217094e-14 -6.39488462e-13 -2.84217094e-14"></polygon>
    </defs>
    <g id="Page-1" stroke="none" stroke-width="1" fill="none" fill-rule="evenodd">
        <g id="Group-52" transform="translate(0.000000, -0.000100)">
            <path d="M4.1523,16.879 C3.1463,16.434 2.3233,15.799 1.6843,14.972 C1.0453,14.146 0.6393,13.171 0.4673,12.048 L3.7903,11.557 C4.0233,12.508 4.4993,13.249 5.2163,13.779 C5.9333,14.31 6.7763,14.574 7.7433,14.574 C8.5853,14.574 9.3303,14.384 9.9773,14.001 C10.6243,13.619 10.9483,13.093 10.9483,12.422 C10.9483,12.048 10.8273,11.72 10.5863,11.44 C10.3433,11.159 9.9193,10.925 9.3103,10.737 L4.9353,9.451 C3.8903,9.155 2.9943,8.694 2.2463,8.07 C1.4973,7.447 1.1233,6.441 1.1233,5.053 C1.1233,3.962 1.3993,3.037 1.9533,2.281 C2.5063,1.525 3.2583,0.955 4.2113,0.573 C5.1623,0.192 6.2303,0.008 7.4163,0.024 C9.1623,0.055 10.6213,0.491 11.7903,1.333 C12.9603,2.176 13.7473,3.385 14.1533,4.959 L10.7143,5.544 C10.5273,4.733 10.1093,4.106 9.4633,3.661 C8.8153,3.217 8.0703,2.994 7.2283,2.994 C6.4793,2.994 5.8333,3.17 5.2873,3.521 C4.7413,3.872 4.4673,4.328 4.4673,4.89 C4.4673,5.389 4.6713,5.771 5.0763,6.035 C5.4813,6.301 6.0273,6.52 6.7143,6.691 L9.6373,7.486 C10.4803,7.72 11.2203,7.985 11.8603,8.281 C12.5003,8.578 13.0653,9.042 13.5563,9.673 C14.0483,10.305 14.2933,11.144 14.2933,12.189 C14.2933,13.343 13.9773,14.325 13.3453,15.136 C12.7153,15.947 11.8833,16.551 10.8543,16.948 C9.8253,17.347 8.7173,17.545 7.5323,17.545 C6.2853,17.545 5.1583,17.323 4.1523,16.879" id="Fill-1" fill="#000000"></path>
            <path d="M29.5342,13.0304 C30.3522,12.0014 30.7632,10.5824 30.7632,8.7724 C30.7632,6.9794 30.3562,5.5714 29.5462,4.5504 C28.7342,3.5284 27.5422,3.0094 25.9672,2.9944 C24.4072,2.9784 23.2182,3.4854 22.3992,4.5144 C21.5802,5.5444 21.1712,6.9644 21.1712,8.7724 C21.1712,10.5664 21.5762,11.9734 22.3882,12.9954 C23.1982,14.0164 24.3912,14.5354 25.9672,14.5514 C27.5262,14.5664 28.7162,14.0594 29.5342,13.0304 M21.6382,16.4454 C20.4062,15.7134 19.4592,14.6874 18.7972,13.3694 C18.1342,12.0514 17.8022,10.5194 17.8022,8.7724 C17.8022,7.0264 18.1342,5.4944 18.7972,4.1764 C19.4592,2.8584 20.4062,1.8334 21.6382,1.0994 C22.8702,0.3664 24.3132,0.0004 25.9672,0.0004 C27.6192,0.0004 29.0622,0.3664 30.2942,1.0994 C31.5262,1.8334 32.4732,2.8584 33.1372,4.1764 C33.8002,5.4944 34.1312,7.0264 34.1312,8.7724 C34.1312,10.5194 33.8002,12.0514 33.1372,13.3694 C32.4732,14.6874 31.5262,15.7134 30.2942,16.4454 C29.0622,17.1784 27.6192,17.5454 25.9672,17.5454 C24.3132,17.5454 22.8702,17.1784 21.6382,16.4454" id="Fill-3" fill="#000000"></path>
            <path d="M41.2432,16.4454 C40.0112,15.7134 39.0632,14.6874 38.4002,13.3694 C37.7372,12.0514 37.4062,10.5194 37.4062,8.7724 C37.4062,7.0264 37.7372,5.4944 38.4002,4.1754 C39.0632,2.8584 40.0112,1.8334 41.2432,1.0994 C42.4742,0.3664 43.9172,0.0004 45.5702,0.0004 C47.4732,0.0004 49.0872,0.4714 50.4132,1.4154 C51.7382,2.3594 52.6742,3.6654 53.2212,5.3344 L50.0152,6.2224 C49.6872,5.1774 49.1532,4.3794 48.4132,3.8254 C47.6722,3.2714 46.7242,2.9944 45.5702,2.9944 C43.9952,2.9944 42.7992,3.5084 41.9792,4.5384 C41.1612,5.5674 40.7512,6.9794 40.7512,8.7724 C40.7512,10.5664 41.1612,11.9774 41.9792,13.0074 C42.7992,14.0364 43.9952,14.5504 45.5702,14.5504 C46.7242,14.5504 47.6722,14.2744 48.4132,13.7204 C49.1532,13.1674 49.6872,12.3674 50.0152,11.3224 L53.2212,12.2124 C52.6742,13.8814 51.7382,15.1864 50.4132,16.1304 C49.0872,17.0734 47.4732,17.5454 45.5702,17.5454 C43.9172,17.5454 42.4742,17.1784 41.2432,16.4454" id="Fill-5" fill="#000000"></path>
            <mask id="mask-2" fill="white">
                <use xlink:href="#path-1"></use>
            </mask>
            <g id="Clip-8"></g>
            <polygon id="Fill-7" fill="#000000" mask="url(#mask-2)" points="57.898 17.195 61.08 17.195 61.08 0.351 57.898 0.351"></polygon>
            <path d="M70.5313,10.714 L75.0693,10.714 L72.7773,3.322 L70.5313,10.714 Z M77.0573,17.194 L75.9813,13.686 L69.6423,13.686 L68.5663,17.194 L65.2913,17.194 L70.4373,0.351 L75.1863,0.351 L80.3333,17.194 L77.0573,17.194 Z" id="Fill-9" fill="#000000" mask="url(#mask-2)"></path>
            <polygon id="Fill-10" fill="#000000" mask="url(#mask-2)" points="84.5439 0.3507 87.7259 0.3507 87.7259 14.2237 94.9779 14.2237 94.9779 17.1947 84.5439 17.1947"></polygon>
            <path d="M8.4453,42.1554 C9.4743,41.9534 10.2573,41.3444 10.7963,40.3304 C11.3343,39.3174 11.6033,38.1554 11.6033,36.8444 C11.6033,35.5044 11.3303,34.3344 10.7843,33.3364 C10.2383,32.3384 9.4593,31.7374 8.4453,31.5344 C8.0543,31.4574 7.4463,31.4184 6.6203,31.4184 L4.3973,31.4184 L4.3973,42.2724 L6.6203,42.2724 C7.4463,42.2724 8.0543,42.2334 8.4453,42.1554 L8.4453,42.1554 Z M6.6203,28.4234 C7.4463,28.4234 8.1173,28.4544 8.6323,28.5164 C9.9583,28.6734 11.0953,29.1364 12.0483,29.9084 C12.9993,30.6804 13.7233,31.6714 14.2233,32.8804 C14.7223,34.0894 14.9713,35.4104 14.9713,36.8444 C14.9713,38.2804 14.7223,39.6014 14.2233,40.8104 C13.7233,42.0184 12.9993,43.0094 12.0483,43.7814 C11.0953,44.5524 9.9583,45.0174 8.6323,45.1734 C8.1173,45.2354 7.4463,45.2664 6.6203,45.2664 L1.1703,45.2664 L1.1703,28.4234 L6.6203,28.4234 Z" id="Fill-11" fill="#000000" mask="url(#mask-2)"></path>
            <polygon id="Fill-12" fill="#000000" mask="url(#mask-2)" points="19.885 45.267 23.067 45.267 23.067 28.423 19.885 28.423"></polygon>
            <path d="M31.4287,44.9513 C30.4227,44.5063 29.6007,43.8713 28.9607,43.0443 C28.3217,42.2183 27.9157,41.2433 27.7437,40.1203 L31.0667,39.6293 C31.3007,40.5803 31.7767,41.3213 32.4927,41.8513 C33.2107,42.3823 34.0527,42.6463 35.0207,42.6463 C35.8627,42.6463 36.6067,42.4563 37.2537,42.0733 C37.9017,41.6913 38.2247,41.1653 38.2247,40.4943 C38.2247,40.1203 38.1037,39.7923 37.8627,39.5123 C37.6197,39.2313 37.1957,38.9973 36.5877,38.8093 L32.2127,37.5233 C31.1677,37.2273 30.2717,36.7663 29.5227,36.1423 C28.7737,35.5193 28.3997,34.5133 28.3997,33.1253 C28.3997,32.0343 28.6767,31.1093 29.2307,30.3533 C29.7827,29.5973 30.5357,29.0273 31.4877,28.6453 C32.4387,28.2643 33.5067,28.0803 34.6927,28.0963 C36.4397,28.1273 37.8977,28.5633 39.0677,29.4053 C40.2377,30.2483 41.0247,31.4573 41.4297,33.0313 L37.9907,33.6163 C37.8037,32.8053 37.3867,32.1783 36.7397,31.7333 C36.0917,31.2893 35.3477,31.0663 34.5057,31.0663 C33.7567,31.0663 33.1097,31.2423 32.5637,31.5933 C32.0177,31.9443 31.7447,32.4003 31.7447,32.9623 C31.7447,33.4613 31.9477,33.8433 32.3537,34.1073 C32.7587,34.3733 33.3047,34.5923 33.9907,34.7633 L36.9147,35.5583 C37.7567,35.7923 38.4977,36.0573 39.1377,36.3533 C39.7767,36.6503 40.3417,37.1143 40.8327,37.7453 C41.3247,38.3773 41.5707,39.2163 41.5707,40.2613 C41.5707,41.4153 41.2547,42.3973 40.6227,43.2083 C39.9917,44.0193 39.1607,44.6233 38.1317,45.0203 C37.1027,45.4193 35.9937,45.6173 34.8097,45.6173 C33.5617,45.6173 32.4347,45.3953 31.4287,44.9513" id="Fill-13" fill="#000000" mask="url(#mask-2)"></path>
            <polygon id="Fill-14" fill="#000000" mask="url(#mask-2)" points="49.9219 31.3947 44.6109 31.3947 44.6109 28.4227 58.4129 28.4227 58.4129 31.3947 53.1039 31.3947 53.1039 45.2667 49.9219 45.2667"></polygon>
            <path d="M65.7588,38.7863 L70.2978,38.7863 L68.0048,31.3943 L65.7588,38.7863 Z M72.2858,45.2663 L71.2098,41.7583 L64.8698,41.7583 L63.7938,45.2663 L60.5188,45.2663 L65.6648,28.4233 L70.4138,28.4233 L75.5618,45.2663 L72.2858,45.2663 Z" id="Fill-15" fill="#000000" mask="url(#mask-2)"></path>
            <polygon id="Fill-16" fill="#000000" mask="url(#mask-2)" points="79.5381 28.423 82.7661 28.423 90.0881 39.652 90.0881 28.423 93.3161 28.423 93.3161 45.267 90.0881 45.267 82.7661 34.038 82.7661 45.267 79.5381 45.267"></polygon>
            <path d="M101.3643,44.5177 C100.1323,43.7857 99.1843,42.7597 98.5213,41.4417 C97.8583,40.1237 97.5273,38.5917 97.5273,36.8447 C97.5273,35.0987 97.8583,33.5667 98.5213,32.2477 C99.1843,30.9307 100.1323,29.9057 101.3643,29.1717 C102.5953,28.4387 104.0383,28.0727 105.6913,28.0727 C107.5943,28.0727 109.2083,28.5437 110.5343,29.4877 C111.8593,30.4317 112.7953,31.7377 113.3423,33.4067 L110.1363,34.2947 C109.8083,33.2497 109.2743,32.4517 108.5343,31.8977 C107.7933,31.3437 106.8453,31.0667 105.6913,31.0667 C104.1163,31.0667 102.9203,31.5807 102.1003,32.6107 C101.2823,33.6397 100.8723,35.0517 100.8723,36.8447 C100.8723,38.6387 101.2823,40.0497 102.1003,41.0797 C102.9203,42.1087 104.1163,42.6227 105.6913,42.6227 C106.8453,42.6227 107.7933,42.3467 108.5343,41.7927 C109.2743,41.2397 109.8083,40.4397 110.1363,39.3947 L113.3423,40.2847 C112.7953,41.9537 111.8593,43.2587 110.5343,44.2027 C109.2083,45.1457 107.5943,45.6177 105.6913,45.6177 C104.0383,45.6177 102.5953,45.2507 101.3643,44.5177" id="Fill-17" fill="#000000" mask="url(#mask-2)"></path>
            <polygon id="Fill-18" fill="#000000" mask="url(#mask-2)" points="117.7861 28.423 128.7811 28.423 128.7811 31.395 120.9681 31.395 120.9681 34.997 127.3781 34.997 127.3781 37.968 120.9681 37.968 120.9681 42.296 128.7811 42.296 128.7811 45.267 117.7861 45.267"></polygon>
            <path d="M5.2402,66.8585 L9.7782,66.8585 L7.4862,59.4665 L5.2402,66.8585 Z M11.7662,73.3385 L10.6902,69.8305 L4.3512,69.8305 L3.2752,73.3385 L0.000200000001,73.3385 L5.1462,56.4955 L9.8952,56.4955 L15.0422,73.3385 L11.7662,73.3385 Z" id="Fill-20" fill="#000000" mask="url(#mask-2)"></path>
            <path d="M27.0664,64.5431 C27.6434,64.3871 28.0564,64.0751 28.3064,63.6071 C28.5554,63.1401 28.6804,62.6251 28.6804,62.0641 C28.6804,61.5021 28.5554,60.9871 28.3064,60.5201 C28.0564,60.0511 27.6434,59.7391 27.0664,59.5831 C26.7864,59.5061 26.4264,59.4671 25.9904,59.4671 L22.2014,59.4671 L22.2014,64.6601 L25.9904,64.6601 C26.4424,64.6601 26.8004,64.6211 27.0664,64.5431 L27.0664,64.5431 Z M26.1304,56.4951 C26.6764,56.4951 27.1444,56.5261 27.5344,56.5891 C28.9854,56.8081 30.0724,57.4041 30.7974,58.3791 C31.5234,59.3541 31.8854,60.5821 31.8854,62.0641 C31.8854,63.5451 31.5234,64.7731 30.7974,65.7481 C30.0724,66.7231 28.9854,67.3191 27.5344,67.5371 C27.1444,67.6001 26.6764,67.6311 26.1304,67.6311 L22.2014,67.6311 L22.2014,73.3391 L19.0194,73.3391 L19.0194,56.4951 L26.1304,56.4951 Z" id="Fill-21" fill="#000000" mask="url(#mask-2)"></path>
            <path d="M38.9971,66.8585 L43.5361,66.8585 L41.2431,59.4665 L38.9971,66.8585 Z M45.5241,73.3385 L44.4481,69.8305 L38.1081,69.8305 L37.0321,73.3385 L33.7571,73.3385 L38.9031,56.4955 L43.6521,56.4955 L48.8001,73.3385 L45.5241,73.3385 Z" id="Fill-22" fill="#000000" mask="url(#mask-2)"></path>
            <path d="M55.958,64.6603 L59.747,64.6603 C60.199,64.6603 60.558,64.6213 60.823,64.5433 C61.4,64.3873 61.813,64.0753 62.063,63.6073 C62.312,63.1393 62.437,62.6253 62.437,62.0633 C62.437,61.5023 62.312,60.9873 62.063,60.5193 C61.813,60.0513 61.4,59.7393 60.823,59.5833 C60.543,59.5063 60.184,59.4673 59.747,59.4673 L55.958,59.4673 L55.958,64.6603 Z M62.273,73.3393 L59.514,67.6313 L55.958,67.6313 L55.958,73.3393 L52.776,73.3393 L52.776,56.4953 L59.888,56.4953 C60.434,56.4953 60.901,56.5263 61.291,56.5893 C62.742,56.8073 63.829,57.4043 64.555,58.3793 C65.28,59.3533 65.643,60.5823 65.643,62.0633 C65.643,63.2483 65.408,64.2733 64.94,65.1393 C64.473,66.0053 63.771,66.6563 62.835,67.0933 L65.877,73.3393 L62.273,73.3393 Z" id="Fill-23" fill="#000000" mask="url(#mask-2)"></path>
            <polygon id="Fill-24" fill="#000000" mask="url(#mask-2)" points="74.2285 59.4669 68.9175 59.4669 68.9175 56.4949 82.7195 56.4949 82.7195 59.4669 77.4105 59.4669 77.4105 73.3389 74.2285 73.3389"></polygon>
        </g>
    </g>
</svg>