<?xml version="1.0" encoding="UTF-8"?>
<svg width="148px" height="148px" viewBox="0 0 148 148" version="1.1" xmlns="http://www.w3.org/2000/svg" xmlns:xlink="http://www.w3.org/1999/xlink">
    <!-- Generator: Sketch 64 (93537) - https://sketch.com -->
    <title>Group 15</title>
    <desc>Created with Sketch.</desc>
    <g id="Page-1" stroke="none" stroke-width="1" fill="none" fill-rule="evenodd">
        <g id="Group-15">
            <polygon id="Fill-1" fill="#00EDFF" points="16.9839 0 -0.0001 130.833 130.8329 147.816 147.8159 16.983"></polygon>
            <g id="Group-14" transform="translate(22.000000, 27.816000)" fill="#E3FF00">
                <path d="M23.9719,29.5315 C25.1719,28.5965 25.8649,27.3855 26.0499,25.8975 C26.2389,24.3775 25.8659,23.0165 24.9319,21.8155 C23.9969,20.6155 22.7849,19.9235 21.2969,19.7385 C19.8089,19.5525 18.4569,19.9275 17.2409,20.8595 C16.0239,21.7925 15.3209,23.0185 15.1319,24.5395 C14.9509,25.9945 15.3269,27.3315 16.2599,28.5475 C17.1919,29.7635 18.4019,30.4645 19.8899,30.6495 C21.4109,30.8395 22.7719,30.4665 23.9719,29.5315 M28.6179,16.1405 C30.1939,17.3395 31.3429,18.8615 32.0659,20.7085 C32.7889,22.5555 33.0149,24.5625 32.7459,26.7305 C32.4759,28.8975 31.6789,30.8105 30.3569,32.4695 C29.0329,34.1275 27.3689,35.3575 25.3649,36.1595 C23.3589,36.9615 21.2729,37.2275 19.1059,36.9585 C16.8089,36.6725 14.7979,35.8715 13.0729,34.5565 C11.3469,33.2425 10.0799,31.5415 9.2729,29.4525 C8.4649,27.3645 8.2159,25.0755 8.5259,22.5845 L9.7879,12.4425 C10.1259,9.7255 10.9529,7.4305 12.2699,5.5575 C13.5869,3.6845 15.2829,2.3285 17.3589,1.4845 C19.4349,0.6425 21.7829,0.3855 24.4029,0.7105 C28.0589,1.1655 30.9459,2.6405 33.0669,5.1385 L27.7749,9.2605 C27.2649,8.6055 26.6489,8.0695 25.9299,7.6515 C25.2099,7.2335 24.4449,6.9725 23.6369,6.8735 C22.4069,6.7195 21.2869,6.8765 20.2769,7.3425 C19.2659,7.8075 18.4419,8.4855 17.8069,9.3755 C17.1699,10.2655 16.7859,11.2435 16.6529,12.3115 L16.2789,15.3195 C18.3679,14.1015 20.6099,13.6415 23.0039,13.9395 C25.1709,14.2095 27.0429,14.9425 28.6179,16.1405" id="Fill-2"></path>
                <polygon id="Fill-4" points="47.3667 4.2571 68.7167 6.9121 67.8957 13.5121 53.1447 11.6771 52.2037 19.2461 64.0427 20.7201 63.2227 27.3191 51.3827 25.8461 49.6197 40.0151 43.0207 39.1941"></polygon>
                <polygon id="Fill-6" points="87.2138 15.472 76.1998 14.101 76.9658 7.939 105.5948 11.5 104.8278 17.662 93.8128 16.292 90.2338 45.067 83.6348 44.245"></polygon>
                <path d="M19.4595,71.1995 C20.6955,71.0245 21.6335,70.4845 22.2725,69.5785 C22.9105,68.6725 23.3025,67.6365 23.4475,66.4715 C23.5915,65.3075 23.4655,64.2085 23.0695,63.1735 C22.6715,62.1385 21.8955,61.3855 20.7385,60.9125 C20.1765,60.6785 19.4425,60.5055 18.5365,60.3915 L10.6755,59.4145 L9.3365,70.1855 L17.1965,71.1645 C18.1345,71.2815 18.8885,71.2935 19.4595,71.1995 L19.4595,71.1995 Z M19.5945,54.2655 C20.7265,54.4065 21.6885,54.5935 22.4825,54.8225 C25.4345,55.6495 27.5365,57.1685 28.7885,59.3765 C30.0415,61.5855 30.4765,64.2265 30.0945,67.2995 C29.7125,70.3725 28.6435,72.8265 26.8875,74.6605 C25.1325,76.4955 22.7225,77.4525 19.6575,77.5305 C18.8315,77.5595 17.8535,77.5035 16.7215,77.3625 L8.5695,76.3485 L7.0965,88.1885 L0.4975,87.3675 L4.8435,52.4305 L19.5945,54.2655 Z" id="Fill-8"></path>
                <polygon id="Fill-10" points="40.7503 56.8977 47.3493 57.7187 43.7703 86.4937 58.8123 88.3637 58.0463 94.5267 36.4043 91.8347"></polygon>
                <polygon id="Fill-12" points="65.1837 94.5764 85.2547 68.6914 70.1157 66.8084 70.8827 60.6454 97.5697 63.9664 97.4677 64.7904 77.4987 90.6384 93.5117 92.6314 92.7387 98.8424 65.0807 95.4014"></polygon>
            </g>
        </g>
    </g>
</svg>