<?xml version="1.0" encoding="UTF-8"?>
<svg width="276px" height="187px" viewBox="0 0 276 187" version="1.1" xmlns="http://www.w3.org/2000/svg" xmlns:xlink="http://www.w3.org/1999/xlink">
    <!-- Generator: Sketch 64 (93537) - https://sketch.com -->
    <title>Group 34</title>
    <desc>Created with Sketch.</desc>
    <defs>
        <polygon id="path-1" points="0 0.86623462 275.067 0.86623462 275.067 187 0 187"></polygon>
    </defs>
    <g id="Page-1" stroke="none" stroke-width="1" fill="none" fill-rule="evenodd">
        <g id="Group-34" transform="translate(0.000000, -1.000000)">
            <g id="Group-3" transform="translate(0.000000, 0.134000)">
                <mask id="mask-2" fill="white">
                    <use xlink:href="#path-1"></use>
                </mask>
                <g id="Clip-2"></g>
                <path d="M224.3513,186.3433 L18.3713,137.2613 C5.5273,134.2003 -2.4037,121.3073 0.6563,108.4633 L21.9183,19.2373 C24.9783,6.3933 37.8723,-1.5387 50.7163,1.5233 L256.6963,50.6053 C269.5403,53.6653 277.4713,66.5593 274.4113,79.4033 L253.1493,168.6283 C250.0893,181.4733 237.1953,189.4043 224.3513,186.3433" id="Fill-1" fill="#0000FF" mask="url(#mask-2)"></path>
            </g>
            <path d="M42.2243,26.1033 C47.3473,25.2913 52.4633,25.2573 57.5713,25.8693 C57.1933,27.7583 56.8133,29.6553 56.4343,31.5583 C52.9033,31.2363 49.3693,31.2253 45.8323,31.5723 C45.3953,33.8753 44.9593,36.1883 44.5233,38.5113 C47.3633,38.1323 50.2023,37.9873 53.0383,38.0513 C52.6583,39.9913 52.2783,41.9373 51.8993,43.8913 C49.0623,43.9103 46.2233,44.1413 43.3813,44.6083 C42.5653,48.9883 41.7473,53.4023 40.9303,57.8513 C39.3453,58.2193 37.7593,58.6633 36.1733,59.1843 C38.1923,47.9413 40.2093,36.9163 42.2243,26.1033" id="Fill-4" fill="#00EDFF"></path>
            <path d="M63.8383,26.9334 C65.4163,27.2794 66.9933,27.6804 68.5693,28.1344 C66.9213,35.9474 65.2713,43.8814 63.6213,51.9414 C67.2183,52.5694 70.8123,53.4904 74.4043,54.6584 C74.0523,56.2994 73.6993,57.9464 73.3463,59.5974 C68.1773,58.0354 63.0033,56.9914 57.8223,56.6054 C59.8293,46.5254 61.8353,36.6364 63.8383,26.9334" id="Fill-6" fill="#00EDFF"></path>
            <path d="M87.4263,53.8113 C89.6713,54.8983 91.9143,56.0583 94.1573,57.2833 C93.8983,52.9203 93.6393,48.5523 93.3803,44.1783 C91.3963,47.2913 89.4123,50.5003 87.4263,53.8113 M94.8073,68.7233 C94.6903,66.6613 94.5723,64.5963 94.4563,62.5323 C91.3223,60.8423 88.1883,59.2763 85.0523,57.8643 C84.1043,59.4723 83.1563,61.1053 82.2073,62.7623 C80.5873,62.0993 78.9663,61.4803 77.3433,60.9083 C81.8903,52.6093 86.4313,44.9113 90.9673,37.7263 C93.3133,39.0163 95.6593,40.3823 98.0053,41.8113 C98.5573,51.7033 99.1093,61.5643 99.6623,71.3943 C98.0443,70.4743 96.4263,69.5823 94.8073,68.7233" id="Fill-8" fill="#00EDFF"></path>
            <path d="M114.1716,57.4041 C111.5516,55.5861 108.9306,53.8081 106.3086,52.0901 C106.6596,50.6611 107.0106,49.2351 107.3606,47.8141 C114.1726,52.3841 120.9816,57.3381 127.7896,62.3541 C127.4396,63.6871 127.0896,65.0241 126.7406,66.3641 C124.1206,64.4631 121.5016,62.5721 118.8816,60.7121 C117.2476,67.1131 115.6126,73.5951 113.9776,80.1621 C112.4066,79.1431 110.8356,78.1391 109.2646,77.1531 C110.9016,70.4831 112.5366,63.9011 114.1716,57.4041" id="Fill-10" fill="#00EDFF"></path>
            <path d="M140.1383,76.1023 C137.5183,74.2133 134.8993,72.3053 132.2793,70.3963 C132.6293,69.0753 132.9783,67.7563 133.3273,66.4413 C140.1353,71.4683 146.9433,76.4703 153.7553,81.1293 C153.4063,82.3973 153.0573,83.6663 152.7093,84.9393 C150.0883,83.1593 147.4673,81.3313 144.8473,79.4723 C143.2173,85.4843 141.5873,91.5553 139.9553,97.6903 C138.3853,96.6283 136.8143,95.5613 135.2443,94.4903 C136.8763,88.2943 138.5073,82.1663 140.1383,76.1023" id="Fill-12" fill="#00EDFF"></path>
            <path d="M159.297,84.8377 C164.725,88.3817 170.156,91.6527 175.591,94.4887 C175.243,95.7387 174.893,96.9917 174.545,98.2457 C170.682,96.2307 166.822,93.9997 162.963,91.6127 C162.54,93.1407 162.117,94.6707 161.694,96.2037 C164.86,98.1507 168.027,99.9977 171.195,101.7107 C170.846,102.9687 170.497,104.2297 170.148,105.4907 C166.98,103.7807 163.813,101.9407 160.647,100.0027 C160.139,101.8507 159.631,103.7027 159.123,105.5607 C162.982,107.9037 166.842,110.1097 170.705,112.1197 C170.356,113.3867 170.008,114.6537 169.659,115.9247 C164.224,113.1027 158.792,109.9007 153.362,106.4837 C155.341,99.1927 157.319,91.9807 159.297,84.8377" id="Fill-14" fill="#00EDFF"></path>
            <path d="M182.5314,97.8601 C184.1284,98.5761 185.7264,99.2481 187.3234,99.8721 C189.6294,106.0391 191.9384,112.0161 194.2484,117.7911 C195.5674,112.9621 196.8864,108.1461 198.2054,103.3401 C199.8054,103.7281 201.4064,104.0581 203.0074,104.3291 C201.0284,111.5901 199.0504,118.8701 197.0704,126.1731 C195.4704,125.8511 193.8704,125.4741 192.2704,125.0451 C189.9604,119.2281 187.6524,113.2131 185.3464,107.0101 C184.0284,111.7781 182.7094,116.5621 181.3904,121.3661 C179.7934,120.7221 178.1964,120.0351 176.5994,119.3091 C178.5774,112.1131 180.5544,104.9651 182.5314,97.8601" id="Fill-16" fill="#00EDFF"></path>
            <path d="M36.911,85.6609 C34.263,86.5979 31.612,87.7519 28.959,89.1409 C29.316,87.0699 29.673,85.0069 30.029,82.9489 C36.923,79.5569 43.8,77.7449 50.665,77.1919 C50.31,79.0439 49.955,80.9019 49.601,82.7669 C46.959,83.0539 44.315,83.5279 41.669,84.2099 C40.008,93.2709 38.345,102.4759 36.682,111.8279 C35.094,112.4589 33.506,113.1669 31.917,113.9579 C33.583,104.3759 35.248,94.9449 36.911,85.6609" id="Fill-18" fill="#00EDFF"></path>
            <path d="M56.2461,77.0135 C57.8271,77.0375 59.4071,77.1245 60.9871,77.2705 C60.1621,81.3745 59.3371,85.5125 58.5111,89.6815 C62.2531,89.8025 65.9921,90.2625 69.7281,91.0085 C70.5511,87.0535 71.3741,83.1275 72.1971,79.2325 C73.7731,79.6315 75.3501,80.0805 76.9261,80.5755 C74.9271,89.8515 72.9271,99.2965 70.9241,108.9185 C69.3461,108.6245 67.7671,108.3815 66.1881,108.1915 C67.0151,104.1355 67.8411,100.1105 68.6681,96.1165 C64.9311,95.4575 61.1921,95.0905 57.4481,95.0665 C56.6201,99.2785 55.7911,103.5225 54.9621,107.8005 C53.3801,107.8875 51.7981,108.0375 50.2141,108.2555 C52.2271,97.6425 54.2371,87.2315 56.2461,77.0135" id="Fill-20" fill="#00EDFF"></path>
            <path d="M84.5713,83.3123 C90.0133,85.4903 95.4493,88.1313 100.8843,91.0763 C100.5333,92.5593 100.1813,94.0463 99.8303,95.5393 C95.9683,93.5103 92.1053,91.6393 88.2393,89.9853 C87.8113,91.8783 87.3853,93.7793 86.9583,95.6873 C90.1303,96.9703 93.3013,98.4023 96.4713,99.9523 C96.1193,101.4663 95.7683,102.9863 95.4163,104.5093 C92.2463,103.0153 89.0753,101.6423 85.9023,100.4213 C85.3893,102.7283 84.8773,105.0443 84.3633,107.3723 C88.2323,108.7483 92.0983,110.3573 95.9633,112.1433 C95.6113,113.6673 95.2603,115.1973 94.9093,116.7313 C89.4703,114.3143 84.0263,112.2553 78.5783,110.7183 C80.5773,101.4183 82.5753,92.2853 84.5713,83.3123" id="Fill-22" fill="#00EDFF"></path>
            <path d="M116.129,126.407 C114.562,124.314 113.522,122.041 113.005,119.572 C112.488,117.106 112.541,114.598 113.159,112.076 C113.776,109.554 114.811,107.64 116.258,106.359 C117.707,105.079 119.473,104.502 121.557,104.633 C123.641,104.761 125.908,105.632 128.356,107.217 C131.174,109.041 133.397,111.237 135.029,113.773 C136.658,116.311 137.583,118.947 137.803,121.704 C136.116,121.114 134.429,120.522 132.742,119.933 C132.627,118.203 132.117,116.613 131.215,115.159 C130.312,113.705 129.009,112.428 127.298,111.34 C124.967,109.854 123.01,109.446 121.433,110.138 C119.857,110.828 118.751,112.459 118.116,115.009 C117.482,117.56 117.589,119.937 118.438,122.116 C119.287,124.295 120.879,126.06 123.214,127.444 C124.925,128.46 126.426,128.91 127.719,128.802 C129.012,128.692 130.086,128.067 130.941,126.925 C132.419,128.3 133.897,129.67 135.375,131.033 C133.978,132.819 132.129,133.78 129.832,133.918 C127.534,134.055 124.975,133.309 122.155,131.669 C119.704,130.244 117.696,128.5 116.129,126.407" id="Fill-24" fill="#00EDFF"></path>
            <path d="M145.2391,143.9031 C143.8931,142.2921 142.9731,140.5461 142.4761,138.6781 C141.9771,136.8121 141.9651,134.9801 142.4311,133.2001 C143.6671,128.4961 144.9021,123.8271 146.1371,119.1911 C147.7341,120.1731 149.3311,121.1411 150.9291,122.0931 C149.6941,126.6961 148.4591,131.3291 147.2241,135.9951 C146.9701,136.9521 146.9821,137.9441 147.2581,138.9661 C147.5341,139.9901 148.0251,140.9441 148.7371,141.8251 C149.4491,142.7071 150.3001,143.4241 151.2941,143.9741 C152.3131,144.5381 153.2811,144.8311 154.1991,144.8561 C155.1191,144.8811 155.9151,144.6461 156.5871,144.1601 C157.2581,143.6721 157.7221,142.9551 157.9741,142.0111 C159.2091,137.4061 160.4431,132.8291 161.6771,128.2781 C163.2731,129.1431 164.8691,129.9841 166.4641,130.7941 C165.2281,135.3421 163.9911,139.9151 162.7541,144.5131 C162.2861,146.2501 161.4471,147.5741 160.2321,148.4751 C159.0181,149.3791 157.5471,149.7981 155.8171,149.7151 C154.0851,149.6321 152.2261,149.0521 150.2381,147.9611 C148.2491,146.8701 146.5831,145.5111 145.2391,143.9031" id="Fill-26" fill="#00EDFF"></path>
            <path d="M175.9459,146.9978 C177.8219,147.7388 179.6979,148.4278 181.5749,149.0558 C182.2459,149.2798 182.7939,149.4008 183.2149,149.4238 C184.1269,149.4908 184.8509,149.2668 185.3879,148.7658 C185.9219,148.2628 186.2889,147.6428 186.4889,146.9088 C186.6879,146.1768 186.6819,145.4508 186.4759,144.7328 C186.2709,144.0158 185.7679,143.4298 184.9639,142.9578 C184.5749,142.7268 184.0529,142.5058 183.4059,142.2898 C181.5289,141.6678 179.6529,140.9828 177.7769,140.2438 C177.1669,142.4908 176.5559,144.7418 175.9459,146.9978 M182.2699,161.6118 C181.5739,158.7028 180.8759,155.7718 180.1799,152.8188 C178.4199,152.2198 176.6589,151.5688 174.8989,150.8738 C174.2279,153.3588 173.5569,155.8498 172.8859,158.3468 C171.3109,157.7248 169.7369,157.0678 168.1629,156.3808 C170.1429,149.0048 172.1219,141.6878 174.1009,134.4238 C177.6189,135.9748 181.1389,137.3478 184.6619,138.4988 C185.4729,138.7648 186.1569,139.0208 186.7149,139.2768 C188.7939,140.2108 190.2019,141.3938 190.9359,142.9288 C191.6679,144.4608 191.7749,146.1848 191.2549,148.1268 C190.8359,149.6828 190.1259,150.9508 189.1259,151.9178 C188.1249,152.8848 186.8519,153.4778 185.3069,153.6558 C186.0799,156.8108 186.8529,159.9368 187.6259,163.0358 C185.8399,162.6198 184.0549,162.1428 182.2699,161.6118" id="Fill-28" fill="#00EDFF"></path>
            <path d="M197.9169,141.7029 C199.5419,141.9459 201.1679,142.1319 202.7939,142.2539 C203.2569,148.5239 203.7199,154.7659 204.1829,160.9759 C207.9399,154.7869 211.6979,148.4319 215.4579,141.8619 C217.0879,141.6299 218.7179,141.3229 220.3499,140.9389 C215.8029,149.2549 211.2589,157.2239 206.7179,164.9379 C204.3579,165.0489 201.9979,165.0189 199.6399,164.8639 C199.0649,157.1879 198.4909,149.4679 197.9169,141.7029" id="Fill-30" fill="#00EDFF"></path>
            <path d="M225.7721,139.3679 C231.2551,137.4779 236.7471,134.6539 242.2511,130.7339 C241.9001,132.1859 241.5501,133.6379 241.1991,135.0879 C237.2881,137.8149 233.3831,139.9949 229.4831,141.6829 C229.0591,143.3789 228.6341,145.0729 228.2091,146.7669 C231.4081,145.4289 234.6101,143.7639 237.8161,141.7419 C237.4651,143.1799 237.1151,144.6169 236.7641,146.0539 C233.5591,148.0319 230.3571,149.6549 227.1591,150.9549 C226.6491,152.9889 226.1381,155.0219 225.6281,157.0549 C229.5261,155.5339 233.4291,153.5429 237.3381,151.0209 C236.9871,152.4659 236.6371,153.9089 236.2861,155.3509 C230.7871,158.8239 225.2991,161.2569 219.8191,162.8109 C221.8031,155.0019 223.7871,147.1899 225.7721,139.3679" id="Fill-32" fill="#00EDFF"></path>
        </g>
    </g>
</svg>