<?xml version="1.0" encoding="UTF-8"?>
<svg width="15px" height="31px" viewBox="0 0 15 31" version="1.1" xmlns="http://www.w3.org/2000/svg" xmlns:xlink="http://www.w3.org/1999/xlink">
    <!-- Generator: Sketch 64 (93537) - https://sketch.com -->
    <title>faq</title>
    <desc>Created with Sketch.</desc>
    <g id="Page-1" stroke="none" stroke-width="1" fill="none" fill-rule="evenodd">
        <g id="faq" transform="translate(0.000000, -0.025000)" fill="#000000" fill-rule="nonzero">
            <path d="M-6.96,21.025 L-6.96,16.645 L-3.3,16.645 L-3.3,14.605 L-6.96,14.605 L-6.96,12.265 L-2.4,12.265 L-2.4,10.225 L-9,10.225 L-9,21.025 L-6.96,21.025 Z M1.15,21.025 L1.84,18.775 L5.905,18.775 L6.595,21.025 L8.695,21.025 L5.395,10.225 L2.35,10.225 L-0.95,21.025 L1.15,21.025 Z M5.32,16.87 L2.41,16.87 L3.85,12.13 L5.32,16.87 Z M19.19,21.25 L20.435,19.99 L19.625,19.18 C20.285,18.23 20.615,17.045 20.615,15.625 C20.615,14.505 20.4025,13.5225 19.9775,12.6775 C19.5525,11.8325 18.945,11.175 18.155,10.705 C17.365,10.235 16.44,10 15.38,10 C14.32,10 13.395,10.235 12.605,10.705 C11.815,11.175 11.2075,11.8325 10.7825,12.6775 C10.3575,13.5225 10.145,14.505 10.145,15.625 C10.145,16.745 10.3575,17.7275 10.7825,18.5725 C11.2075,19.4175 11.815,20.075 12.605,20.545 C13.395,21.015 14.32,21.25 15.38,21.25 C16.52,21.25 17.515,20.975 18.365,20.425 L18.365,20.425 L19.19,21.25 Z M15.485,19.33 C14.435,19.33 13.6425,19.005 13.1075,18.355 C12.5725,17.705 12.305,16.795 12.305,15.625 C12.305,14.465 12.5675,13.555 13.0925,12.895 C13.6175,12.235 14.38,11.91 15.38,11.92 C16.39,11.93 17.155,12.2625 17.675,12.9175 C18.195,13.5725 18.455,14.475 18.455,15.625 C18.455,16.405 18.335,17.08 18.095,17.65 L18.095,17.65 L17.3,16.855 L16.04,18.115 L16.91,18.985 C16.51,19.215 16.035,19.33 15.485,19.33 Z" id="FAQ" transform="translate(5.807500, 15.625000) rotate(-90.000000) translate(-5.807500, -15.625000) "></path>
            <polygon id="Decoration" transform="translate(14.117500, 15.642500) rotate(-90.000000) translate(-14.117500, -15.642500) " points="-0.8825 15.2704147 -0.8825 16.0145853 29.1175 16.0145853 29.1175 15.2704147"></polygon>
        </g>
    </g>
</svg>