<?xml version="1.0" encoding="UTF-8"?>
<svg width="300px" height="300px" viewBox="0 0 300 300" version="1.1" xmlns="http://www.w3.org/2000/svg" xmlns:xlink="http://www.w3.org/1999/xlink">
    <!-- Generator: Sketch 64 (93537) - https://sketch.com -->
    <title>Group 68</title>
    <desc>Created with Sketch.</desc>
    <defs>
        <polygon id="path-1" points="0.231833832 0.0439737426 24.8698225 0.0439737426 24.8698225 21.245503 0.231833832 21.245503"></polygon>
    </defs>
    <g id="Page-1" stroke="none" stroke-width="1" fill="none" fill-rule="evenodd">
        <g id="Home" transform="translate(-288.000000, -695.000000)">
            <g id="Group-68" transform="translate(288.000000, 695.000000)">
                <path d="M67.5750888,52.6100592 C65.5372189,52.6952663 63.7283432,52.0597633 62.1520118,50.7071006 L63.4567456,49.2798817 C64.7490533,50.2721893 66.1993491,50.7213018 67.8023077,50.6254438 C69.4052663,50.5313609 70.9514201,49.908284 72.4389941,48.7526627 C73.962071,47.5721893 74.9206509,46.2621302 75.3111834,44.8207101 C75.7052663,43.3810651 75.4460947,42.0727811 74.5336686,40.895858 C73.7810059,39.9266272 72.9200592,39.4313609 71.9472781,39.4100592 C70.974497,39.3905325 69.9307101,39.5893491 68.8159172,40.0100592 L63.0324852,42.252071 C59.8301183,43.5177515 57.3910651,43.0686391 55.7117751,40.9047337 C54.9484615,39.9195266 54.5366272,38.8455621 54.4815976,37.6846154 C54.426568,36.5218935 54.7088166,35.3591716 55.3318935,34.1982249 C55.9549704,33.0372781 56.8638462,31.9934911 58.0567456,31.0668639 C59.9082249,29.6307692 61.8431361,28.9189349 63.8614793,28.9329278 C65.8815976,28.9455621 67.6727219,29.6751479 69.2384024,31.1236686 L67.9034911,32.6147929 C66.7354438,31.4698225 65.3490533,30.8964497 63.7425444,30.8964497 C62.1360355,30.8964497 60.6147337,31.4360947 59.1821893,32.5207101 C58.2839645,33.216568 57.605858,33.9940828 57.1460947,34.847929 C56.6863314,35.7035503 56.4626627,36.5485207 56.4733136,37.3846154 C56.4857396,38.2224852 56.7449112,38.9680473 57.2561538,39.6266272 C57.9679882,40.5426036 58.8200592,40.9739645 59.8194675,40.9207101 C60.8153254,40.8674556 61.9638462,40.5887574 63.2597041,40.0792899 L67.8892899,38.2775148 C68.7768639,37.9224852 69.6484615,37.6615385 70.5023077,37.4964497 C71.3597041,37.3331361 72.2827811,37.3899408 73.2786391,37.6721893 C74.2727219,37.9526627 75.1851479,38.6307692 76.0176923,39.7029586 C76.8626627,40.7928994 77.3188757,41.9627219 77.3881065,43.2106509 C77.4555621,44.460355 77.1555621,45.6923077 76.4881065,46.9011834 C75.822426,48.1118343 74.8389941,49.2213018 73.5395858,50.2260355 C71.6046746,51.7295858 69.6147337,52.5230769 67.5750888,52.6100592" id="Fill-1" fill="#000000"></path>
                <path d="M85.2502367,40.2690533 C83.3472781,40.1181657 81.5969822,39.4187574 80.0011243,38.1726036 C78.4070414,36.9282249 77.0313018,35.2223077 75.8774556,33.0584024 C74.7236095,30.8980473 74.0739053,28.8051479 73.926568,26.7868047 C73.7810059,24.7684615 74.1750888,22.925858 75.1105917,21.2607692 C76.0460947,19.5956805 77.526568,18.221716 79.5555621,17.1406509 C81.9324852,15.8731953 84.2153254,15.4436095 86.4040828,15.8483432 C88.5963905,16.2584024 90.5472781,17.3927219 92.262071,19.2566272 L90.7389941,20.5897633 C89.3171006,19.0418343 87.7212426,18.0956805 85.949645,17.7477515 C84.1762722,17.4051479 82.3336686,17.742426 80.4218343,18.7631361 C77.9295266,20.0927219 76.4792308,21.9406509 76.0656213,24.3069231 C75.653787,26.6731953 76.1792308,29.2773373 77.645503,32.1157988 C79.1206509,34.9276331 80.9721302,36.8199408 83.201716,37.7891716 C85.4313018,38.7566272 87.7922485,38.5773373 90.2827811,37.2477515 C92.2159172,36.2181657 93.522426,34.8690533 94.2094083,33.2004142 C94.8946154,31.5317751 94.9904734,29.6749704 94.4952071,27.6317751 L96.4656213,27.1400592 C97.0585207,29.6004142 96.9165089,31.8548521 96.0342604,33.8998225 C95.153787,35.946568 93.5242012,37.6027811 91.1490533,38.8702367 C89.1218343,39.9530769 87.1549704,40.4181657 85.2502367,40.2690533" id="Fill-3" fill="#000000"></path>
                <path d="M108.24568,19.1526036 C108.72497,18.9963905 109.168757,18.8046746 109.577041,18.5774556 C110.659882,17.945503 111.368166,17.0632544 111.698343,15.9307101 C112.028521,14.7963905 111.996568,13.626568 111.60071,12.4176923 C111.197751,11.1928402 110.52497,10.2147337 109.584142,9.48692308 C108.643314,8.75911243 107.551598,8.46976331 106.310769,8.62242604 C105.847456,8.68455621 105.377041,8.79284024 104.897751,8.94905325 L98.2515976,11.1289349 L101.599527,21.3342604 L108.24568,19.1526036 Z M117.093018,27.8987574 L109.974675,20.5212426 L102.172899,23.0810059 L105.048639,31.8484615 L103.239763,32.4431361 L95.867574,9.97686391 L104.356331,7.1916568 C104.855148,7.0283432 105.368166,6.90763314 105.895385,6.82597633 C107.647456,6.54905325 109.211361,6.87213018 110.58355,7.79343195 C111.957515,8.71295858 112.932071,10.0460947 113.503669,11.7928402 C113.981183,13.2502367 114.057515,14.6597041 113.732663,16.0212426 C113.407811,17.3845562 112.704852,18.5206509 111.618462,19.4277515 L119.184142,27.2117751 L117.093018,27.8987574 Z" id="Fill-5" fill="#000000"></path>
                <path d="M137.703905,19.937929 C138.916331,17.837929 139.294438,15.2195858 138.84355,12.0757988 C138.389112,8.93556213 137.28497,6.53378698 135.529349,4.87402367 C133.775503,3.21248521 131.497988,2.5752071 128.700355,2.95686391 C125.883195,3.36159763 123.880828,4.62550296 122.693254,6.74147929 C121.50568,8.86100592 121.145325,11.5343787 121.612189,14.7633728 C122.055976,17.8397041 123.153018,20.1935503 124.903314,21.8195858 C126.651834,23.4473964 128.916923,24.0722485 131.693254,23.6923669 C134.487337,23.2894083 136.491479,22.037929 137.703905,19.937929 M125.932899,24.8231361 C124.19503,24.0349704 122.785562,22.7852663 121.708047,21.0704734 C120.632308,19.3556805 119.916923,17.285858 119.567219,14.8592308 C119.217515,12.4308284 119.316923,10.2438462 119.865444,8.29473373 C120.413964,6.34739645 121.409822,4.74798817 122.856568,3.50005917 C124.301538,2.25213018 126.161893,1.4639645 128.435858,1.13556213 C130.732899,0.805384615 132.753018,1.03260355 134.490888,1.82076923 C136.232308,2.60893491 137.64,3.8604142 138.71574,5.57343195 C139.79503,7.28822485 140.506864,9.35804734 140.856568,11.7846746 C141.208047,14.2113018 141.108639,16.4000592 140.560118,18.3473964 C140.013373,20.2965089 139.01574,21.8959172 137.570769,23.1438462 C136.124024,24.3917751 134.253018,25.181716 131.955976,25.5136686 C129.680237,25.842071 127.67432,25.6113018 125.932899,24.8231361" id="Fill-7" fill="#000000"></path>
                <polygon id="Fill-9" fill="#000000" points="146.498166 0.000532544379 148.401124 0.0324852071 148.04787 21.8348521 159.541953 22.0194675 159.51 23.8585207 146.112959 23.6419527"></polygon>
                <polygon id="Fill-11" fill="#000000" points="166.095799 0.823846154 167.981006 1.09721893 164.856746 22.6794675 176.231893 24.3250296 175.969172 26.1463314 162.708817 24.2256213"></polygon>
                <path d="M194.082071,29.4447337 C196.180296,29.8157396 197.989172,29.3471006 199.510473,28.0388166 C201.028225,26.7305325 202.238876,24.8080473 203.137101,22.2678107 C204.035325,19.7293491 204.303373,17.4802367 203.943018,15.5151479 C203.580888,13.5536095 202.47142,12.0465089 200.614615,10.9938462 C199.934734,10.6157396 199.059586,10.235858 197.985621,9.85597633 L193.219349,8.16781065 L186.555444,26.9897041 L191.323491,28.6760947 C192.418757,29.0648521 193.336509,29.3204734 194.082071,29.4447337 L194.082071,29.4447337 Z M198.599822,8.11988166 C199.815799,8.5512426 200.769053,8.94710059 201.45426,9.30568047 C203.751302,10.4914793 205.185621,12.3163314 205.751893,14.7802367 C206.319941,17.2459172 206.078521,19.9654438 205.025858,22.9370414 C203.966095,25.9299408 202.444793,28.1950296 200.460178,29.7340828 C198.475562,31.2731361 196.212249,31.7897041 193.675562,31.2855621 C192.935325,31.1417751 191.948343,30.8488757 190.711065,30.4104142 L184.05426,28.0547929 L191.943018,5.76426036 L198.599822,8.11988166 Z" id="Fill-13" fill="#000000"></path>
                <path d="M220.173728,39.7904734 C222.421065,38.8798225 224.332899,37.0460947 225.90568,34.2892899 C227.480237,31.5342604 228.085562,28.9602959 227.721657,26.5727219 C227.359527,24.1833728 225.95716,22.2804142 223.514556,20.8602959 C221.041775,19.4490533 218.687929,19.2147337 216.449467,20.153787 C214.211006,21.0946154 212.283195,22.9815976 210.666036,25.8147337 C209.123432,28.5129586 208.541183,31.0425444 208.921065,33.401716 C209.300947,35.7626627 210.701538,37.6478698 213.124615,39.0555621 C215.57787,40.4561538 217.926391,40.7011243 220.173728,39.7904734 M207.887929,36.4052663 C207.000355,34.7153254 206.659527,32.862071 206.863669,30.8472781 C207.067811,28.8342604 207.779645,26.7626627 208.993846,24.6324852 C210.211598,22.5040828 211.631716,20.8389941 213.263077,19.6389941 C214.892663,18.4407692 216.662485,17.7928402 218.570769,17.6969822 C220.479053,17.6011243 222.429941,18.1230178 224.426982,19.2644379 C226.441775,20.4147337 227.893846,21.8366272 228.78142,23.526568 C229.667219,25.218284 230.008047,27.0715385 229.80568,29.0845562 C229.601538,31.0993491 228.889704,33.1709467 227.675503,35.2993491 C226.457751,37.4295266 225.034083,39.0928402 223.404497,40.2928402 C221.773136,41.4928402 220.005089,42.1389941 218.09858,42.2348521 C216.190296,42.3324852 214.226982,41.8034911 212.213964,40.6514201 C210.218698,39.5135503 208.775503,38.0969822 207.887929,36.4052663" id="Fill-15" fill="#000000"></path>
                <polygon id="Fill-17" fill="#000000" points="237.949349 27.7164497 239.429822 29.015858 230.369467 48.12 248.110296 36.6507692 249.613846 37.9732544 240.555266 57.0773964 258.320947 45.6294675 259.799645 46.9288757 239.080118 60.1963314 237.624497 58.9164497 246.640473 39.863787 228.89432 51.2407101 227.440473 49.9608284"></polygon>
                <polygon id="Fill-19" fill="#000000" points="264.394615 52.7504734 265.541361 54.2717751 257.601124 77.405503 273.783373 65.2084615 274.930118 66.7297633 256.046095 80.9611243 254.899349 79.4398225 262.866213 56.2883432 246.657337 68.5031361 245.510592 66.9836095"></polygon>
                <polygon id="Fill-21" fill="#000000" points="273.084852 88.7648521 274.673609 88.1382249 282.175385 107.210414 285.400828 99.7991716 286.817396 100.441775 282.500237 110.363077 272.57716 106.044142 273.17716 104.609822 280.586627 107.833491"></polygon>
                <path d="M275.952071,129.74929 C276.942604,127.963491 278.426627,126.751065 280.402367,126.112012 L280.942012,127.967041 C279.42071,128.556391 278.281065,129.559349 277.526627,130.975917 C276.770414,132.39426 276.498817,134.038047 276.708284,135.910828 C276.921302,137.824438 277.542604,139.326213 278.566864,140.410828 C279.591124,141.495444 280.842604,141.956982 282.323077,141.790118 C283.540828,141.655207 284.414201,141.175917 284.93787,140.359349 C285.461538,139.541006 285.836095,138.545148 286.057988,137.375325 L287.15858,131.268817 C287.749704,127.876509 289.402367,126.02858 292.121893,125.723254 C293.364497,125.584793 294.493491,125.79426 295.515976,126.353432 C296.534911,126.909053 297.378107,127.757574 298.045562,128.895444 C298.713018,130.031538 299.131953,131.350473 299.298817,132.852249 C299.559763,135.181243 299.156805,137.201361 298.095266,138.919704 C297.030178,140.634497 295.473373,141.783018 293.424852,142.365266 L292.846154,140.448107 C294.431361,140.050473 295.643787,139.16645 296.479882,137.79426 C297.319527,136.422071 297.649704,134.843964 297.470414,133.056391 C297.344379,131.925621 297.035503,130.942189 296.547337,130.10432 C296.055621,129.268225 295.450296,128.634497 294.731361,128.208462 C294.010651,127.782426 293.236686,127.615562 292.411243,127.709645 C291.257396,127.837456 290.444379,128.341598 289.968639,129.220296 C289.494675,130.098994 289.13787,131.224438 288.892899,132.596627 L288.019527,137.485385 C287.861538,138.429763 287.628994,139.308462 287.323669,140.12503 C287.018343,140.941598 286.487574,141.699586 285.729586,142.400769 C284.969822,143.101953 283.915385,143.529763 282.568047,143.680651 C281.195858,143.835089 279.960355,143.61497 278.859763,143.022071 C277.757396,142.429172 276.862722,141.532722 276.177515,140.330947 C275.492308,139.129172 275.059172,137.712604 274.876331,136.081243 C274.602959,133.643964 274.961538,131.533314 275.952071,129.74929" id="Fill-23" fill="#000000"></path>
                <g id="Group-27" transform="translate(275.147929, 146.914793)">
                    <mask id="mask-2" fill="white">
                        <use xlink:href="#path-1"></use>
                    </mask>
                    <g id="Clip-26"></g>
                    <path d="M2.1252071,4.34076923 C3.2435503,2.79284024 4.74887574,1.66029586 6.64295858,0.944911243 C8.53526627,0.229526627 10.7062722,-0.0598224852 13.1542012,0.0768639053 C15.6021302,0.215325444 17.7269822,0.746094675 19.5287574,1.6691716 C21.3287574,2.59224852 22.6973964,3.88633136 23.6346746,5.55142012 C24.5719527,7.21473373 24.9766864,9.19402367 24.8471006,11.4892899 C24.696213,14.1786391 23.8778698,16.3531953 22.392071,18.0129586 C20.904497,19.6727219 18.9198817,20.7502367 16.4382249,21.245503 L16.0885207,19.253787 C18.1494675,18.8437278 19.7897041,17.970355 21.0056805,16.6354438 C22.2198817,15.3005325 22.8891124,13.5502367 23.0115976,11.3881065 C23.1678107,8.56739645 22.3459172,6.36621302 20.5370414,4.78455621 C18.7299408,3.20289941 16.2305325,2.30112426 13.0405917,2.07745562 C9.87372781,1.87686391 7.29621302,2.47686391 5.30982249,3.87923077 C3.32343195,5.27982249 2.24946746,7.39047337 2.09147929,10.2111834 C1.96899408,12.3963905 2.44295858,14.214142 3.51159763,15.6679882 C4.58201183,17.1200592 6.11751479,18.1656213 8.1216568,18.8046746 L7.51810651,20.7449112 C5.10568047,19.974497 3.25420118,18.6804142 1.96366864,16.8644379 C0.674911243,15.0484615 0.103313609,12.7957988 0.255976331,10.1064497 C0.38556213,7.81118343 1.00686391,5.89047337 2.1252071,4.34076923" id="Fill-25" fill="#000000" mask="url(#mask-2)"></path>
                </g>
                <path d="M283.395976,181.845621 C283.284142,182.335562 283.216686,182.814852 283.198935,183.283491 C283.177633,184.536746 283.566391,185.598284 284.363432,186.468107 C285.160473,187.339704 286.177633,187.918402 287.416686,188.205976 C288.675266,188.497101 289.85929,188.429645 290.970533,188.003609 C292.08,187.575799 292.891243,186.791183 293.40426,185.651538 C293.592426,185.221953 293.743314,184.763964 293.858698,184.272249 L295.43858,177.459231 L284.979408,175.030828 L283.395976,181.845621 Z M271.332071,184.877574 L281.331479,182.61426 L283.186509,174.615444 L274.19716,172.529645 L274.628521,170.674615 L297.661065,176.019586 L295.640947,184.721361 C295.522012,185.232604 295.360473,185.733195 295.158107,186.226686 C294.48355,187.868698 293.39716,189.038521 291.898935,189.734379 C290.398935,190.432012 288.755148,190.572249 286.964024,190.158639 C285.469349,189.81071 284.22497,189.14503 283.229112,188.161598 C282.233254,187.176391 281.626154,185.985266 281.411361,184.588225 L270.83503,187.021953 L271.332071,184.877574 Z" id="Fill-28" fill="#000000"></path>
                <path d="M267.419645,206.680473 C268.584142,208.805325 270.627337,210.489941 273.549231,211.73432 C276.469349,212.976923 279.094793,213.280473 281.425562,212.64142 C283.754556,212.004142 285.48355,210.390533 286.608994,207.800592 C287.723787,205.180473 287.684734,202.814201 286.490059,200.7 C285.295385,198.585799 283.198935,196.888757 280.19716,195.612426 C277.337396,194.394675 274.756331,194.110651 272.457515,194.76213 C270.156923,195.411834 268.447456,197.023669 267.330888,199.594083 C266.22497,202.192899 266.255148,204.555621 267.419645,206.680473 M269.354556,194.084024 C270.932663,193.006509 272.730888,192.450888 274.756331,192.422485 C276.778225,192.390533 278.920828,192.855621 281.175266,193.815976 C283.433254,194.776331 285.251006,195.995858 286.630296,197.476331 C288.013136,198.95503 288.859882,200.63787 289.177633,202.521302 C289.493609,204.406509 289.202485,206.405325 288.302485,208.519527 C287.391834,210.65503 286.149231,212.263314 284.572899,213.339053 C282.994793,214.416568 281.194793,214.972189 279.171124,215.000592 C277.14568,215.032544 275.006627,214.567456 272.750414,213.607101 C270.494201,212.646746 268.67645,211.427219 267.29716,209.946746 C265.91432,208.468047 265.067574,206.785207 264.749822,204.901775 C264.432071,203.018343 264.728521,201.008876 265.639172,198.873373 C266.539172,196.757396 267.77645,195.161538 269.354556,194.084024" id="Fill-30" fill="#000000"></path>
                <polygon id="Fill-32" fill="#000000" points="279.90284 224.49426 278.891006 226.106095 260.422367 214.510828 254.310533 224.243964 252.753728 223.267633 259.879172 211.919112"></polygon>
                <polygon id="Fill-34" fill="#000000" points="268.938284 240.904083 267.722308 242.370355 250.934734 228.453195 243.599822 237.302308 242.18503 236.128935 250.735917 225.81355"></polygon>
                <path d="M229.969882,249.862899 C228.563964,251.462308 228.02432,253.251657 228.354497,255.230947 C228.682899,257.210237 229.700059,259.241006 231.404201,261.326805 C233.106568,263.412604 234.888817,264.81142 236.756272,265.519704 C238.621953,266.229763 240.485858,266.064675 242.349763,265.022663 C243.026095,264.639231 243.805385,264.088935 244.687633,263.368225 L248.603609,260.171183 L235.976982,244.70432 L232.059231,247.903136 C231.161006,248.638047 230.463373,249.291302 229.969882,249.862899 L229.969882,249.862899 Z M245.850355,264.793669 C244.849172,265.610237 244.018402,266.219112 243.354497,266.618521 C241.149763,267.967633 238.845621,268.242781 236.443846,267.44929 C234.043846,266.654024 231.846213,265.036864 229.852722,262.59426 C227.843254,260.133905 226.696509,257.659349 226.412485,255.161716 C226.128462,252.667633 226.859822,250.46645 228.608343,248.558166 C229.116036,248.002544 229.877574,247.310237 230.894734,246.479467 L236.36574,242.013195 L251.317811,260.329172 L245.850355,264.793669 Z" id="Fill-36" fill="#000000"></path>
                <path d="M207.572485,266.82568 C207.187278,269.220355 207.764201,271.803195 209.306805,274.577751 C210.849408,277.354083 212.734615,279.205562 214.964201,280.132189 C217.195562,281.058817 219.551183,280.845799 222.031065,279.494911 C224.518047,278.110296 225.939941,276.219763 226.296746,273.816213 C226.651775,271.416213 226.037574,268.787219 224.454142,265.938107 C222.943491,263.220355 221.081361,261.411479 218.867751,260.513254 C216.652367,259.61503 214.316272,259.835148 211.854142,261.17716 C209.384911,262.551124 207.959467,264.432781 207.572485,266.82568 M216.835207,258.072426 C218.741716,258.191361 220.502663,258.860592 222.118047,260.078343 C223.735207,261.296095 225.139349,262.97716 226.328698,265.121538 C227.519822,267.264142 228.206805,269.344615 228.38787,271.361183 C228.56716,273.374201 228.20503,275.223905 227.297929,276.90497 C226.392604,278.586036 224.931657,279.984852 222.922189,281.10142 C220.89497,282.228639 218.926331,282.732781 217.019822,282.615621 C215.115089,282.496686 213.354142,281.829231 211.736982,280.611479 C210.121598,279.391953 208.717456,277.710888 207.528107,275.568284 C206.336982,273.423905 205.65,271.343432 205.468935,269.328639 C205.28787,267.312071 205.651775,265.462367 206.558876,263.783077 C207.464201,262.102012 208.934024,260.69787 210.961243,259.570651 C212.97071,258.454083 214.930473,257.955266 216.835207,258.072426" id="Fill-38" fill="#000000"></path>
                <polygon id="Fill-40" fill="#000000" points="208.67503 288.297337 206.793373 288.884911 195.17858 271.218639 195.762604 292.334024 193.848994 292.932249 182.232426 275.265976 182.784497 296.393787 180.90284 296.983136 180.334793 272.384911 182.184497 271.807988 193.779763 289.410355 193.279172 268.337574 195.128876 267.758876"></polygon>
                <polygon id="Fill-42" fill="#000000" points="173.463373 297.876923 171.567515 298.061538 155.971065 279.225444 157.937929 299.392899 156.042071 299.577515 153.746805 276.042604 155.640888 275.859763 171.242663 294.729586 169.272249 274.528402 171.166331 274.343787"></polygon>
                <polygon id="Fill-44" fill="#000000" points="138.243018 286.536036 137.953669 288.218876 117.759586 284.73426 122.419349 291.337811 121.134142 292.214734 114.896272 283.374497 123.736509 277.134852 124.652485 278.391657 118.05071 283.05142"></polygon>
                <path d="M101.727515,267.716805 C102.737574,269.490178 103.005621,271.387811 102.524556,273.409704 L100.657101,272.905562 C100.94645,271.300828 100.678402,269.807929 99.858284,268.425089 C99.0399408,267.044024 97.7760355,265.957633 96.0683432,265.164142 C94.3215976,264.352899 92.7186391,264.102604 91.2576923,264.41503 C89.7967456,264.72568 88.7529586,265.558225 88.1281065,266.909112 C87.6115385,268.020355 87.5653846,269.012663 87.9949704,269.887811 C88.4210059,270.761183 89.0778107,271.597278 89.9618343,272.39432 L94.6073964,276.505562 C97.2008876,278.770651 97.9198225,281.144024 96.7677515,283.627456 C96.2423077,284.76 95.4772189,285.617396 94.4707101,286.199645 C93.4642012,286.781893 92.3014793,287.062367 90.9825444,287.04284 C89.6653846,287.021538 88.3215976,286.693136 86.9511834,286.057633 C84.8263314,285.070651 83.3068047,283.678935 82.3908284,281.878935 C81.4784024,280.078935 81.3044379,278.151124 81.8707101,276.097278 L83.8109467,276.599645 C83.3281065,278.161775 83.454142,279.65645 84.1908284,281.083669 C84.9275148,282.512663 86.106213,283.61503 87.7251479,284.390769 C88.758284,284.870059 89.7594675,285.116805 90.7304734,285.132781 C91.6997041,285.148757 92.5535503,284.958817 93.2920118,284.564734 C94.0304734,284.172426 94.5736686,283.597278 94.9233728,282.84284 C95.4115385,281.790178 95.4026627,280.833373 94.8985207,279.970651 C94.3943787,279.109704 93.6186391,278.21858 92.5730769,277.299053 L88.8488166,274.013254 C88.1245562,273.388402 87.4926036,272.733373 86.9547337,272.048166 C86.4150888,271.364734 86.0423077,270.514438 85.8381657,269.502604 C85.6322485,268.490769 85.8133136,267.368876 86.3849112,266.135148 C86.9671598,264.885444 87.7961538,263.94284 88.8754438,263.309112 C89.9529586,262.675385 91.1849112,262.37716 92.5659763,262.416213 C93.9470414,262.453491 95.3849112,262.817396 96.8742604,263.509704 C99.0985207,264.54284 100.71568,265.945207 101.727515,267.716805" id="Fill-46" fill="#000000"></path>
                <path d="M82.6897633,257.688107 C83.43,259.447278 83.6128402,261.323609 83.2365089,263.311775 C82.8601775,265.301716 81.9761538,267.304083 80.5826627,269.322426 C79.1891716,271.338994 77.6288166,272.878047 75.9033728,273.932485 C74.1761538,274.988698 72.3584024,275.482189 70.4483432,275.414734 C68.5400592,275.347278 66.6406509,274.662071 64.7501183,273.355562 C62.5329586,271.825385 61.1039645,269.993432 60.4613609,267.859704 C59.8187574,265.725976 59.934142,263.471538 60.8039645,261.09284 L62.6856213,261.834852 C61.9613609,263.808817 61.8530769,265.662071 62.3589941,267.394615 C62.8649112,269.12716 64.0098817,270.609408 65.7921302,271.843136 C68.117574,273.446095 70.4252663,273.889882 72.7187574,273.170947 C75.0104734,272.450237 77.082071,270.790473 78.9353254,268.184556 C80.7566272,265.583964 81.5856213,263.070355 81.425858,260.645503 C81.2643195,258.220651 80.021716,256.204083 77.6962722,254.601124 C75.8962722,253.356746 74.0962722,252.811775 72.2980473,252.967988 C70.5033728,253.124201 68.8098817,253.88929 67.2193491,255.26858 L65.8773373,253.741953 C67.794497,252.08574 69.8625444,251.178639 72.0850296,251.024201 C74.3075148,250.867988 76.5264497,251.556746 78.7418343,253.086923 C80.634142,254.393432 81.9495266,255.92716 82.6897633,257.688107" id="Fill-48" fill="#000000"></path>
                <path d="M53.3547337,246.943669 C52.9961538,246.592189 52.6198225,246.285089 52.2310651,246.024142 C51.1730769,245.354911 50.0636095,245.133018 48.9026627,245.360237 C47.7452663,245.589231 46.7210059,246.157278 45.8316568,247.062604 C44.9263314,247.98568 44.3689349,249.031243 44.154142,250.20284 C43.9411243,251.372663 44.189645,252.473254 44.8943787,253.504615 C45.162426,253.888047 45.4766272,254.257278 45.8352071,254.608757 L50.8286982,259.508166 L58.3482249,251.843077 L53.3547337,246.943669 Z M57.0488166,235.066154 L53.7736686,244.779763 L59.6352071,250.529467 L66.0985207,243.941893 L67.4565089,245.27503 L50.8997041,262.154911 L44.5233728,255.901065 C44.1470414,255.531834 43.8044379,255.132426 43.4884615,254.70284 C42.4393491,253.272071 42.006213,251.736568 42.1908284,250.092781 C42.3754438,248.450769 43.1121302,246.973846 44.4008876,245.660237 C45.4748521,244.56497 46.6908284,243.849586 48.0505917,243.510533 C49.4085799,243.173254 50.7399408,243.277988 52.0482249,243.821183 L55.4760355,233.52355 L57.0488166,235.066154 Z" id="Fill-50" fill="#000000"></path>
                <path d="M40.4815385,220.460414 C38.0602367,220.353905 35.5608284,221.229053 32.9815385,223.082308 C30.4040237,224.935562 28.7850888,227.023136 28.1229586,229.346805 C27.4608284,231.668698 27.9454438,233.983491 29.5750296,236.291183 C31.2383432,238.602426 33.2815385,239.795325 35.7099408,239.869882 C38.136568,239.944438 40.6732544,239.030237 43.3235503,237.125503 C45.8460355,235.309527 47.4259172,233.250355 48.0631953,230.946213 C48.6969231,228.642071 48.2069822,226.34503 46.5862722,224.058639 C44.9389349,221.765148 42.9028402,220.566923 40.4815385,220.460414 M50.2501775,228.643846 C50.3549112,230.553905 49.8951479,232.378757 48.8726627,234.125503 C47.8484024,235.874024 46.3430769,237.461006 44.3513609,238.89355 C42.3614201,240.32432 40.3732544,241.247396 38.3921893,241.659231 C36.4111243,242.074615 34.5330178,241.929053 32.7578698,241.222544 C30.9827219,240.516036 29.424142,239.230828 28.0839053,237.363373 C26.7294675,235.479941 25.9998817,233.584083 25.8951479,231.675799 C25.7921893,229.76929 26.2501775,227.942663 27.2744379,226.195917 C28.2969231,224.449172 29.8022485,222.860414 31.7921893,221.429645 C33.7856805,219.997101 35.7702959,219.075799 37.7513609,218.660414 C39.732426,218.24858 41.6123077,218.394142 43.3856805,219.098876 C45.1608284,219.805385 46.7265089,221.101243 48.0791716,222.984675 C49.4229586,224.85213 50.1454438,226.737337 50.2501775,228.643846" id="Fill-52" fill="#000000"></path>
                <polygon id="Fill-54" fill="#000000" points="18.7654438 221.888876 17.9115976 220.186509 37.3973964 210.400118 32.2388166 200.129112 33.8826036 199.303669 39.8950296 211.277041"></polygon>
                <polygon id="Fill-56" fill="#000000" points="10.4131953 204.007278 9.79011834 202.205503 30.3995858 195.081834 26.6433728 184.219704 28.3812426 183.617929 32.7605325 196.280059"></polygon>
                <path d="M23.0144379,166.035799 C22.3824852,164.001479 21.1345562,162.607988 19.2759763,161.858876 C17.4156213,161.109763 15.1505325,160.918047 12.4824852,161.283728 C9.81443787,161.651183 7.69136095,162.448225 6.11325444,163.669527 C4.53692308,164.890828 3.70615385,166.570118 3.62449704,168.702071 C3.59786982,169.479586 3.6635503,170.43284 3.81976331,171.558284 L4.50674556,176.571302 L24.2889941,173.848225 L23.5984615,168.838757 C23.4404734,167.690237 23.2469822,166.754734 23.0144379,166.035799 L23.0144379,166.035799 Z M1.99668639,171.810355 C1.82094675,170.530473 1.73573964,169.504438 1.73918345,168.730473 C1.73751479,166.145858 2.70142012,164.033432 4.63100592,162.398521 C6.55881657,160.761834 9.08662722,159.728698 12.2091124,159.300888 C15.3546746,158.867751 18.0671006,159.180178 20.3446154,160.236391 C22.6221302,161.294379 24.120355,163.065976 24.8375148,165.552959 C25.0487574,166.275444 25.2422485,167.287278 25.4197633,168.586686 L26.3818935,175.582544 L2.95881657,178.804438 L1.99668639,171.810355 Z" id="Fill-58" fill="#000000"></path>
                <path d="M20.1869822,138.054675 C18.3426036,136.480118 15.8343195,135.631598 12.6639053,135.503787 C9.49171598,135.379527 6.92840237,136.027456 4.97751479,137.451124 C3.02485207,138.876568 1.98284024,140.99787 1.84970414,143.81858 C1.73609467,146.664142 2.6147929,148.861775 4.47869822,150.41503 C6.34615385,151.968284 8.90946746,152.809704 12.1686391,152.937515 C15.2751479,153.06 17.7887574,152.410296 19.7059172,150.984852 C21.6266272,149.559408 22.6526627,147.448757 22.7857988,144.649349 C22.895858,141.826864 22.0295858,139.629231 20.1869822,138.054675 M22.847929,150.517988 C21.756213,152.083669 20.2704142,153.24284 18.3887574,153.990178 C16.5088757,154.73574 14.3414201,155.060592 11.891716,154.962959 C9.44201183,154.867101 7.30828402,154.371834 5.49408284,153.47716 C3.67633136,152.586036 2.28639053,151.313254 1.32248521,149.664142 C0.356804734,148.01503 -0.0798816568,146.04284 0.0124260355,143.745799 C0.104733728,141.427456 0.695857988,139.485444 1.78757396,137.917988 C2.87928994,136.350533 4.36508876,135.193136 6.24497041,134.445799 C8.12840237,133.698462 10.2940828,133.373609 12.743787,133.471243 C15.1934911,133.568876 17.3272189,134.062367 19.1431953,134.957041 C20.9591716,135.849941 22.3491124,137.120947 23.3130178,138.770059 C24.2786982,140.419172 24.7153846,142.402012 24.6230769,144.72213 C24.5307692,147.019172 23.939645,148.950533 22.847929,150.517988" id="Fill-60" fill="#000000"></path>
                <polygon id="Fill-62" fill="#000000" points="1.26017751 127.899586 1.73236686 125.987751 22.8601775 125.215562 4.50337278 114.765266 4.98443787 112.819704 26.1122485 112.04929 7.76254438 101.565266 8.23473373 99.6516568 29.5595858 111.919704 29.0962722 113.801361 8.03059172 114.587751 26.3092899 125.087751 25.8459763 126.969408"></polygon>
                <polygon id="Fill-64" fill="#000000" points="11.3371598 92.7901775 12.1643787 91.0736095 36.3614201 87.5233136 18.1040237 78.7345562 18.9294675 77.0179882 40.2347929 87.2747929 39.407574 88.9895858 15.1821302 92.5274556 33.4697041 101.330414 32.6424852 103.045207"></polygon>
                <polygon id="Fill-66" fill="#000000" points="34.9810651 74.8998817 33.635503 73.8472189 46.2497041 57.6986982 38.2278107 58.6839053 38.0609467 57.1377515 48.8023669 55.8170414 50.1213018 66.5584615 48.5804734 66.7697041 47.5934911 58.7495858"></polygon>
            </g>
        </g>
    </g>
</svg>