<?xml version="1.0" encoding="UTF-8"?>
<svg width="105px" height="35px" viewBox="0 0 105 35" version="1.1" xmlns="http://www.w3.org/2000/svg" xmlns:xlink="http://www.w3.org/1999/xlink">
    <!-- Generator: Sketch 64 (93537) - https://sketch.com -->
    <title>Group 49</title>
    <desc>Created with Sketch.</desc>
    <g id="Page-1" stroke="none" stroke-width="1" fill="none" fill-rule="evenodd">
        <g id="Group-49">
            <polygon id="Fill-1" fill="#FF4B00" points="0 34.9521858 104.453005 34.9521858 104.453005 0 0 0"></polygon>
            <g id="Group-48" transform="translate(8.319672, 7.984973)">
                <path d="M3.59450956,5.93754918 C3.8315724,5.70039071 3.95043852,5.40843716 3.95043852,5.06216667 L3.95043852,2.78219399 C3.95043852,2.4359235 3.8315724,2.1441612 3.59450956,1.9069071 C3.35725546,1.66965301 3.06539754,1.55097814 2.71912705,1.55097814 C2.37285656,1.55097814 2.08090301,1.66965301 1.84374454,1.9069071 C1.60639481,2.1441612 1.48781557,2.4359235 1.48781557,2.78219399 L1.48781557,5.06216667 C1.48781557,5.40843716 1.60639481,5.70039071 1.84374454,5.93754918 C2.08090301,6.17480328 2.37285656,6.29347814 2.71912705,6.29347814 C3.06539754,6.29347814 3.35725546,6.17480328 3.59450956,5.93754918 M1.3771735,7.21218033 C0.989113388,6.99739891 0.687788251,6.69597814 0.472911202,6.30791803 C0.257938525,5.91995355 0.150643443,5.47260383 0.150643443,4.96586885 L0.150643443,2.88805464 C0.150643443,2.38151093 0.257938525,1.93425683 0.472911202,1.54619672 C0.687788251,1.15823224 0.989113388,0.856907104 1.3771735,0.641934426 C1.76513798,0.427057377 2.21239208,0.319666667 2.71912705,0.319666667 C3.22576639,0.319666667 3.67292486,0.427057377 4.0610806,0.641934426 C4.44904508,0.856907104 4.75037022,1.15823224 4.9653429,1.54619672 C5.18012432,1.93425683 5.28751503,2.38151093 5.28751503,2.88805464 L5.28751503,4.96586885 C5.28751503,5.47260383 5.18012432,5.91995355 4.9653429,6.30791803 C4.75037022,6.69597814 4.44904508,6.99739891 4.0610806,7.21218033 C3.67292486,7.42696175 3.22576639,7.53435246 2.71912705,7.53435246 C2.21239208,7.53435246 1.76513798,7.42696175 1.3771735,7.21218033" id="Fill-2" fill="#DAFF00"></path>
                <polygon id="Fill-4" fill="#DAFF00" points="8.27983333 1.74554372 6.98397268 2.55188251 6.97613115 1.10712842 8.27237432 0.320106557 9.61098087 0.313030055 9.64779781 7.24742896 8.30919126 7.25450546"></polygon>
                <path d="M16.1723525,7.08262295 C15.7573251,6.90178962 15.4172705,6.64206284 15.1519973,6.30306011 C14.8870109,5.96424863 14.7179399,5.56375683 14.6448798,5.10187158 L16.0113142,4.89234973 C16.1098115,5.28356557 16.3071885,5.58747268 16.6036366,5.80416667 C16.9001803,6.02095628 17.2474071,6.12825137 17.6456038,6.12605191 C17.9922568,6.12423497 18.2983634,6.04409836 18.5642104,5.88516393 C18.8295792,5.72642077 18.9618333,5.50915301 18.9603033,5.23297814 C18.9595383,5.07892077 18.9089508,4.94437158 18.8088279,4.82923497 C18.7087049,4.71419399 18.5333224,4.61875683 18.2824891,4.54301913 L16.4786503,4.02308743 C16.0479399,3.90355191 15.6777623,3.71602459 15.3681175,3.46069672 C15.0584727,3.20565574 14.9023115,2.79234973 14.8991557,2.22077869 C14.8968607,1.77142077 15.0087459,1.39043716 15.2349071,1.07763661 C15.4611639,0.765122951 15.7698525,0.529112022 16.1605902,0.369603825 C16.5513279,0.210286885 16.9908361,0.132540984 17.4788279,0.136174863 C18.1979536,0.145355191 18.7993607,0.321789617 19.2828579,0.665956284 C19.7662596,1.01012295 20.0929262,1.50614754 20.2634317,2.15364754 L18.8489918,2.40199454 C18.770194,2.06863388 18.5969153,1.8109153 18.3296339,1.6295082 C18.0621612,1.44781421 17.7550984,1.3579235 17.4084454,1.35974044 C17.1000437,1.36146175 16.8341011,1.43509563 16.6101393,1.58083333 C16.3859863,1.72647541 16.2746749,1.91486339 16.2760137,2.14599727 C16.2771612,2.35150273 16.3614098,2.50833333 16.5289508,2.61668033 C16.6963962,2.72502732 16.9215055,2.81357923 17.2046612,2.88262295 L18.4100574,3.20364754 C18.7574754,3.29822404 19.0629126,3.40580601 19.3269426,3.52629781 C19.5906858,3.64688525 19.8244973,3.83670765 20.0282814,4.0956694 C20.2318743,4.35463115 20.3347705,4.69918033 20.3372898,5.12931694 C20.3396475,5.60459016 20.211888,6.00967213 19.9535956,6.34484973 C19.6953033,6.68021858 19.3545792,6.93086066 18.9317104,7.09677596 C18.5089372,7.26278689 18.0533634,7.34713115 17.5654672,7.34977181 C17.0516557,7.35239071 16.5873798,7.26345628 16.1723525,7.08262295" id="Fill-6" fill="#DAFF00"></path>
                <path d="M26.8061653,5.44152459 C27.141056,5.01607377 27.3064932,4.4309235 27.3025724,3.68607377 C27.2984604,2.94772678 27.1283374,2.36917486 26.7922992,1.9503224 C26.4561653,1.53156557 25.9637746,1.32070492 25.3153183,1.31761597 C24.6731735,1.31477596 24.1847992,1.5259235 23.8500997,1.95156557 C23.515209,2.37711202 23.3496762,2.9622623 23.353597,3.70701639 C23.3575178,4.44545902 23.5275451,5.02410656 23.863679,5.44286339 C24.1997172,5.86171585 24.6921079,6.0725765 25.3407555,6.07547611 C25.9829003,6.07840984 26.4712746,5.86707104 26.8061653,5.44152459 M23.5632145,6.86504918 C23.0542801,6.56601913 22.6620123,6.14601913 22.3863156,5.6047623 C22.1104276,5.06379235 21.9708101,4.43360109 21.9668893,3.71447541 C21.9630642,2.99554098 22.0960833,2.36381967 22.366138,1.81978962 C22.636097,1.27575956 23.0237746,0.851551913 23.529362,0.54697541 C24.0349495,0.242685792 24.6282281,0.0884371585 25.3088156,0.0847378959 C25.9892117,0.0811693989 26.5841161,0.229010929 27.0930505,0.528040984 C27.6017937,0.827166667 27.9940615,1.2472623 28.2701407,1.78832787 C28.5457418,2.32948907 28.6856462,2.95968033 28.6893757,3.67861475 C28.6932964,4.39774044 28.5601817,5.02936612 28.2903183,5.57330055 C28.0199768,6.11742623 27.6322992,6.54163388 27.1267117,6.84611475 C26.6210287,7.15059563 26.0278456,7.30455738 25.3472582,7.30835235 C24.6666708,7.31192077 24.0717664,7.16427049 23.5632145,6.86504918" id="Fill-8" fill="#DAFF00"></path>
                <path d="M31.6340902,6.82207377 C31.1251557,6.52304372 30.732888,6.10294809 30.457,5.56178689 C30.1812077,5.02072131 30.0414945,4.39053005 30.037765,3.6715 C30.0338443,2.95246995 30.1667678,2.32084426 30.4368224,1.77681421 C30.7069727,1.23278415 31.0946503,0.808576503 31.6002377,0.504095628 C32.1059208,0.199614754 32.6991038,0.0454617486 33.3796913,0.0417598032 C34.1629836,0.0376202186 34.828653,0.228494536 35.3765082,0.613877049 C35.9240765,0.999546448 36.3122322,1.5351612 36.5408798,2.2210082 L35.2233115,2.59405464 C35.086276,2.16458743 34.8643224,1.8366776 34.5582158,1.61032514 C34.2521093,1.38416393 33.8613716,1.27208743 33.386194,1.27457377 C32.7377377,1.27801639 32.246112,1.49260656 31.9112213,1.91824863 C31.5763306,2.34379508 31.4108934,2.92578962 31.4150055,3.66413661 C31.4189262,4.40248361 31.5905792,4.9826612 31.9297732,5.4046694 C32.2691585,5.82658197 32.7629836,6.03581694 33.4116311,6.03237432 C33.8868087,6.02988798 34.2762077,5.91389071 34.5801148,5.68428689 C34.883735,5.45477869 35.101959,5.12447814 35.2345,4.6935765 L36.5557978,5.05246995 C36.3346093,5.74080328 35.9522869,6.28053005 35.4088306,6.67184153 C34.8650874,7.06334426 34.2015219,7.2610082 33.4181339,7.26528131 C32.7375464,7.26884973 32.1426421,7.12119945 31.6340902,6.82207377" id="Fill-10" fill="#DAFF00"></path>
                <polygon id="Fill-12" fill="#DAFF00" points="38.4560205 0.15918306 39.7658429 0.152297814 39.8026598 7.08669672 38.4928374 7.0936776"></polygon>
                <path d="M43.8719071,4.39709016 L45.7403907,4.38714481 L44.780377,1.34874317 L43.8719071,4.39709016 Z M46.5732186,7.05058743 L46.1225219,5.60831967 L43.5125355,5.62228142 L43.0771393,7.06923497 L41.7288743,7.07650273 L43.8108005,0.130724044 L45.7660191,0.120204918 L47.9217705,7.0434153 L46.5732186,7.05058743 Z" id="Fill-14" fill="#DAFF00"></path>
                <polygon id="Fill-16" fill="#DAFF00" points="49.6183907 0.099692623 50.9282131 0.092807377 50.9587186 5.80402322 53.9442377 5.78805328 53.9508361 7.01123634 49.6552077 7.03418716"></polygon>
                <path d="M3.05370219,17.557903 C3.47695355,17.4723156 3.7981694,17.2202391 4.01744536,16.8015779 C4.23691257,16.3830123 4.34506831,15.9041052 4.34229508,15.3646653 C4.33923497,14.8126025 4.22419399,14.3315915 3.99745902,13.9218238 C3.77034153,13.5121516 3.44797814,13.2665779 3.03036885,13.1852937 C2.86952186,13.1541189 2.6192623,13.1393921 2.27892077,13.1411134 L1.36394809,13.1459904 L1.38785519,17.6149932 L2.30263661,17.6101161 C2.64297814,17.6082992 2.8932377,17.5909904 3.05370219,17.557903 L3.05370219,17.557903 Z M2.27222678,11.9083675 C2.61256831,11.9065505 2.88874317,11.918026 3.10075137,11.9425068 C3.64669399,12.0039003 4.11642077,12.1923839 4.51002732,12.5080533 C4.90315574,12.8238183 5.20400273,13.2300478 5.41209016,13.7264549 C5.6201776,14.2230533 5.72584699,14.7667008 5.72909836,15.3573019 C5.7322541,15.9481899 5.6323224,16.4928893 5.42949454,16.9914003 C5.22666667,17.4901981 4.93021858,17.8993921 4.54043716,18.2193648 C4.15027322,18.5392418 3.68255464,18.7328893 3.13737705,18.7998292 C2.92556011,18.8267964 2.64948087,18.8410451 2.30923497,18.842862 L0.0651229508,18.8548156 L0.0281147541,11.920321 L2.27222678,11.9083675 Z" id="Fill-18" fill="#DAFF00"></path>
                <polygon id="Fill-20" fill="#DAFF00" points="7.92571175 11.8781872 9.23553415 11.8713019 9.27254235 18.8057008 7.96271995 18.8126817"></polygon>
                <path d="M12.907541,18.6563197 C12.4923224,18.4754863 12.1522678,18.2157596 11.8871858,17.8767568 C11.6220082,17.538041 11.4529372,17.1375492 11.379877,16.6756639 L12.7465027,16.4661421 C12.845,16.8573579 13.0421858,17.161265 13.3388251,17.377959 C13.6351776,17.594653 13.9825956,17.7019481 14.3807923,17.6997486 C14.7274454,17.6979317 15.0335519,17.6177951 15.2993989,17.4589563 C15.5647678,17.3002131 15.6970219,17.0828497 15.6954918,16.8066749 C15.6947268,16.6526175 15.6441393,16.5180683 15.5440164,16.4030273 C15.4437022,16.2879863 15.2685109,16.1925492 15.0176776,16.1168115 L13.2138388,15.5967842 C12.7829372,15.477153 12.4127596,15.2896257 12.1031148,15.0343934 C11.7936612,14.7793525 11.6373087,14.3659508 11.6343443,13.7943798 C11.6318579,13.3450219 11.7437432,12.9641339 11.9700956,12.6513333 C12.1963525,12.3388197 12.5048497,12.1028087 12.8957787,11.9433005 C13.2865164,11.783888 13.7260246,11.7061421 14.2140164,11.709776 C14.9331421,11.7189563 15.5345492,11.8954863 16.0178552,12.239653 C16.5012568,12.5838197 16.8281148,13.0798443 16.9986202,13.7273443 L15.5839891,13.9756913 C15.5051913,13.642235 15.3321038,13.384612 15.0648224,13.2031093 C14.7973497,13.0215109 14.4900956,12.9316202 14.1434426,12.9334372 C13.8352322,12.9350628 13.5692896,13.0087923 13.3453279,13.1545301 C13.1211749,13.3000765 13.0098634,13.4885601 13.0112022,13.719694 C13.0123497,13.9251995 13.0965984,14.0820301 13.2641393,14.1902814 C13.4315847,14.298724 13.656694,14.387276 13.9396585,14.4563197 L15.1452459,14.7773443 C15.4924727,14.8718251 15.7981011,14.9795027 16.0619399,15.0999945 C16.3258743,15.220582 16.5596858,15.4104044 16.7632787,15.6693661 C16.9668716,15.9283279 17.069959,16.2729727 17.0722924,16.7031093 C17.0748361,17.1783825 16.9468852,17.5833689 16.6885929,17.9185464 C16.4303005,18.2539153 16.0897678,18.5045574 15.6668989,18.6704727 C15.2441257,18.8364836 14.7885519,18.9208279 14.3004645,18.9234685 C13.7868443,18.9260874 13.3225683,18.837153 12.907541,18.6563197" id="Fill-22" fill="#DAFF00"></path>
                <polygon id="Fill-24" fill="#DAFF00" points="20.6836995 13.0334836 18.497347 13.0450546 18.4907486 11.8218716 24.1731803 11.791653 24.1797787 13.0148361 21.9935219 13.0265027 22.0240273 18.7377186 20.7141093 18.7447951"></polygon>
                <path d="M27.605179,16.0401749 L29.4736626,16.0302295 L28.5136489,12.9917322 L27.605179,16.0401749 Z M30.3064904,18.6935765 L29.8557937,17.2513087 L27.2458074,17.2652705 L26.8104112,18.712224 L25.4621462,18.7194918 L27.5438811,11.7737131 L29.4990997,11.763194 L31.6548511,18.6864044 L30.3064904,18.6935765 Z" id="Fill-26" fill="#DAFF00"></path>
                <polygon id="Fill-28" fill="#DAFF00" points="33.6404221 11.7411899 34.9696571 11.7341134 38.0087281 16.3411079 37.984056 11.7180478 39.313291 11.7109713 39.3502992 18.6453702 38.0210642 18.6524467 34.9819932 14.0456434 35.0066653 18.6685123 33.6774303 18.6756844"></polygon>
                <path d="M42.8541817,18.318541 C42.3452473,18.0195109 41.9529795,17.5994153 41.6772828,17.0583497 C41.4014904,16.5172842 41.2617773,15.8870929 41.2578566,15.1679672 C41.254127,14.4489372 41.3870505,13.8173115 41.6571052,13.2732814 C41.9270642,12.7292514 42.3147418,12.3050437 42.8205205,12.0005628 C43.3260123,11.696082 43.9191954,11.541929 44.5997828,11.53823 C45.3830751,11.5341831 46.0487445,11.7249617 46.5965997,12.1103443 C47.1443593,12.4960137 47.532515,13.0316284 47.7609713,13.7174754 L46.443403,14.0905219 C46.3063675,13.6610546 46.0846052,13.3331448 45.7784986,13.1067923 C45.4722008,12.8806311 45.0814631,12.7685546 44.6062855,12.771041 C43.9578292,12.7744836 43.4662036,12.9890738 43.1313128,13.4147158 C42.7966134,13.8402623 42.6311762,14.4222568 42.635097,15.1606038 C42.6390178,15.8990464 42.8106708,16.479224 43.150056,16.9012322 C43.4894413,17.3231448 43.9832664,17.5322842 44.6317227,17.5288415 C45.1069003,17.5263552 45.4962992,17.4104536 45.8002063,17.1808497 C46.1038265,16.9513415 46.3222418,16.621041 46.4545915,16.1901393 L47.7760806,16.5490328 C47.5548921,17.2373661 47.1725697,17.7769973 46.6289221,18.1683087 C46.085179,18.5598115 45.4216134,18.757571 44.6382254,18.7617485 C43.957638,18.7653169 43.3629249,18.6176667 42.8541817,18.318541" id="Fill-30" fill="#DAFF00"></path>
                <polygon id="Fill-32" fill="#DAFF00" points="49.3871708 11.6572377 53.9138374 11.6331393 53.9203402 12.8563224 50.7035915 12.8734399 50.7114331 14.3567322 53.3504904 14.3426749 53.3570888 15.5658579 50.7179358 15.5799153 50.7274986 17.3615683 53.9442473 17.3445464 53.9508456 18.5676339 49.424179 18.5917322"></polygon>
                <path d="M59.8708087,4.18897404 L64.7827623,4.16277186 L64.7880219,5.17404235 L59.8762596,5.20024454 L59.8708087,4.18897404 Z M59.8607678,2.31083197 L64.7727213,2.28462978 L64.7780765,3.29590027 L59.866123,3.32219809 L59.8607678,2.31083197 Z" id="Fill-34" fill="#00F1FF"></path>
                <path d="M73.0632363,5.77571721 C73.2739057,5.5626571 73.3785232,5.3085724 73.3770097,5.01317623 C73.3753675,4.71146858 73.2679768,4.4550888 73.0550123,4.24432377 C72.8420478,4.03355874 72.5876762,3.92903689 72.2925669,3.93055038 C71.9971708,3.93219262 71.742321,4.0394877 71.5284959,4.25245219 C71.3144795,4.4655123 71.2084276,4.72294399 71.2100349,5.02465164 C71.2115833,5.31364071 71.3187828,5.56514344 71.5318429,5.77906421 C71.7448074,5.9930806 71.9989877,6.09932377 72.2944795,6.09771646 C72.5962828,6.09616803 72.8523757,5.98877732 73.0632363,5.77571721 M73.6313648,3.04217896 C73.9695068,3.23620902 74.232485,3.50463798 74.4204904,3.8469877 C74.6084003,4.18952869 74.7036462,4.57596311 74.7061657,5.00609973 C74.708332,5.43633197 74.6011325,5.83012978 74.384821,6.18778005 C74.1684139,6.54523907 73.8745478,6.82772541 73.5033183,7.03514344 C73.1319932,7.24246585 72.7311189,7.34746585 72.3011735,7.3498007 C71.8451216,7.35215164 71.4321025,7.24676913 71.0617336,7.03370902 C70.6913648,6.82064891 70.40075,6.52037568 70.1900806,6.13298497 C69.9794112,5.74568989 69.8727855,5.3048429 69.8699167,4.81034836 L69.8593019,2.79737022 C69.8565287,2.25812158 69.9599986,1.78896858 70.1697117,1.38962432 C70.3795205,0.990471311 70.6764467,0.682356557 71.0604904,0.465088798 C71.4444385,0.248012295 71.8966653,0.137943989 72.4167883,0.135120654 C73.1422254,0.131345628 73.7436325,0.346509563 74.2212008,0.78056694 L73.2920751,1.71963798 C73.1756954,1.60469262 73.0419112,1.51556694 72.8910096,1.45206967 C72.7395342,1.38876366 72.5837555,1.35739754 72.4233866,1.3582582 C72.1792473,1.35950137 71.9644658,1.4185041 71.7789467,1.53507514 C71.593332,1.65164617 71.4495068,1.80503415 71.3479495,1.99495219 C71.2461052,2.18487022 71.1959003,2.38568989 71.1969522,2.59760246 L71.2003948,3.19480191 C71.5774577,2.90390027 72.0036735,2.75711066 72.4788511,2.75452869 C72.9089877,2.75232923 73.293127,2.84824454 73.6313648,3.04217896" id="Fill-36" fill="#DAFF00"></path>
                <polygon id="Fill-38" fill="#DAFF00" points="76.4143333 0.415342896 80.6520109 0.39277459 80.6589918 1.70250137 77.7311366 1.7180888 77.7391694 3.22060246 80.0891421 3.20807514 80.0960273 4.51789754 77.7460546 4.53042486 77.7611639 7.34276093 76.4513415 7.34983743"></polygon>
                <polygon id="Fill-40" fill="#DAFF00" points="84.2894863 1.63843033 82.1031339 1.65009699 82.0965355 0.427009563 87.7789672 0.396695355 87.7855656 1.61978279 85.5993087 1.63144945 85.6298142 7.34276093 84.3198962 7.34983743"></polygon>
                <path d="M59.8708087,15.5588579 L64.782571,15.5327514 L64.7880219,16.5440219 L59.8760683,16.5701284 L59.8708087,15.5588579 Z M59.8607678,13.6807158 L64.7725301,13.6546093 L64.7778852,14.6658798 L59.866123,14.692082 L59.8607678,13.6807158 Z" id="Fill-42" fill="#00F1FF"></path>
                <path d="M71.9102732,17.410071 L74.7322678,17.3950574 L74.7387705,18.6278033 L69.8846721,18.6537186 L69.8785519,17.5171749 L72.7733197,14.9205765 C73.1695082,14.5653169 73.366694,14.2239235 73.3650683,13.8964918 C73.363347,13.5753716 73.2657104,13.312776 73.0719672,13.1083224 C72.8781284,12.9038689 72.6239481,12.8023115 72.3096175,12.8040328 C71.9819945,12.8058497 71.7128962,12.9148661 71.5021311,13.1309863 C71.2914617,13.3473934 71.1932514,13.6031038 71.2075956,13.8982131 L69.8592862,13.9054809 C69.8568443,13.436806 69.9588798,13.0269426 70.1658197,12.6757951 C70.3725683,12.3248388 70.661653,12.0537322 71.0331694,11.8622842 C71.4044945,11.6709317 71.8374044,11.5738689 72.3318033,11.5710561 C72.7811612,11.5688005 73.1861475,11.6663415 73.5469536,11.8632404 C73.9074727,12.0605219 74.1913934,12.3366011 74.3988115,12.691765 C74.6061339,13.0470246 74.7111339,13.4526803 74.7135246,13.908541 C74.7154372,14.2359727 74.6700137,14.5123388 74.578306,14.7375437 C74.4864071,14.9628443 74.3622814,15.1609863 74.205929,15.3319699 C74.0493852,15.5028579 73.7987432,15.7402077 73.4536202,16.0438279 L71.9102732,17.410071 Z" id="Fill-44" fill="#DAFF00"></path>
                <polygon id="Fill-46" fill="#DAFF00" points="77.205888 11.6896366 78.3808743 11.6834208 80.6976639 16.2748279 82.9653005 11.6589399 84.1402869 11.6526284 84.1771995 18.587123 82.9540164 18.5936257 82.9320219 14.4522459 80.9412295 18.6044317 80.4789617 18.6068224 78.4437978 14.476153 78.4660792 18.6175328 77.2428962 18.6241311"></polygon>
            </g>
        </g>
    </g>
</svg>