<?xml version="1.0" encoding="UTF-8"?>
<svg width="35px" height="35px" viewBox="0 0 35 35" version="1.1" xmlns="http://www.w3.org/2000/svg" xmlns:xlink="http://www.w3.org/1999/xlink">
    <!-- Generator: Sketch 64 (93537) - https://sketch.com -->
    <title>Group 15</title>
    <desc>Created with Sketch.</desc>
    <g id="Page-1" stroke="none" stroke-width="1" fill="none" fill-rule="evenodd">
        <g id="Group-15">
            <polygon id="Fill-1" fill="#DAFF00" points="34.8870375 -1.69354839e-05 2.54032258e-05 6.77419355e-05 0.000110080645 34.8870798 34.8871222 34.8869952"></polygon>
            <g id="Group-14" transform="translate(5.080645, 6.266129)" fill="#1A00FF">
                <path d="M4.55620403,7.626675 C4.84453065,7.34613871 4.99161532,7.00776774 4.99711935,6.61122339 C5.00287742,6.20621129 4.86544597,5.85937258 4.58507903,5.57096129 C4.30445806,5.28246532 3.96600242,5.13546532 3.56962742,5.12996129 C3.17291371,5.12437258 2.82836129,5.26180403 2.53580081,5.54208629 C2.24298629,5.82245323 2.09386935,6.1653121 2.08819597,6.57032419 C2.08260726,6.95814677 2.22020806,7.29863468 2.500575,7.59136452 C2.78085726,7.88409435 3.11914355,8.03321129 3.51577258,8.0388 C3.92078468,8.04447339 4.26779274,7.90704194 4.55620403,7.626675 M5.38976855,3.97233629 C5.83864355,4.24169516 6.18463548,4.6086871 6.42808306,5.07314274 C6.67161532,5.53776774 6.78931694,6.05887258 6.78127258,6.63637258 C6.77322823,7.2137879 6.61903065,7.73963468 6.31944194,8.2139129 C6.01959919,8.68819113 5.61780484,9.05975565 5.11414355,9.32860645 C4.6103129,9.59720323 4.06964758,9.72769113 3.49223226,9.71964677 C2.88018387,9.710925 2.32842581,9.558675 1.83687339,9.26306613 C1.34523629,8.96745726 0.963002419,8.55694113 0.690341129,8.03134839 C0.417510484,7.50600968 0.285837097,6.91157419 0.295151613,6.2477879 L0.333171774,3.54573145 C0.343248387,2.82173952 0.494397581,2.19461855 0.786280645,1.66411452 C1.07824839,1.13369516 1.48478468,0.72783629 2.00605887,0.446114516 C2.52716371,0.164816129 3.13701048,0.028908871 3.83509113,0.0387314516 C4.80905081,0.0524491935 5.61069194,0.356779839 6.24052258,0.951808065 L4.96875242,2.18826774 C4.81565565,2.03102177 4.63851048,1.90798548 4.43731694,1.81882016 C4.23586935,1.72990887 4.02739355,1.68359032 3.81197419,1.68062661 C3.48435726,1.67605403 3.19459113,1.74963871 2.94250645,1.90129597 C2.69025242,2.05295323 2.49337742,2.25490887 2.35205081,2.5071629 C2.21055484,2.75950161 2.13781694,3.02784435 2.13392177,3.31236048 L2.12265968,4.11391694 C2.63639758,3.73329194 3.21237339,3.54734032 3.85041774,3.55640081 C4.42766371,3.56436048 4.94097823,3.70314677 5.38976855,3.97233629" id="Fill-2"></path>
                <polygon id="Fill-4" points="9.9736621 0.306049597 15.6622911 0.385815726 15.63765 2.14422702 11.7072629 2.08901734 11.6789806 4.10594879 14.8335532 4.15023508 14.8089121 5.90847702 11.6543395 5.86419073 11.6012468 9.63944879 9.84292016 9.61480766"></polygon>
                <polygon id="Fill-6" points="20.7719298 2.09998306 17.8371798 2.05874516 17.8602968 0.416765323 25.4882081 0.523966935 25.4651758 2.1658621 22.5302565 2.12462419 22.4224621 9.79140242 20.6642202 9.76676129"></polygon>
                <path d="M4.57655202,18.7095774 C4.89646331,18.6278637 5.12737863,18.4586782 5.26895927,18.202021 C5.41045524,17.9453637 5.48344718,17.6618637 5.4878504,17.3516056 C5.49216895,17.0412629 5.42713669,16.7559 5.29292298,16.4954323 C5.1586246,16.2348798 4.93253589,16.0593435 4.61499556,15.968654 C4.46054395,15.9234363 4.26231411,15.8990492 4.02106815,15.8956621 L1.92657218,15.8661944 L1.88626573,18.7362508 L3.98084637,18.7657185 C4.23072944,18.769275 4.42921331,18.750646 4.57655202,18.7095774 L4.57655202,18.7095774 Z M4.12183427,14.2547831 C4.42337056,14.2589323 4.68172137,14.2799323 4.89680202,14.3173597 C5.6967496,14.4493718 6.29321734,14.7875734 6.68645927,15.3317105 C7.07978589,15.8761863 7.27047944,16.5576702 7.25904798,17.3764161 C7.24753185,18.1954161 7.03761653,18.871396 6.62921734,19.4041863 C6.22090282,19.9374 5.61520524,20.2586661 4.81178589,20.3679847 C4.59577379,20.3994847 4.33691492,20.4130331 4.03529395,20.4087992 L1.86323347,20.3782306 L1.81903185,23.5329726 L0.0607052419,23.5083315 L0.191447177,14.1994887 L4.12183427,14.2547831 Z" id="Fill-8"></path>
                <polygon id="Fill-10" points="9.75865766 14.3338887 11.517069 14.3586992 11.4092746 22.0254774 15.4171415 22.0817032 15.394194 23.7236831 9.62791573 23.6427315"></polygon>
                <polygon id="Fill-12" points="17.2717972 23.5302375 21.7978899 16.1452657 17.7641117 16.0887012 17.7872286 14.4467214 24.8980996 14.546556 24.8949665 14.766294 20.3947851 22.1387335 24.6614262 22.1986004 24.6381399 23.8534512 17.2687488 23.7499754"></polygon>
            </g>
        </g>
    </g>
</svg>