<?xml version="1.0" encoding="UTF-8"?>
<svg width="34px" height="35px" viewBox="0 0 34 35" version="1.1" xmlns="http://www.w3.org/2000/svg" xmlns:xlink="http://www.w3.org/1999/xlink">
    <!-- Generator: Sketch 64 (93537) - https://sketch.com -->
    <title>Group 47</title>
    <desc>Created with Sketch.</desc>
    <g id="Page-1" stroke="none" stroke-width="1" fill="none" fill-rule="evenodd">
        <g id="Group-47">
            <polygon id="Fill-1" fill="#1A00FF" points="16.738725 0 3.55271368e-15 13.8036111 0.007725 13.8043111 3.55271368e-15 13.8043111 3.55271368e-15 35 33.75 35 33.75 13.8043111 33.742875 13.8043111 33.75 13.8036111"></polygon>
            <g id="Group-46" transform="translate(3.602610, 13.000000)" fill="#00F1FF">
                <path d="M3.026325,6.08253425 C2.662875,5.92420925 2.36505,5.69673425 2.133,5.39995925 C1.9008,5.10325925 1.752825,4.75263425 1.68885,4.34815925 L2.8854,4.16470925 C2.971575,4.50715925 3.14445,4.77340925 3.4041,4.96300925 C3.6636,5.15283425 3.967725,5.24673425 4.3164,5.24493425 C4.62,5.24335925 4.88805,5.17308425 5.120625,5.03403425 C5.353125,4.89505925 5.46885,4.70470925 5.467575,4.46290925 C5.466825,4.32798425 5.422575,4.21015925 5.334975,4.10935925 C5.247225,4.00878425 5.093625,3.92515925 4.874025,3.85893425 L3.294525,3.40338425 C2.917275,3.29875925 2.5932,3.13458425 2.32215,2.91108425 C2.0511,2.68765925 1.91415,2.32585925 1.911525,1.82545925 C1.909425,1.43200925 2.00745,1.09833425 2.2056,0.824434252 C2.4036,0.550759252 2.673825,0.344209252 3.01605,0.204484252 C3.3582,0.065059252 3.743025,-0.00311574801 4.170375,0.00010925199 C4.8,0.00820925199 5.326575,0.162709252 5.7498,0.464059252 C6.173175,0.765334252 6.4593,1.19973425 6.608625,1.76658425 L5.37,1.98408425 C5.301,1.69218425 5.14935,1.46658425 4.915275,1.30765925 C4.68105,1.14858425 4.412175,1.06990925 4.108575,1.07155925 C3.838725,1.07298425 3.605775,1.13748425 3.40965,1.26505925 C3.213525,1.39263425 3.116025,1.55755925 3.11715,1.75998425 C3.118125,1.93998425 3.19185,2.07730925 3.338625,2.17203425 C3.48525,2.26690925 3.68235,2.34453425 3.93015,2.40505925 L4.98585,2.68600925 C5.289825,2.76873425 5.55735,2.86300925 5.7885,2.96845925 C6.0195,3.07413425 6.224325,3.24025925 6.4026,3.46698425 C6.580875,3.69370925 6.671025,3.99558425 6.6730811,4.37215925 C6.675225,4.78825925 6.563325,5.14308425 6.3372,5.43663425 C6.111,5.73018425 5.8128,5.94963425 5.442525,6.09490925 C5.072175,6.24025925 4.6734,6.31405925 4.2462,6.31636303 C3.79635,6.31870925 3.389775,6.24078425 3.026325,6.08253425" id="Fill-2"></path>
                <polygon id="Fill-4" points="9.6665775 1.15999925 7.7522775 1.17019925 7.7465025 0.099124252 12.7220775 0.072649252 12.7277775 1.14364925 10.8134775 1.15384925 10.8401025 6.15469925 9.6932025 6.16084925"></polygon>
                <path d="M15.3899025,3.79437425 L17.0258775,3.78567425 L16.1852775,1.12527425 L15.3899025,3.79437425 Z M17.7552525,6.11779925 L17.3604525,4.85494925 L15.0752025,4.86717425 L14.6940525,6.13414925 L13.5133275,6.14044925 L15.3362775,0.058699252 L17.0481525,0.049624252 L18.9359025,6.11157425 L17.7552525,6.11779925 Z" id="Fill-6"></path>
                <polygon id="Fill-8" points="21.33453 3.62782175 19.240755 0.037946752 20.581605 0.030746752 21.90948 2.30917175 23.21283 0.016721752 24.553605 0.00959675199 22.498305 3.62159675 22.51143 6.09247175 21.34773 6.09869675"></polygon>
                <polygon id="Fill-10" points="-3.95683486e-13 9.39346218 1.1469 9.38731218 1.160175 11.8835372 3.875625 11.8691372 3.86235 9.37291218 5.009325 9.36676218 5.04165 15.4386122 3.894675 15.4447622 3.881325 12.9400622 1.165875 12.9544622 1.179225 15.4591622 0.032325 15.4653122"></polygon>
                <path d="M10.780695,13.9068647 C11.07387,13.5342647 11.218695,13.0219397 11.215245,12.3696647 C11.211795,11.7233147 11.062845,11.2166897 10.76862,10.8498647 C10.474245,10.4832647 10.04322,10.2986147 9.475395,10.2958902 C8.91312,10.2934397 8.485395,10.4783147 8.19222,10.8509147 C7.899045,11.2236647 7.75422,11.7360647 7.75767,12.3881147 C7.76112,13.0346897 7.909995,13.5413147 8.204295,13.9079897 C8.498595,14.2746647 8.92962,14.4593147 9.497595,14.4618938 C10.059795,14.4645647 10.48752,14.2795397 10.780695,13.9068647 M7.94112,15.1532147 C7.495545,14.8914647 7.152045,14.5236647 6.91062,14.0497397 C6.669045,13.5760397 6.546645,13.0242647 6.543345,12.3945647 C6.53997,11.7650147 6.656445,11.2119647 6.89292,10.7356397 C7.129245,10.2592397 7.468845,9.88791468 7.911645,9.62113968 C8.35422,9.35466468 8.87367,9.21966468 9.46962,9.21645592 C10.065495,9.21328968 10.58622,9.34281468 11.03187,9.60456468 C11.477295,9.86653968 11.82087,10.2342647 12.06237,10.7081147 C12.30387,11.1818897 12.42627,11.7336647 12.429645,12.3632147 C12.43302,12.9929147 12.31647,13.5459647 12.08007,14.0222147 C11.843595,14.4986897 11.503995,14.8700897 11.061345,15.1365647 C10.618545,15.4033397 10.099245,15.5381147 9.50337,15.5413959 C8.907345,15.5444897 8.38662,15.4151897 7.94112,15.1532147" id="Fill-12"></path>
                <polygon id="Fill-14" points="13.931355 9.31919718 14.960205 9.31372218 16.988805 13.3340222 18.974355 9.29234718 20.003205 9.28679718 20.035605 15.3586472 18.964605 15.3644222 18.94533 11.7381722 17.20203 15.3737972 16.797255 15.3759722 15.015405 11.7590972 15.034755 15.3853472 13.963755 15.3910472"></polygon>
                <polygon id="Fill-16" points="21.85836 9.27693468 25.821885 9.25585968 25.827585 10.3268597 23.01096 10.3418597 23.01786 11.6406347 25.328535 11.6283347 25.334235 12.6992597 23.02356 12.7115597 23.031885 14.2717097 25.84851 14.2566347 25.85421 15.3277097 21.89076 15.3487847"></polygon>
            </g>
        </g>
    </g>
</svg>