<?xml version="1.0" encoding="UTF-8"?>
<svg width="35px" height="35px" viewBox="0 0 35 35" version="1.1" xmlns="http://www.w3.org/2000/svg" xmlns:xlink="http://www.w3.org/1999/xlink">
    <!-- Generator: Sketch 64 (93537) - https://sketch.com -->
    <title>Group 49</title>
    <desc>Created with Sketch.</desc>
    <g id="Page-1" stroke="none" stroke-width="1" fill="none" fill-rule="evenodd">
        <g id="Group-49">
            <path d="M35,17.5 C35,27.1649781 27.1649781,35 17.5,35 C7.83502188,35 0,27.1649781 0,17.5 C0,7.83502188 7.83502188,0 17.5,0 C27.1649781,0 35,7.83502188 35,17.5" id="Fill-1" fill="#00F1FF"></path>
            <path d="M10.45294,10.4221425 C10.60804,10.2826425 10.718215,10.1148675 10.788565,9.9200175 C10.853815,9.7391925 10.85749,9.6041175 10.800415,9.5176425 C10.74289,9.4312425 10.62334,9.4121925 10.437715,9.4607925 C10.100515,9.5489925 9.763315,9.6432675 9.426115,9.7435425 C9.23014,10.1348925 9.04504,10.5265425 8.870365,10.9181925 C9.229765,10.8355425 9.58924,10.7578425 9.948565,10.6850175 C10.12939,10.6485675 10.298215,10.5620175 10.45294,10.4221425 M9.84664,8.9335425 C10.130665,8.8341675 10.41469,8.7401175 10.698715,8.6513175 C10.837015,8.6081175 10.96714,8.5325925 11.088415,8.4220425 C11.209465,8.3119425 11.306215,8.1712425 11.381965,8.0010675 C11.449615,7.8486675 11.46799,7.7359425 11.43814,7.6644675 C11.407915,7.5929175 11.32669,7.5828675 11.19109,7.6341675 C10.926565,7.7342175 10.66204,7.8401175 10.397515,7.9519425 C10.20649,8.2790175 10.02289,8.6061675 9.84664,8.9335425 M11.693815,9.1373925 C11.73064,9.3152925 11.71234,9.5315175 11.63479,9.7825425 C11.49184,10.2475425 11.26834,10.6382175 10.943365,10.9478925 C10.61944,11.2585425 10.21429,11.4447675 9.73534,11.5226175 C9.02224,11.6393175 8.309215,11.7713175 7.596115,11.9186925 C8.28319,10.4460675 9.14899,8.9735925 10.193665,7.5009675 C10.67479,7.2401925 11.156065,7.0040175 11.637265,6.7922175 C11.880865,6.6848175 12.049765,6.6668925 12.152815,6.7366425 C12.255415,6.8064675 12.304465,6.9353925 12.29869,7.1189925 C12.293065,7.3027425 12.247765,7.5134925 12.158065,7.7477925 C12.07339,7.9685175 11.969215,8.1709425 11.840065,8.3536425 C11.710765,8.5364175 11.566015,8.6870925 11.40289,8.8068675 C11.560765,8.8484925 11.65654,8.9592675 11.693815,9.1373925" id="Fill-3" fill="#FF4B00"></path>
            <path d="M13.936705,9.009375 C14.33353,8.95755 14.730505,8.913525 15.127405,8.877225 C15.032905,8.1111 14.971405,7.3557 14.94988,6.61245 C14.62468,7.413225 14.28478,8.21295 13.936705,9.009375 M15.441955,10.91565 C15.37318,10.54365 15.310405,10.17375 15.25453,9.8061 C14.675455,9.846525 14.09638,9.9003 13.51723,9.96735 C13.34848,10.34415 13.178455,10.719975 13.00768,11.0946 C12.69478,11.125275 12.381955,11.1588 12.06898,11.195325 C12.94903,9.42195 13.83163,7.610175 14.63983,5.78835 C14.97898,5.710875 15.318205,5.6454 15.657355,5.592225 C15.722605,7.302825 15.989455,9.0708 16.380805,10.878525 C16.06783,10.887975 15.75493,10.90035 15.441955,10.91565" id="Fill-5" fill="#FF4B00"></path>
            <path d="M18.215365,10.61301 C17.862415,10.37211 17.59894,10.04016 17.426665,9.614685 C17.253715,9.189585 17.185315,8.696085 17.20504,8.132535 C17.225215,7.569585 17.327665,7.07391 17.49274,6.647685 C17.658265,6.22146 17.874265,5.889585 18.13819,5.65941 C18.402865,5.429385 18.70009,5.325135 19.051015,5.35491 C19.454515,5.38911 19.813765,5.585985 20.155165,5.926185 C20.49544,6.26736 20.789215,6.713085 21.022615,7.256385 C20.78569,7.310235 20.54419,7.37001 20.29804,7.43526 C20.170915,7.094985 20.00809,6.826785 19.814965,6.632535 C19.621015,6.43866 19.396915,6.328635 19.13434,6.309585 C18.77629,6.283635 18.51499,6.43941 18.331315,6.76521 C18.148615,7.091535 18.05104,7.545735 18.05539,8.124285 C18.06034,8.70351 18.17044,9.16101 18.40069,9.497985 C18.630115,9.83511 18.969715,10.00806 19.407415,10.024335 C19.72744,10.036485 19.984015,9.96081 20.16964,9.79506 C20.35534,9.62946 20.471215,9.384285 20.51599,9.058185 C20.810665,9.17631 21.109165,9.29736 21.41119,9.420885 C21.351115,9.932685 21.15004,10.324935 20.809015,10.60296 C20.468215,10.88136 20.01349,11.01171 19.465465,10.994685 C18.989365,10.98021 18.56794,10.85451 18.215365,10.61301" id="Fill-7" fill="#FF4B00"></path>
            <path d="M21.6525475,5.9183325 C21.8797225,5.9787075 22.1070475,6.0445575 22.3343725,6.1158075 C22.6131475,6.8937825 22.8698725,7.6742325 23.1046975,8.4571575 C23.4070225,7.7862075 23.6146975,7.1675325 23.7076975,6.6130575 C23.9850475,6.7269075 24.2623975,6.8488575 24.5397475,6.9790575 C24.4825975,7.5090075 24.2869975,8.1210825 23.9781475,8.8001325 C24.9058225,9.7899825 25.8946225,10.7574825 26.9157475,11.6753325 C26.5312975,11.6055825 26.1468475,11.5402575 25.7623975,11.4793575 C24.8811475,10.6397325 24.0299725,9.7674075 23.2298725,8.8818825 C23.4541225,9.6561825 23.6567725,10.4328825 23.8378975,11.2119825 C23.5339225,11.1756825 23.2297975,11.1420075 22.9258975,11.1111825 C22.5890725,9.3670575 22.1645725,7.6361325 21.6525475,5.9183325" id="Fill-9" fill="#FF4B00"></path>
            <path d="M8.0888275,17.716845 C8.5967275,17.74407 9.1046275,17.769195 9.6125275,17.79222 C9.4249525,17.040945 9.2673775,16.30647 9.1465525,15.58992 C8.7765775,16.314195 8.4217525,17.02422 8.0888275,17.716845 M10.1634775,19.804545 C10.0533025,19.434645 9.9484525,19.06842 9.8497525,18.705645 C9.1341775,18.65802 8.4185275,18.60402 7.7028775,18.543645 C7.5526525,18.865545 7.4076025,19.183245 7.2687775,19.49637 C6.8966275,19.450395 6.5244775,19.40217 6.1522525,19.351395 C6.8247775,17.925045 7.6554775,16.380345 8.5675525,14.75502 C9.0714775,14.73162 9.5751775,14.71017 10.0790275,14.690595 C10.3185025,16.344795 10.7445775,18.085545 11.2800775,19.897395 C10.9078525,19.86882 10.5356275,19.837845 10.1634775,19.804545" id="Fill-11" fill="#FF4B00"></path>
            <path d="M12.0151225,14.6247075 C12.3700225,14.6142825 12.7250725,14.6048325 13.0799725,14.5964325 C13.2853975,15.8162325 13.5534475,17.0631075 13.8618475,18.3324075 C14.2603975,17.0845575 14.6745475,15.8266575 15.0826225,14.5662825 C15.4378225,14.5587075 15.7929475,14.5521075 16.1479225,14.5464825 C16.4361475,15.8116575 16.7644225,17.0927325 17.1103225,18.3839325 C17.4766225,17.0964075 17.8359475,15.8127075 18.1659475,14.5391325 C18.5208475,14.5396575 18.8758975,14.5411575 19.2307975,14.5434825 C18.7600225,16.3878075 18.2064475,18.2640075 17.6438725,20.1502575 C17.2876225,20.1492075 16.9314475,20.1460575 16.5751975,20.1406575 C16.2096475,18.8638575 15.8584225,17.5980825 15.5437975,16.3493325 C15.1428475,17.5968075 14.7376225,18.8422575 14.3503225,20.0781075 C13.9941475,20.0635575 13.6378975,20.0466825 13.2817975,20.0276325 C12.7551475,18.1684575 12.3083725,16.3620825 12.0151225,14.6247075" id="Fill-13" fill="#FF4B00"></path>
            <path d="M21.3781825,17.9460975 C21.8860825,17.9363475 22.3939825,17.9244975 22.9018075,17.9105475 C22.6033825,17.1255225 22.2970825,16.3332225 21.9893575,15.5364975 C21.8062075,16.3296225 21.6003325,17.1333975 21.3781825,17.9460975 M23.6566825,19.9569975 C23.5253575,19.5912225 23.3910325,19.2231975 23.2543825,18.8534475 C22.5387325,18.8852475 21.8231575,18.9107475 21.1074325,18.9298725 C20.9950825,19.3189725 20.8795825,19.7098725 20.7618325,20.1024225 C20.3896825,20.1148725 20.0176075,20.1249225 19.6454575,20.1324975 C20.2171825,18.2412225 20.7499825,16.3785975 21.1669075,14.5658475 C21.6707575,14.5740975 22.1746825,14.5842225 22.6786075,14.5962225 C23.4130075,16.3952475 24.1368325,18.1654725 24.7731325,19.8749475 C24.4009825,19.9046475 24.0287575,19.9320225 23.6566825,19.9569975" id="Fill-15" fill="#FF4B00"></path>
            <path d="M26.9036425,17.6460975 C26.1552175,16.6982475 25.3820425,15.6928725 24.6146425,14.6517975 C25.0092925,14.6649975 25.4039425,14.6793975 25.7985925,14.6949225 C26.3028925,15.3389475 26.8068175,15.9651975 27.3026425,16.5679725 C27.6105925,15.9530475 27.8862175,15.3626475 28.1218675,14.7999975 C28.5165925,14.8200975 28.9111675,14.8413975 29.3058175,14.8637475 C28.9614175,15.7023975 28.5114925,16.6163475 27.9862675,17.5931475 C28.0671925,18.2405475 28.1232175,18.8887725 28.1544925,19.5378975 C27.7875925,19.5816975 27.4206925,19.6230975 27.0538675,19.6621725 C27.0260425,18.9888975 26.9758675,18.3168225 26.9036425,17.6460975" id="Fill-17" fill="#FF4B00"></path>
            <path d="M13.2502,26.3389875 C13.43695,26.3171625 13.5673,26.2328625 13.64125,26.0886375 C13.71505,25.9444125 13.7476,25.7780625 13.738525,25.5912375 C13.7293,25.4040375 13.67995,25.2279375 13.589275,25.0627125 C13.49845,24.8973375 13.3552,24.7779375 13.158625,24.7017375 C13.06315,24.6640125 12.941425,24.6355125 12.79465,24.6154125 C12.369325,24.5573625 11.943925,24.4921125 11.5186,24.4195875 C11.552725,24.9727125 11.5957,25.5270375 11.647825,26.0825625 C12.06445,26.1705375 12.48115,26.2497375 12.897925,26.3200125 C13.047175,26.3451375 13.1644,26.3512875 13.2502,26.3389875 M12.802525,23.6497875 C12.987775,23.6715375 13.14685,23.6994375 13.27975,23.7342375 C13.774225,23.8588125 14.148475,24.0889125 14.402275,24.4369875 C14.656825,24.7846125 14.789875,25.2079875 14.807725,25.7077125 C14.82565,26.2069125 14.72275,26.6117625 14.50225,26.9115375 C14.281225,27.2114625 13.940575,27.3646125 13.4752,27.3574125 C13.3501,27.3566625 13.199125,27.3405375 13.0219,27.3072375 C12.596425,27.2275875 12.1711,27.1374375 11.745775,27.0369375 C11.81425,27.6490125 11.89345,28.2624375 11.98345,28.8774375 C11.6524,28.7812125 11.321425,28.6768875 10.99045,28.5645375 C10.67995,26.7979875 10.479625,25.0422375 10.38925,23.2972125 C11.1937,23.4373125 11.99815,23.5548375 12.802525,23.6497875" id="Fill-19" fill="#FF4B00"></path>
            <path d="M16.2636025,23.9191425 C16.6234525,23.9327175 16.9833025,23.9417175 17.3431525,23.9462175 C17.3484775,25.5194175 17.3592025,27.1043925 17.3753275,28.7010675 C18.1466275,28.7180175 18.9180775,28.6962675 19.6894525,28.6359675 C19.6772275,28.9760175 19.6640275,29.3166675 19.6499275,29.6578425 C18.5644525,29.7522675 17.4790525,29.7596925 16.3935775,29.6801175 C16.3265275,27.7427175 16.2831775,25.8224175 16.2636025,23.9191425" id="Fill-21" fill="#FF4B00"></path>
            <path d="M20.7175375,29.40234 C21.6525625,27.755715 22.6472125,26.112015 23.6251375,24.520515 C22.8059125,24.64659 21.9867625,24.745665 21.1675375,24.817815 C21.1776625,24.485415 21.1861375,24.15369 21.1931875,23.82234 C22.6485625,23.710365 24.1039375,23.524665 25.5593875,23.265015 C25.5572125,23.30604 25.5549625,23.347065 25.5525625,23.388165 C24.5753875,24.938715 23.5539625,26.566065 22.5638875,28.224315 C23.3851375,28.05789 24.2064625,27.847665 25.0276375,27.593565 C24.9786625,27.90609 24.9263125,28.218915 24.8703625,28.53204 C23.4831625,29.00964 22.0958125,29.34489 20.7086125,29.53809 C20.7115375,29.49279 20.7145375,29.44764 20.7175375,29.40234" id="Fill-23" fill="#FF4B00"></path>
        </g>
    </g>
</svg>